<?xml version="1.0" encoding="UTF-8"?><svg xmlns="http://www.w3.org/2000/svg" xmlns:xlink="http://www.w3.org/1999/xlink" fill-opacity="1" color-rendering="auto" color-interpolation="auto" text-rendering="auto" stroke="black" stroke-linecap="square" width="983" stroke-miterlimit="10" shape-rendering="auto" stroke-opacity="1" fill="black" stroke-dasharray="none" font-weight="normal" stroke-width="1" height="1152" font-family="'Dialog'" font-style="normal" stroke-linejoin="miter" font-size="12px" stroke-dashoffset="0" image-rendering="auto">
  <!--Generated by ySVG 2.5-->
  <defs id="genericDefs"/>
  <g>
    <g fill="white" text-rendering="geometricPrecision" shape-rendering="geometricPrecision" transform="translate(15,15)" stroke="white">
      <rect x="-15" width="983" height="1152" y="-15" clip-path="url(#clipPath2)" stroke="none"/>
    </g>
    <g fill="rgb(245,245,245)" text-rendering="geometricPrecision" shape-rendering="geometricPrecision" transform="matrix(1,0,0,1,15,15)" stroke="rgb(245,245,245)">
      <rect x="593.1373" y="569.5942" clip-path="url(#clipPath2)" width="176.5071" rx="4" ry="4" height="161.4609" stroke="none"/>
      <rect x="590.1856" y="569.5942" clip-path="url(#clipPath2)" fill="rgb(153,204,255)" width="182.4106" height="21.4609" stroke="none"/>
    </g>
    <g font-size="15px" stroke-linecap="butt" transform="matrix(1,0,0,1,15,15)" text-rendering="geometricPrecision" font-family="sans-serif" shape-rendering="geometricPrecision" stroke-miterlimit="1.45">
      <text x="592.1855" xml:space="preserve" y="585.5175" clip-path="url(#clipPath2)" stroke="none">Research Data Services</text>
      <rect x="593.1373" y="569.5942" clip-path="url(#clipPath2)" fill="none" width="176.5071" stroke-dasharray="6,2" rx="4" ry="4" height="161.4609"/>
    </g>
    <g fill="url(#linearGradient1)" text-rendering="geometricPrecision" shape-rendering="geometricPrecision" transform="matrix(1,0,0,1,15,15)" stroke="url(#linearGradient1)">
      <path d="M609.1377 676.0551 L753.644 676.0551 L753.644 716.0551 L609.1377 716.0551 Z" stroke="none" clip-path="url(#clipPath2)"/>
    </g>
    <g text-rendering="geometricPrecision" stroke-miterlimit="1.45" shape-rendering="geometricPrecision" transform="matrix(1,0,0,1,15,15)" stroke-linecap="butt">
      <path fill="none" d="M609.1377 676.0551 L753.644 676.0551 L753.644 716.0551 L609.1377 716.0551 Z" clip-path="url(#clipPath2)"/>
      <text x="655.5217" xml:space="preserve" y="693.225" clip-path="url(#clipPath2)" font-family="sans-serif" stroke="none">Backend</text>
      <text x="620.7756" xml:space="preserve" y="707.1938" clip-path="url(#clipPath2)" font-family="sans-serif" stroke="none">(Open-Host Service)</text>
    </g>
    <g fill="url(#linearGradient2)" text-rendering="geometricPrecision" shape-rendering="geometricPrecision" transform="matrix(1,0,0,1,15,15)" stroke="url(#linearGradient2)">
      <path d="M611.7133 606.0551 L751.0685 606.0551 L751.0685 646.0551 L611.7133 646.0551 Z" stroke="none" clip-path="url(#clipPath2)"/>
    </g>
    <g text-rendering="geometricPrecision" stroke-miterlimit="1.45" shape-rendering="geometricPrecision" transform="matrix(1,0,0,1,15,15)" stroke-linecap="butt">
      <path fill="none" d="M611.7133 606.0551 L751.0685 606.0551 L751.0685 646.0551 L611.7133 646.0551 Z" clip-path="url(#clipPath2)"/>
      <text x="626.2834" xml:space="preserve" y="623.225" clip-path="url(#clipPath2)" font-family="sans-serif" stroke="none">Application Server</text>
      <text x="656.1575" xml:space="preserve" y="637.1938" clip-path="url(#clipPath2)" font-family="sans-serif" stroke="none">(UWSGI)</text>
    </g>
    <g text-rendering="geometricPrecision" stroke-miterlimit="1.45" shape-rendering="geometricPrecision" transform="matrix(1,0,0,1,15,15)" stroke-linecap="butt">
      <path fill="none" d="M681.3909 654.0551 L681.3909 668.0258" clip-path="url(#clipPath2)"/>
      <path d="M681.3909 646.0551 L676.3909 658.0551 L681.3909 655.0551 L686.3909 658.0551 Z" clip-path="url(#clipPath2)" stroke="none"/>
      <path d="M681.3909 676.0258 L686.3909 664.0258 L681.3909 667.0258 L676.3909 664.0258 Z" clip-path="url(#clipPath2)" stroke="none"/>
    </g>
    <g fill="rgb(245,245,245)" text-rendering="geometricPrecision" shape-rendering="geometricPrecision" transform="matrix(1,0,0,1,15,15)" stroke="rgb(245,245,245)">
      <rect x="364.2798" y="153.1328" clip-path="url(#clipPath2)" width="277" rx="4" ry="4" height="146.4609" stroke="none"/>
      <rect x="364.2798" y="153.1328" clip-path="url(#clipPath2)" fill="rgb(204,255,255)" width="277" height="21.4609" stroke="none"/>
    </g>
    <g font-size="15px" stroke-linecap="butt" transform="matrix(1,0,0,1,15,15)" text-rendering="geometricPrecision" font-family="sans-serif" shape-rendering="geometricPrecision" stroke-miterlimit="1.45">
      <text x="521.228" xml:space="preserve" y="169.0562" clip-path="url(#clipPath2)" stroke="none">Konnektoren zu</text>
      <rect x="364.2798" y="153.1328" clip-path="url(#clipPath2)" fill="none" width="277" stroke-dasharray="6,2" rx="4" ry="4" height="146.4609"/>
    </g>
    <g fill="url(#linearGradient3)" text-rendering="geometricPrecision" shape-rendering="geometricPrecision" transform="matrix(1,0,0,1,15,15)" stroke="url(#linearGradient3)">
      <path d="M545.2798 244.5938 L625.2798 244.5938 L625.2798 284.5938 L545.2798 284.5938 Z" stroke="none" clip-path="url(#clipPath2)"/>
    </g>
    <g text-rendering="geometricPrecision" stroke-miterlimit="1.45" shape-rendering="geometricPrecision" transform="matrix(1,0,0,1,15,15)" stroke-linecap="butt">
      <path fill="none" d="M545.2798 244.5938 L625.2798 244.5938 L625.2798 284.5938 L545.2798 284.5938 Z" clip-path="url(#clipPath2)"/>
      <text x="554.7085" xml:space="preserve" y="268.748" clip-path="url(#clipPath2)" font-family="sans-serif" stroke="none">OwnCloud</text>
    </g>
    <g fill="url(#linearGradient4)" text-rendering="geometricPrecision" shape-rendering="geometricPrecision" transform="matrix(1,0,0,1,15,15)" stroke="url(#linearGradient4)">
      <path d="M490.2798 189.5938 L570.2798 189.5938 L570.2798 229.5938 L490.2798 229.5938 Z" stroke="none" clip-path="url(#clipPath2)"/>
    </g>
    <g text-rendering="geometricPrecision" stroke-miterlimit="1.45" shape-rendering="geometricPrecision" transform="matrix(1,0,0,1,15,15)" stroke-linecap="butt">
      <path fill="none" d="M490.2798 189.5938 L570.2798 189.5938 L570.2798 229.5938 L490.2798 229.5938 Z" clip-path="url(#clipPath2)"/>
      <text x="509.9653" xml:space="preserve" y="213.748" clip-path="url(#clipPath2)" font-family="sans-serif" stroke="none">Seafile</text>
    </g>
    <g fill="url(#linearGradient5)" text-rendering="geometricPrecision" shape-rendering="geometricPrecision" transform="matrix(1,0,0,1,15,15)" stroke="url(#linearGradient5)">
      <path d="M380.2798 189.5938 L460.2798 189.5938 L460.2798 229.5938 L380.2798 229.5938 Z" stroke="none" clip-path="url(#clipPath2)"/>
    </g>
    <g text-rendering="geometricPrecision" stroke-miterlimit="1.45" shape-rendering="geometricPrecision" transform="matrix(1,0,0,1,15,15)" stroke-linecap="butt">
      <path fill="none" d="M380.2798 189.5938 L460.2798 189.5938 L460.2798 229.5938 L380.2798 229.5938 Z" clip-path="url(#clipPath2)"/>
      <text x="389.9487" xml:space="preserve" y="213.748" clip-path="url(#clipPath2)" font-family="sans-serif" stroke="none">Nextcloud</text>
    </g>
    <g fill="rgb(245,245,245)" text-rendering="geometricPrecision" shape-rendering="geometricPrecision" transform="matrix(1,0,0,1,15,15)" stroke="rgb(245,245,245)">
      <rect x="400.5" y="1029.8611" clip-path="url(#clipPath2)" width="551.2817" rx="4" ry="4" height="91.4609" stroke="none"/>
      <rect x="400.5" y="1029.8611" clip-path="url(#clipPath2)" fill="rgb(153,204,255)" width="551.2817" height="21.4609" stroke="none"/>
    </g>
    <g font-size="15px" stroke-linecap="butt" transform="matrix(1,0,0,1,15,15)" text-rendering="geometricPrecision" font-family="sans-serif" shape-rendering="geometricPrecision" stroke-miterlimit="1.45">
      <text x="877.1475" xml:space="preserve" y="1045.7844" clip-path="url(#clipPath2)" stroke="none">Sonstiges</text>
      <rect x="400.5" y="1029.8611" clip-path="url(#clipPath2)" fill="none" width="551.2817" stroke-dasharray="6,2" rx="4" ry="4" height="91.4609"/>
    </g>
    <g fill="url(#linearGradient6)" text-rendering="geometricPrecision" shape-rendering="geometricPrecision" transform="matrix(1,0,0,1,15,15)" stroke="url(#linearGradient6)">
      <path d="M672.0364 1066.322 L790.2453 1066.322 L790.2453 1106.322 L672.0364 1106.322 Z" stroke="none" clip-path="url(#clipPath2)"/>
    </g>
    <g text-rendering="geometricPrecision" stroke-miterlimit="1.45" shape-rendering="geometricPrecision" transform="matrix(1,0,0,1,15,15)" stroke-linecap="butt">
      <path fill="none" d="M672.0364 1066.322 L790.2453 1066.322 L790.2453 1106.322 L672.0364 1106.322 Z" clip-path="url(#clipPath2)"/>
      <text x="683.1497" xml:space="preserve" y="1090.4763" clip-path="url(#clipPath2)" font-family="sans-serif" stroke="none">Logging Service</text>
    </g>
    <g fill="url(#linearGradient7)" text-rendering="geometricPrecision" shape-rendering="geometricPrecision" transform="matrix(1,0,0,1,15,15)" stroke="url(#linearGradient7)">
      <path d="M562.0361 1066.322 L642.0361 1066.322 L642.0361 1106.322 L562.0361 1106.322 Z" stroke="none" clip-path="url(#clipPath2)"/>
    </g>
    <g text-rendering="geometricPrecision" stroke-miterlimit="1.45" shape-rendering="geometricPrecision" transform="matrix(1,0,0,1,15,15)" stroke-linecap="butt">
      <path fill="none" d="M562.0361 1066.322 L642.0361 1066.322 L642.0361 1106.322 L562.0361 1106.322 Z" clip-path="url(#clipPath2)"/>
      <text x="569.9502" xml:space="preserve" y="1090.4763" clip-path="url(#clipPath2)" font-family="sans-serif" stroke="none">Monitoring</text>
    </g>
    <g fill="rgb(245,245,245)" text-rendering="geometricPrecision" shape-rendering="geometricPrecision" transform="matrix(1,0,0,1,15,15)" stroke="rgb(245,245,245)">
      <rect x="472" y="853.4002" clip-path="url(#clipPath2)" width="448.7817" rx="4" ry="4" height="146.4609" stroke="none"/>
      <rect x="472" y="853.4002" clip-path="url(#clipPath2)" fill="rgb(204,255,204)" width="448.7817" height="21.4609" stroke="none"/>
    </g>
    <g font-size="15px" stroke-linecap="butt" transform="matrix(1,0,0,1,15,15)" text-rendering="geometricPrecision" font-family="sans-serif" shape-rendering="geometricPrecision" stroke-miterlimit="1.45">
      <text x="802.0996" xml:space="preserve" y="869.3235" clip-path="url(#clipPath2)" stroke="none">ETL-Werkzeuge</text>
      <rect x="472" y="853.4002" clip-path="url(#clipPath2)" fill="none" width="448.7817" stroke-dasharray="6,2" rx="4" ry="4" height="146.4609"/>
    </g>
    <g fill="url(#linearGradient8)" text-rendering="geometricPrecision" shape-rendering="geometricPrecision" transform="matrix(1,0,0,1,15,15)" stroke="url(#linearGradient8)">
      <path d="M824.7817 944.8611 L904.7817 944.8611 L904.7817 984.8611 L824.7817 984.8611 Z" stroke="none" clip-path="url(#clipPath2)"/>
    </g>
    <g text-rendering="geometricPrecision" stroke-miterlimit="1.45" shape-rendering="geometricPrecision" transform="matrix(1,0,0,1,15,15)" stroke-linecap="butt">
      <path fill="none" d="M824.7817 944.8611 L904.7817 944.8611 L904.7817 984.8611 L824.7817 984.8611 Z" clip-path="url(#clipPath2)"/>
      <text x="836.6128" xml:space="preserve" y="969.0154" clip-path="url(#clipPath2)" font-family="sans-serif" stroke="none">Archiving</text>
    </g>
    <g fill="url(#linearGradient9)" text-rendering="geometricPrecision" shape-rendering="geometricPrecision" transform="matrix(1,0,0,1,15,15)" stroke="url(#linearGradient9)">
      <path d="M769.7817 889.8611 L849.7817 889.8611 L849.7817 929.8611 L769.7817 929.8611 Z" stroke="none" clip-path="url(#clipPath2)"/>
    </g>
    <g text-rendering="geometricPrecision" stroke-miterlimit="1.45" shape-rendering="geometricPrecision" transform="matrix(1,0,0,1,15,15)" stroke-linecap="butt">
      <path fill="none" d="M769.7817 889.8611 L849.7817 889.8611 L849.7817 929.8611 L769.7817 929.8611 Z" clip-path="url(#clipPath2)"/>
      <text x="790.1411" xml:space="preserve" y="914.0154" clip-path="url(#clipPath2)" font-family="sans-serif" stroke="none">Export</text>
    </g>
    <g fill="url(#linearGradient10)" text-rendering="geometricPrecision" shape-rendering="geometricPrecision" transform="matrix(1,0,0,1,15,15)" stroke="url(#linearGradient10)">
      <path d="M714.7817 944.8611 L794.7817 944.8611 L794.7817 984.8611 L714.7817 984.8611 Z" stroke="none" clip-path="url(#clipPath2)"/>
    </g>
    <g text-rendering="geometricPrecision" stroke-miterlimit="1.45" shape-rendering="geometricPrecision" transform="matrix(1,0,0,1,15,15)" stroke-linecap="butt">
      <path fill="none" d="M714.7817 944.8611 L794.7817 944.8611 L794.7817 984.8611 L714.7817 984.8611 Z" clip-path="url(#clipPath2)"/>
      <text x="723.3491" xml:space="preserve" y="969.0154" clip-path="url(#clipPath2)" font-family="sans-serif" stroke="none">Taxonomy</text>
    </g>
    <g fill="url(#linearGradient11)" text-rendering="geometricPrecision" shape-rendering="geometricPrecision" transform="matrix(1,0,0,1,15,15)" stroke="url(#linearGradient11)">
      <path d="M623.4734 889.8611 L739.7814 889.8611 L739.7814 929.8611 L623.4734 929.8611 Z" stroke="none" clip-path="url(#clipPath2)"/>
    </g>
    <g text-rendering="geometricPrecision" stroke-miterlimit="1.45" shape-rendering="geometricPrecision" transform="matrix(1,0,0,1,15,15)" stroke-linecap="butt">
      <path fill="none" d="M623.4734 889.8611 L739.7814 889.8611 L739.7814 929.8611 L623.4734 929.8611 Z" clip-path="url(#clipPath2)"/>
      <text x="627.3198" xml:space="preserve" y="914.0154" clip-path="url(#clipPath2)" font-family="sans-serif" stroke="none">Metadata Capture</text>
    </g>
    <g fill="url(#linearGradient12)" text-rendering="geometricPrecision" shape-rendering="geometricPrecision" transform="matrix(1,0,0,1,15,15)" stroke="url(#linearGradient12)">
      <path d="M568.473 944.8611 L648.473 944.8611 L648.473 984.8611 L568.473 984.8611 Z" stroke="none" clip-path="url(#clipPath2)"/>
    </g>
    <g text-rendering="geometricPrecision" stroke-miterlimit="1.45" shape-rendering="geometricPrecision" transform="matrix(1,0,0,1,15,15)" stroke-linecap="butt">
      <path fill="none" d="M568.473 944.8611 L648.473 944.8611 L648.473 984.8611 L568.473 984.8611 Z" clip-path="url(#clipPath2)"/>
      <text x="575.4408" xml:space="preserve" y="969.0154" clip-path="url(#clipPath2)" font-family="sans-serif" stroke="none">Publication</text>
    </g>
    <g fill="url(#linearGradient13)" text-rendering="geometricPrecision" shape-rendering="geometricPrecision" transform="matrix(1,0,0,1,15,15)" stroke="url(#linearGradient13)">
      <path d="M488.0002 889.8611 L593.4728 889.8611 L593.4728 929.8611 L488.0002 929.8611 Z" stroke="none" clip-path="url(#clipPath2)"/>
    </g>
    <g text-rendering="geometricPrecision" stroke-miterlimit="1.45" shape-rendering="geometricPrecision" transform="matrix(1,0,0,1,15,15)" stroke-linecap="butt">
      <path fill="none" d="M488.0002 889.8611 L593.4728 889.8611 L593.4728 929.8611 L488.0002 929.8611 Z" clip-path="url(#clipPath2)"/>
      <text x="495.8713" xml:space="preserve" y="914.0154" clip-path="url(#clipPath2)" font-family="sans-serif" stroke="none">Docker Runner</text>
    </g>
    <g text-rendering="geometricPrecision" stroke-miterlimit="1.45" stroke-dasharray="6,2" shape-rendering="geometricPrecision" transform="matrix(1,0,0,1,15,15)" stroke-linecap="butt">
      <path fill="none" d="M701.6409 999.8611 L701.6409 1021.8318" clip-path="url(#clipPath2)"/>
      <path d="M701.6409 1029.8318 L706.6409 1017.8318 L701.6409 1020.8318 L696.6409 1017.8318 Z" clip-path="url(#clipPath2)" stroke="none"/>
    </g>
    <g fill="rgb(245,245,245)" text-rendering="geometricPrecision" shape-rendering="geometricPrecision" transform="matrix(1,0,0,1,15,15)" stroke="rgb(245,245,245)">
      <rect x="0" y="853.4002" clip-path="url(#clipPath2)" width="442" rx="4" ry="4" height="146.4609" stroke="none"/>
      <rect x="0" y="853.4002" clip-path="url(#clipPath2)" fill="rgb(255,153,204)" width="442" height="21.4609" stroke="none"/>
    </g>
    <g font-size="15px" stroke-linecap="butt" transform="matrix(1,0,0,1,15,15)" text-rendering="geometricPrecision" font-family="sans-serif" shape-rendering="geometricPrecision" stroke-miterlimit="1.45">
      <text x="321.9482" xml:space="preserve" y="869.3235" clip-path="url(#clipPath2)" stroke="none">Konnektoren zu</text>
      <rect x="0" y="853.4002" clip-path="url(#clipPath2)" fill="none" width="442" stroke-dasharray="6,2" rx="4" ry="4" height="146.4609"/>
    </g>
    <g fill="url(#linearGradient14)" text-rendering="geometricPrecision" shape-rendering="geometricPrecision" transform="matrix(1,0,0,1,15,15)" stroke="url(#linearGradient14)">
      <path d="M346 889.8611 L426 889.8611 L426 929.8611 L346 929.8611 Z" stroke="none" clip-path="url(#clipPath2)"/>
    </g>
    <g text-rendering="geometricPrecision" stroke-miterlimit="1.45" shape-rendering="geometricPrecision" transform="matrix(1,0,0,1,15,15)" stroke-linecap="butt">
      <path fill="none" d="M346 889.8611 L426 889.8611 L426 929.8611 L346 929.8611 Z" clip-path="url(#clipPath2)"/>
      <text x="349.8066" xml:space="preserve" y="914.0154" clip-path="url(#clipPath2)" font-family="sans-serif" stroke="none">CRIS@WWU</text>
    </g>
    <g fill="url(#linearGradient15)" text-rendering="geometricPrecision" shape-rendering="geometricPrecision" transform="matrix(1,0,0,1,15,15)" stroke="url(#linearGradient15)">
      <path d="M236 889.8611 L316 889.8611 L316 929.8611 L236 929.8611 Z" stroke="none" clip-path="url(#clipPath2)"/>
    </g>
    <g text-rendering="geometricPrecision" stroke-miterlimit="1.45" shape-rendering="geometricPrecision" transform="matrix(1,0,0,1,15,15)" stroke-linecap="butt">
      <path fill="none" d="M236 889.8611 L316 889.8611 L316 929.8611 L236 929.8611 Z" clip-path="url(#clipPath2)"/>
      <text x="251.7451" xml:space="preserve" y="914.0154" clip-path="url(#clipPath2)" font-family="sans-serif" stroke="none">Clarin-D</text>
    </g>
    <g fill="url(#linearGradient16)" text-rendering="geometricPrecision" shape-rendering="geometricPrecision" transform="matrix(1,0,0,1,15,15)" stroke="url(#linearGradient16)">
      <path d="M181 944.8611 L261 944.8611 L261 984.8611 L181 984.8611 Z" stroke="none" clip-path="url(#clipPath2)"/>
    </g>
    <g text-rendering="geometricPrecision" stroke-miterlimit="1.45" shape-rendering="geometricPrecision" transform="matrix(1,0,0,1,15,15)" stroke-linecap="butt">
      <path fill="none" d="M181 944.8611 L261 944.8611 L261 984.8611 L181 984.8611 Z" clip-path="url(#clipPath2)"/>
      <text x="202.3115" xml:space="preserve" y="969.0154" clip-path="url(#clipPath2)" font-family="sans-serif" stroke="none">RDMO</text>
    </g>
    <g fill="url(#linearGradient17)" text-rendering="geometricPrecision" shape-rendering="geometricPrecision" transform="matrix(1,0,0,1,15,15)" stroke="url(#linearGradient17)">
      <path d="M126 889.8611 L206 889.8611 L206 929.8611 L126 929.8611 Z" stroke="none" clip-path="url(#clipPath2)"/>
    </g>
    <g text-rendering="geometricPrecision" stroke-miterlimit="1.45" shape-rendering="geometricPrecision" transform="matrix(1,0,0,1,15,15)" stroke-linecap="butt">
      <path fill="none" d="M126 889.8611 L206 889.8611 L206 929.8611 L126 929.8611 Z" clip-path="url(#clipPath2)"/>
      <text x="152.6318" xml:space="preserve" y="914.0154" clip-path="url(#clipPath2)" font-family="sans-serif" stroke="none">EPIC</text>
    </g>
    <g fill="url(#linearGradient18)" text-rendering="geometricPrecision" shape-rendering="geometricPrecision" transform="matrix(1,0,0,1,15,15)" stroke="url(#linearGradient18)">
      <path d="M71 944.8611 L151 944.8611 L151 984.8611 L71 984.8611 Z" stroke="none" clip-path="url(#clipPath2)"/>
    </g>
    <g text-rendering="geometricPrecision" stroke-miterlimit="1.45" shape-rendering="geometricPrecision" transform="matrix(1,0,0,1,15,15)" stroke-linecap="butt">
      <path fill="none" d="M71 944.8611 L151 944.8611 L151 984.8611 L71 984.8611 Z" clip-path="url(#clipPath2)"/>
      <text x="84.7734" xml:space="preserve" y="969.0154" clip-path="url(#clipPath2)" font-family="sans-serif" stroke="none">DataCite</text>
    </g>
    <g fill="url(#linearGradient19)" text-rendering="geometricPrecision" shape-rendering="geometricPrecision" transform="matrix(1,0,0,1,15,15)" stroke="url(#linearGradient19)">
      <path d="M16 889.8611 L96 889.8611 L96 929.8611 L16 929.8611 Z" stroke="none" clip-path="url(#clipPath2)"/>
    </g>
    <g text-rendering="geometricPrecision" stroke-miterlimit="1.45" shape-rendering="geometricPrecision" transform="matrix(1,0,0,1,15,15)" stroke-linecap="butt">
      <path fill="none" d="M16 889.8611 L96 889.8611 L96 929.8611 L16 929.8611 Z" clip-path="url(#clipPath2)"/>
      <text x="33.2451" xml:space="preserve" y="914.0154" clip-path="url(#clipPath2)" font-family="sans-serif" stroke="none">Zenodo</text>
    </g>
    <g text-rendering="geometricPrecision" shape-rendering="geometricPrecision" transform="matrix(1.4743,0,0,1.4523,492.8064,38.1328)">
      <g clip-path="url(#clipPath3)">
        <svg xmlns:svg="http://www.w3.org/2000/svg" xmlns:sodipodi="http://sodipodi.sourceforge.net/DTD/sodipodi-0.dtd" xmlns:inkscape="http://www.inkscape.org/namespaces/inkscape" xmlns:dc="http://purl.org/dc/elements/1.1/" xmlns:cc="http://web.resource.org/cc/" xmlns:rdf="http://www.w3.org/1999/02/22-rdf-syntax-ns#" opacity="1" writing-mode="lr-tb" stop-color="rgb(0, 0, 0)" shape-rendering="auto" glyph-orientation-horizontal="0deg" color-profile="auto" lighting-color="rgb(255, 255, 255)" color="rgb(0, 0, 0)" font-weight="400" alignment-baseline="auto" font-style="normal" version="1.0" color-interpolation-filters="linearrgb" text-anchor="start" stroke-linecap="butt" color-interpolation="srgb" font-variant="normal" word-spacing="normal" fill-opacity="1" text-rendering="auto" clip-path="none" text-decoration="none" letter-spacing="normal" glyph-orientation-vertical="auto" display="inline" font-size-adjust="none" overflow="hidden" fill="rgb(0, 0, 0)" font-stretch="normal" stroke-dasharray="none" inkscape:version="0.45.1" id="svg1.svg2" stroke-miterlimit="4" stop-opacity="1" color-rendering="auto" font-size="12" sodipodi:docbase="C:\Daten\alberts\projects\yfx" pointer-events="visiblepainted" mask="none" direction="ltr" baseline-shift="baseline" sodipodi:docname="uml_actor.svg" enable-background="accumulate" fill-rule="nonzero" image-rendering="auto" stroke-dashoffset="0" inkscape:output_extension="org.inkscape.output.svg.inkscape" marker-end="none" width="41" clip="auto" cursor="auto" stroke="none" filter="none" visibility="visible" kerning="auto" stroke-width="1" font-family="&quot;Arial&quot;,&quot;Helvetica&quot;,sans-serif" flood-opacity="1" clip-rule="nonzero" src="none" height="68.997391" unicode-bidi="normal" sodipodi:version="0.32" stroke-linejoin="miter" stroke-opacity="1" flood-color="rgb(0, 0, 0)" dominant-baseline="auto" marker-start="none" marker-mid="none">
            
          <defs id="svg1.defs4">
            <linearGradient x1="609.1377" gradientUnits="userSpaceOnUse" x2="753.644" y1="676.0551" y2="716.0551" id="linearGradient1" spreadMethod="reflect">
              <stop stop-opacity="1" stop-color="rgb(232,238,247)" offset="0%"/>
              <stop stop-opacity="1" stop-color="rgb(183,201,227)" offset="100%"/>
            </linearGradient>
            <linearGradient x1="611.7133" gradientUnits="userSpaceOnUse" x2="751.0685" y1="606.0551" y2="646.0551" id="linearGradient2" spreadMethod="reflect">
              <stop stop-opacity="1" stop-color="rgb(232,238,247)" offset="0%"/>
              <stop stop-opacity="1" stop-color="rgb(183,201,227)" offset="100%"/>
            </linearGradient>
            <linearGradient x1="545.2798" gradientUnits="userSpaceOnUse" x2="625.2798" y1="244.5938" y2="284.5938" id="linearGradient3" spreadMethod="reflect">
              <stop stop-opacity="1" stop-color="rgb(232,238,247)" offset="0%"/>
              <stop stop-opacity="1" stop-color="rgb(183,201,227)" offset="100%"/>
            </linearGradient>
            <linearGradient x1="490.2798" gradientUnits="userSpaceOnUse" x2="570.2798" y1="189.5938" y2="229.5938" id="linearGradient4" spreadMethod="reflect">
              <stop stop-opacity="1" stop-color="rgb(232,238,247)" offset="0%"/>
              <stop stop-opacity="1" stop-color="rgb(183,201,227)" offset="100%"/>
            </linearGradient>
            <linearGradient x1="380.2798" gradientUnits="userSpaceOnUse" x2="460.2798" y1="189.5938" y2="229.5938" id="linearGradient5" spreadMethod="reflect">
              <stop stop-opacity="1" stop-color="rgb(232,238,247)" offset="0%"/>
              <stop stop-opacity="1" stop-color="rgb(183,201,227)" offset="100%"/>
            </linearGradient>
            <linearGradient x1="672.0364" gradientUnits="userSpaceOnUse" x2="790.2453" y1="1066.322" y2="1106.322" id="linearGradient6" spreadMethod="reflect">
              <stop stop-opacity="1" stop-color="rgb(232,238,247)" offset="0%"/>
              <stop stop-opacity="1" stop-color="rgb(183,201,227)" offset="100%"/>
            </linearGradient>
            <linearGradient x1="562.0361" gradientUnits="userSpaceOnUse" x2="642.0361" y1="1066.322" y2="1106.322" id="linearGradient7" spreadMethod="reflect">
              <stop stop-opacity="1" stop-color="rgb(232,238,247)" offset="0%"/>
              <stop stop-opacity="1" stop-color="rgb(183,201,227)" offset="100%"/>
            </linearGradient>
            <linearGradient x1="824.7817" gradientUnits="userSpaceOnUse" x2="904.7817" y1="944.8611" y2="984.8611" id="linearGradient8" spreadMethod="reflect">
              <stop stop-opacity="1" stop-color="rgb(232,238,247)" offset="0%"/>
              <stop stop-opacity="1" stop-color="rgb(183,201,227)" offset="100%"/>
            </linearGradient>
            <linearGradient x1="769.7817" gradientUnits="userSpaceOnUse" x2="849.7817" y1="889.8611" y2="929.8611" id="linearGradient9" spreadMethod="reflect">
              <stop stop-opacity="1" stop-color="rgb(232,238,247)" offset="0%"/>
              <stop stop-opacity="1" stop-color="rgb(183,201,227)" offset="100%"/>
            </linearGradient>
            <linearGradient x1="714.7817" gradientUnits="userSpaceOnUse" x2="794.7817" y1="944.8611" y2="984.8611" id="linearGradient10" spreadMethod="reflect">
              <stop stop-opacity="1" stop-color="rgb(232,238,247)" offset="0%"/>
              <stop stop-opacity="1" stop-color="rgb(183,201,227)" offset="100%"/>
            </linearGradient>
            <linearGradient x1="623.4734" gradientUnits="userSpaceOnUse" x2="739.7814" y1="889.8611" y2="929.8611" id="linearGradient11" spreadMethod="reflect">
              <stop stop-opacity="1" stop-color="rgb(232,238,247)" offset="0%"/>
              <stop stop-opacity="1" stop-color="rgb(183,201,227)" offset="100%"/>
            </linearGradient>
            <linearGradient x1="568.473" gradientUnits="userSpaceOnUse" x2="648.473" y1="944.8611" y2="984.8611" id="linearGradient12" spreadMethod="reflect">
              <stop stop-opacity="1" stop-color="rgb(232,238,247)" offset="0%"/>
              <stop stop-opacity="1" stop-color="rgb(183,201,227)" offset="100%"/>
            </linearGradient>
            <linearGradient x1="488.0002" gradientUnits="userSpaceOnUse" x2="593.4728" y1="889.8611" y2="929.8611" id="linearGradient13" spreadMethod="reflect">
              <stop stop-opacity="1" stop-color="rgb(232,238,247)" offset="0%"/>
              <stop stop-opacity="1" stop-color="rgb(183,201,227)" offset="100%"/>
            </linearGradient>
            <linearGradient x1="346" gradientUnits="userSpaceOnUse" x2="426" y1="889.8611" y2="929.8611" id="linearGradient14" spreadMethod="reflect">
              <stop stop-opacity="1" stop-color="rgb(232,238,247)" offset="0%"/>
              <stop stop-opacity="1" stop-color="rgb(183,201,227)" offset="100%"/>
            </linearGradient>
            <linearGradient x1="236" gradientUnits="userSpaceOnUse" x2="316" y1="889.8611" y2="929.8611" id="linearGradient15" spreadMethod="reflect">
              <stop stop-opacity="1" stop-color="rgb(232,238,247)" offset="0%"/>
              <stop stop-opacity="1" stop-color="rgb(183,201,227)" offset="100%"/>
            </linearGradient>
            <linearGradient x1="181" gradientUnits="userSpaceOnUse" x2="261" y1="944.8611" y2="984.8611" id="linearGradient16" spreadMethod="reflect">
              <stop stop-opacity="1" stop-color="rgb(232,238,247)" offset="0%"/>
              <stop stop-opacity="1" stop-color="rgb(183,201,227)" offset="100%"/>
            </linearGradient>
            <linearGradient x1="126" gradientUnits="userSpaceOnUse" x2="206" y1="889.8611" y2="929.8611" id="linearGradient17" spreadMethod="reflect">
              <stop stop-opacity="1" stop-color="rgb(232,238,247)" offset="0%"/>
              <stop stop-opacity="1" stop-color="rgb(183,201,227)" offset="100%"/>
            </linearGradient>
            <linearGradient x1="71" gradientUnits="userSpaceOnUse" x2="151" y1="944.8611" y2="984.8611" id="linearGradient18" spreadMethod="reflect">
              <stop stop-opacity="1" stop-color="rgb(232,238,247)" offset="0%"/>
              <stop stop-opacity="1" stop-color="rgb(183,201,227)" offset="100%"/>
            </linearGradient>
            <linearGradient x1="16" gradientUnits="userSpaceOnUse" x2="96" y1="889.8611" y2="929.8611" id="linearGradient19" spreadMethod="reflect">
              <stop stop-opacity="1" stop-color="rgb(232,238,247)" offset="0%"/>
              <stop stop-opacity="1" stop-color="rgb(183,201,227)" offset="100%"/>
            </linearGradient>
            <linearGradient x1="394.8048" gradientUnits="userSpaceOnUse" x2="547.1373" y1="606.0551" y2="646.0551" id="linearGradient20" spreadMethod="reflect">
              <stop stop-opacity="1" stop-color="rgb(232,238,247)" offset="0%"/>
              <stop stop-opacity="1" stop-color="rgb(183,201,227)" offset="100%"/>
            </linearGradient>
            <clipPath clipPathUnits="userSpaceOnUse" id="clipPath1">
              <path d="M0 0 L983 0 L983 1152 L0 1152 L0 0 Z"/>
            </clipPath>
            <clipPath clipPathUnits="userSpaceOnUse" id="clipPath2">
              <path d="M-15 -15 L968 -15 L968 1137 L-15 1137 L-15 -15 Z"/>
            </clipPath>
            <clipPath clipPathUnits="userSpaceOnUse" id="clipPath3">
              <path d="M-334.2629 -26.2567 L332.4906 -26.2567 L332.4906 766.9633 L-334.2629 766.9633 L-334.2629 -26.2567 Z"/>
            </clipPath>
            <clipPath clipPathUnits="userSpaceOnUse" id="clipPath4">
              <path d="M410 746 L410 802 L951 802 L951 746 Z"/>
            </clipPath>
            <clipPath clipPathUnits="userSpaceOnUse" id="clipPath5">
              <path d="M-504.5657 -439.0067 L478.4343 -439.0067 L478.4343 712.9933 L-504.5657 712.9933 L-504.5657 -439.0067 Z"/>
            </clipPath>
          </defs>
            
  
          <metadata id="svg1.metadata7">
    
  </metadata>
            
          <g inkscape:groupmode="layer" id="svg1.layer1" transform="translate(-29.5,-42.959476)" inkscape:label="Ebene 1">
                
            <a id="svg1.a3142" transform="matrix(1.0873906,0,0,1,-4.4741999,0)">
                    
              <path transform="translate(11.586889,5.2908993)" style="fill:none;fill-rule:evenodd;stroke:#000000;stroke-width:1px;stroke-linecap:butt;stroke-linejoin:miter;stroke-opacity:1" sodipodi:cx="38.509369" sodipodi:cy="47.36993" sodipodi:rx="8.5197716" id="svg1.path2160" d="M 47.02914 47.36993 A 8.5197716 9.2013531 0 1 1  29.989597,47.36993 A 8.5197716 9.2013531 0 1 1  47.02914 47.36993 z" sodipodi:ry="9.2013531" sodipodi:type="arc"/>
                  
            </a>
                
            <path style="fill:none" sodipodi:cx="43.962021" sodipodi:cy="48.392303" d="M 47.71072 48.392303 A 3.7486994 0 0 1 1  40.213321,48.392303 A 3.7486994 0 0 1 1  47.71072 48.392303 z" id="svg1.path3134" sodipodi:rx="3.7486994" sodipodi:ry="0" sodipodi:type="arc"/>
                
            <path style="fill:none;fill-rule:evenodd;stroke:#000000;stroke-width:1.24319649px;stroke-linecap:butt;stroke-linejoin:miter;stroke-opacity:1" d="M 50,61.33709 C 50,91.363211 50,92.247838 50,92.247838" id="svg1.path3136"/>
                
            <path style="fill:none;fill-rule:evenodd;stroke:#000000;stroke-width:1px;stroke-linecap:butt;stroke-linejoin:miter;stroke-opacity:1" d="M 69.760668,72.362183 C 69.760668,72.362183 69.760668,72.362183 50.239332,72.362183 C 30.239332,72.362183 30.239332,72.362183 30.239332,72.362183 L 30.239332,72.362183" id="svg1.path3138"/>
                
            <path style="fill:none;fill-rule:evenodd;stroke:#000000;stroke-width:1px;stroke-linecap:butt;stroke-linejoin:miter;stroke-opacity:1" d="M 30,111.45687 C 30,111.45687 30,111.45687 50,92.013532 C 70,111.45687 70,111.45687 70,111.45687" id="svg1.path3140"/>
              
          </g>
          
        </svg>
      </g>
    </g>
    <g font-size="13px" stroke-linecap="butt" transform="matrix(1,0,0,1,15,15)" text-rendering="geometricPrecision" font-family="sans-serif" shape-rendering="geometricPrecision" stroke-miterlimit="1.45">
      <text x="490.8117" xml:space="preserve" y="14.0669" clip-path="url(#clipPath2)" stroke="none">Actor</text>
    </g>
    <g fill="rgb(255,102,0)" text-rendering="geometricPrecision" shape-rendering="geometricPrecision" transform="matrix(1,0,0,1,15,15)" stroke="rgb(255,102,0)">
      <rect x="411" width="539" height="54" y="747" clip-path="url(#clipPath2)" stroke="none"/>
      <rect x="410" y="746" clip-path="url(#clipPath2)" fill="rgb(255,145,0)" width="1" height="56" stroke="none"/>
      <rect x="411" y="746" clip-path="url(#clipPath2)" fill="rgb(255,145,0)" width="539" height="1" stroke="none"/>
      <rect x="411" y="801" clip-path="url(#clipPath2)" fill="rgb(178,71,0)" width="540" height="1" stroke="none"/>
      <rect x="950" y="746" clip-path="url(#clipPath2)" fill="rgb(178,71,0)" width="1" height="55" stroke="none"/>
    </g>
    <g font-size="40px" stroke-linecap="butt" transform="matrix(1,0,0,1,15,15)" text-rendering="geometricPrecision" font-family="sans-serif" shape-rendering="geometricPrecision" font-weight="bold" stroke-miterlimit="1.45">
      <text x="493.2366" xml:space="preserve" y="788.184" clip-path="url(#clipPath4)" stroke="none"> Message Broker</text>
    </g>
    <g text-rendering="geometricPrecision" stroke-miterlimit="1.45" stroke-dasharray="6,2" shape-rendering="geometricPrecision" transform="matrix(1,0,0,1,15,15)" stroke-linecap="butt">
      <path fill="none" d="M426.5 999.8611 L426.5 1021.8318" clip-path="url(#clipPath2)"/>
      <path d="M426.5 1029.8318 L431.5 1017.8318 L426.5 1020.8318 L421.5 1017.8318 Z" clip-path="url(#clipPath2)" stroke="none"/>
      <path fill="none" stroke-dasharray="none" d="M508.0298 123.1621 L508.0298 145.1035" clip-path="url(#clipPath2)"/>
      <path stroke-dasharray="none" d="M508.0298 153.1035 L513.0298 141.1035 L508.0298 144.1035 L503.0298 141.1035 Z" clip-path="url(#clipPath2)" stroke="none"/>
      <path fill="none" stroke-dasharray="none" d="M681.3909 724.0551 L681.3909 738.0258" clip-path="url(#clipPath2)"/>
      <path stroke-dasharray="none" d="M681.3909 716.0551 L676.3909 728.0551 L681.3909 725.0551 L686.3909 728.0551 Z" clip-path="url(#clipPath2)" stroke="none"/>
      <path stroke-dasharray="none" d="M681.3909 746.0258 L686.3909 734.0258 L681.3909 737.0258 L676.3909 734.0258 Z" clip-path="url(#clipPath2)" stroke="none"/>
      <path fill="none" stroke-dasharray="none" d="M681.3909 810.45 L681.3909 845.3505" clip-path="url(#clipPath2)"/>
      <path stroke-dasharray="none" d="M681.3909 802.45 L676.3909 814.45 L681.3909 811.45 L686.3909 814.45 Z" clip-path="url(#clipPath2)" stroke="none"/>
      <path stroke-dasharray="none" d="M681.3909 853.3505 L686.3909 841.3505 L681.3909 844.3505 L676.3909 841.3505 Z" clip-path="url(#clipPath2)" stroke="none"/>
      <path fill="none" stroke-dasharray="none" d="M500.9171 810.45 L500.9171 827.9002 L426.5 827.9002 L426.5 845.3504" clip-path="url(#clipPath2)"/>
      <path stroke-dasharray="none" d="M500.9171 802.45 L495.9171 814.45 L500.9171 811.45 L505.9171 814.45 Z" clip-path="url(#clipPath2)" stroke="none"/>
      <path stroke-dasharray="none" d="M426.5 853.3504 L431.5 841.3504 L426.5 844.3504 L421.5 841.3504 Z" clip-path="url(#clipPath2)" stroke="none"/>
      <path fill="none" d="M861.8647 802.45 L861.8647 827.9002 L936.2817 827.9002 L936.2817 1021.8118" clip-path="url(#clipPath2)"/>
      <path d="M936.2817 1029.8118 L941.2817 1017.8118 L936.2817 1020.8118 L931.2817 1017.8118 Z" clip-path="url(#clipPath2)" stroke="none"/>
    </g>
    <g fill="rgb(245,245,245)" text-rendering="geometricPrecision" shape-rendering="geometricPrecision" transform="matrix(1,0,0,1,15,15)" stroke="rgb(245,245,245)">
      <rect x="336.3409" y="314.5938" clip-path="url(#clipPath2)" width="226.7964" rx="4" ry="4" height="346.4614" stroke="none"/>
      <rect x="336.3409" y="314.5938" clip-path="url(#clipPath2)" fill="aqua" width="226.7964" height="21.4609" stroke="none"/>
    </g>
    <g font-size="15px" stroke-linecap="butt" transform="matrix(1,0,0,1,15,15)" text-rendering="geometricPrecision" font-family="sans-serif" shape-rendering="geometricPrecision" stroke-miterlimit="1.45">
      <text x="453.2589" xml:space="preserve" y="330.5171" clip-path="url(#clipPath2)" stroke="none">Reverse Proxy</text>
      <rect x="336.3409" y="314.5938" clip-path="url(#clipPath2)" fill="none" width="226.7964" stroke-dasharray="6,2" rx="4" ry="4" height="346.4614"/>
    </g>
    <g fill="rgb(255,102,0)" text-rendering="geometricPrecision" shape-rendering="geometricPrecision" transform="matrix(1,0,0,1,504.5657,439.0067)" stroke="rgb(255,102,0)">
      <g clip-path="url(#clipPath5)">
        <svg xml:space="preserve" opacity="1" writing-mode="lr-tb" stop-color="rgb(0, 0, 0)" shape-rendering="auto" glyph-orientation-horizontal="0deg" color-profile="auto" lighting-color="rgb(255, 255, 255)" color="rgb(0, 0, 0)" font-weight="400" alignment-baseline="auto" font-style="normal" version="1.1" color-interpolation-filters="linearrgb" text-anchor="start" stroke-linecap="butt" color-interpolation="srgb" font-variant="normal" word-spacing="normal" fill-opacity="1" text-rendering="auto" clip-path="none" text-decoration="none" letter-spacing="normal" viewBox="-0.569 -0.349 37 59" glyph-orientation-vertical="auto" display="inline" font-size-adjust="none" overflow="hidden" fill="rgb(0, 0, 0)" font-stretch="normal" stroke-dasharray="none" stroke-miterlimit="4" stop-opacity="1" color-rendering="auto" font-size="12" pointer-events="visiblepainted" mask="none" direction="ltr" baseline-shift="baseline" enable-background="new -0.569 -0.349 37 59" fill-rule="nonzero" image-rendering="auto" stroke-dashoffset="0" width="37px" marker-end="none" clip="auto" cursor="auto" stroke="none" filter="none" visibility="visible" kerning="auto" stroke-width="1" font-family="&quot;Arial&quot;,&quot;Helvetica&quot;,sans-serif" flood-opacity="1" clip-rule="nonzero" src="none" height="59px" unicode-bidi="normal" stroke-linejoin="miter" stroke-opacity="1" flood-color="rgb(0, 0, 0)" dominant-baseline="auto" marker-start="none" x="0px" marker-mid="none" y="0px">
<defs>
</defs>
<linearGradient gradientTransform="matrix(1 0 0 -1 -97.6001 -161.5986)" x1="115.7744" x2="115.7743" gradientUnits="userSpaceOnUse" y1="-158.8057" y2="-219.9759" id="svg2.SVGID_1_">
	<stop offset="0" style="stop-color:#B3B3B3"/>
	<stop offset="0.164" style="stop-color:#ABABAB"/>
	<stop offset="0.4188" style="stop-color:#959595"/>
	<stop offset="0.7308" style="stop-color:#717171"/>
	<stop offset="1" style="stop-color:#4D4D4D"/>
</linearGradient>
<path fill="url(#svg2.SVGID_1_)" d="M35.79,55.773c0,1.392-1.137,2.528-2.527,2.528H3.086c-1.39,0-2.528-1.139-2.528-2.528V2.528  C0.559,1.138,1.697,0,3.086,0h30.176c1.391,0,2.527,1.138,2.527,2.528V55.773z"/>
<linearGradient gradientTransform="matrix(1 0 0 -1 -97.6001 -161.5986)" x1="115.7744" x2="115.7743" gradientUnits="userSpaceOnUse" y1="-158.8057" y2="-219.9759" id="svg2.SVGID_2_">
	<stop offset="0" style="stop-color:#B3B3B3"/>
	<stop offset="0.164" style="stop-color:#ABABAB"/>
	<stop offset="0.4188" style="stop-color:#959595"/>
	<stop offset="0.7308" style="stop-color:#717171"/>
	<stop offset="1" style="stop-color:#4D4D4D"/>
</linearGradient>
<path fill="url(#svg2.SVGID_2_)" d="M35.79,55.773c0,1.392-1.137,2.528-2.527,2.528H3.086c-1.39,0-2.528-1.139-2.528-2.528V2.528  C0.559,1.138,1.697,0,3.086,0h30.176c1.391,0,2.527,1.138,2.527,2.528V55.773z"/>
<path fill="#FFFFFF" opacity="0.19" d="M35.79,39.342L0.559,26.702V2.529c0-1.391,1.138-2.528,2.528-2.528h30.176  c1.391,0,2.527,1.138,2.527,2.528V39.342z"/>
<path fill="#353535" d="M32.868,53.717c0,1.392-1.138,2.529-2.527,2.529H11.854c-1.39,0-2.528-1.139-2.528-2.529V11.534  c0-1.39,1.138-2.528,2.528-2.528H30.34c1.391,0,2.528,1.138,2.528,2.528V53.717L32.868,53.717z"/>
<linearGradient gradientTransform="matrix(1 0 0 -1 -97.6001 -161.5986)" x1="123.9893" x2="123.9893" gradientUnits="userSpaceOnUse" y1="-171.4683" y2="-215.0464" id="svg2.SVGID_3_">
	<stop offset="0" style="stop-color:#B3B3B3"/>
	<stop offset="0.164" style="stop-color:#ABABAB"/>
	<stop offset="0.4188" style="stop-color:#959595"/>
	<stop offset="0.7308" style="stop-color:#717171"/>
	<stop offset="1" style="stop-color:#4D4D4D"/>
</linearGradient>
<path fill="url(#svg2.SVGID_3_)" d="M30.34,52.129c0,0.695-0.568,1.265-1.265,1.265h-5.371c-0.695,0-1.265-0.568-1.265-1.265V13.123  c0-0.695,0.568-1.264,1.265-1.264h5.371c0.695,0,1.265,0.569,1.265,1.264V52.129z"/>
<linearGradient gradientTransform="matrix(1 0 0 -1 -97.6001 -161.5986)" x1="113.4834" x2="113.4834" gradientUnits="userSpaceOnUse" y1="-171.4683" y2="-215.0464" id="svg2.SVGID_4_">
	<stop offset="0" style="stop-color:#B3B3B3"/>
	<stop offset="0.164" style="stop-color:#ABABAB"/>
	<stop offset="0.4188" style="stop-color:#959595"/>
	<stop offset="0.7308" style="stop-color:#717171"/>
	<stop offset="1" style="stop-color:#4D4D4D"/>
</linearGradient>
<path fill="url(#svg2.SVGID_4_)" d="M19.833,52.129c0,0.695-0.567,1.265-1.264,1.265h-5.372c-0.695,0-1.264-0.568-1.264-1.265V13.123  c0-0.695,0.569-1.264,1.264-1.264h5.372c0.695,0,1.264,0.569,1.264,1.264V52.129z"/>
<linearGradient gradientTransform="matrix(1 0 0 -1 -97.6001 -161.5986)" x1="123.9932" x2="123.9932" gradientUnits="userSpaceOnUse" y1="-215.5532" y2="-209.4927" id="svg2.SVGID_5_">
	<stop offset="0" style="stop-color:#8D8D8D"/>
	<stop offset="0.2282" style="stop-color:#858585"/>
	<stop offset="0.5829" style="stop-color:#6F6F6F"/>
	<stop offset="1" style="stop-color:#4D4D4D"/>
</linearGradient>
<rect x="23.362" fill="url(#svg2.SVGID_5_)" width="6.06" y="45.948" height="6.061"/>
<linearGradient gradientTransform="matrix(1 0 0 -1 -97.6001 -161.5986)" x1="113.4834" x2="113.4834" gradientUnits="userSpaceOnUse" y1="-215.4204" y2="-209.3599" id="svg2.SVGID_6_">
	<stop offset="0" style="stop-color:#8D8D8D"/>
	<stop offset="0.2282" style="stop-color:#858585"/>
	<stop offset="0.5829" style="stop-color:#6F6F6F"/>
	<stop offset="1" style="stop-color:#4D4D4D"/>
</linearGradient>
<rect x="12.854" fill="url(#svg2.SVGID_6_)" width="6.06" y="45.815" height="6.061"/>
<rect x="12.854" fill="#6E6E6E" width="6.06" y="24.328" height="15.014"/>
<rect x="23.36" fill="#6E6E6E" width="6.061" y="24.328" height="15.014"/>
<rect x="0.071" y="50.68" fill="#C8FF00" width="5.709" height="2.898" stroke="#717171" stroke-width="0.1416" stroke-miterlimit="10"/>
<radialGradient gradientTransform="matrix(1 0 0 -1 -97.6001 -161.5986)" id="svg2.SVGID_7_" r="3.221" cx="124.1484" gradientUnits="userSpaceOnUse" cy="-180.064">
	<stop offset="0" style="stop-color:#8D8D8D"/>
	<stop offset="0.2282" style="stop-color:#858585"/>
	<stop offset="0.5829" style="stop-color:#6F6F6F"/>
	<stop offset="1" style="stop-color:#4D4D4D"/>
</radialGradient>
<circle fill="url(#svg2.SVGID_7_)" r="2.296" cx="26.391" cy="18.307" stroke="#666666" stroke-width="0.632" stroke-miterlimit="10"/>
<radialGradient gradientTransform="matrix(1 0 0 -1 -97.6001 -161.5986)" id="svg2.SVGID_8_" r="3.2209" cx="113.6426" gradientUnits="userSpaceOnUse" cy="-180.064">
	<stop offset="0" style="stop-color:#8D8D8D"/>
	<stop offset="0.2282" style="stop-color:#858585"/>
	<stop offset="0.5829" style="stop-color:#6F6F6F"/>
	<stop offset="1" style="stop-color:#4D4D4D"/>
</radialGradient>
<circle fill="url(#svg2.SVGID_8_)" r="2.295" cx="15.885" cy="18.307" stroke="#666666" stroke-width="0.632" stroke-miterlimit="10"/>
</svg>
      </g>
    </g>
    <g text-rendering="geometricPrecision" stroke-miterlimit="1.45" shape-rendering="geometricPrecision" font-family="sans-serif" transform="matrix(1,0,0,1,15,15)" stroke-linecap="butt">
      <text x="480.9829" xml:space="preserve" y="499.7953" clip-path="url(#clipPath2)" stroke="none">Frontend</text>
      <text x="470.9223" xml:space="preserve" y="513.7641" clip-path="url(#clipPath2)" stroke="none">(Webserver)</text>
    </g>
    <g fill="url(#linearGradient20)" text-rendering="geometricPrecision" shape-rendering="geometricPrecision" transform="matrix(1,0,0,1,15,15)" stroke="url(#linearGradient20)">
      <path d="M394.8048 606.0551 L547.1373 606.0551 L547.1373 646.0551 L394.8048 646.0551 Z" stroke="none" clip-path="url(#clipPath2)"/>
    </g>
    <g text-rendering="geometricPrecision" stroke-miterlimit="1.45" shape-rendering="geometricPrecision" transform="matrix(1,0,0,1,15,15)" stroke-linecap="butt">
      <path fill="none" d="M394.8048 606.0551 L547.1373 606.0551 L547.1373 646.0551 L394.8048 646.0551 Z" clip-path="url(#clipPath2)"/>
      <text x="420.4896" xml:space="preserve" y="623.225" clip-path="url(#clipPath2)" font-family="sans-serif" stroke="none">Asset Repository</text>
      <text x="400.0814" xml:space="preserve" y="637.1938" clip-path="url(#clipPath2)" font-family="sans-serif" stroke="none">[HTML, CSS, JavaScript]</text>
    </g>
    <g fill="rgb(255,204,0)" text-rendering="geometricPrecision" shape-rendering="geometricPrecision" transform="matrix(1,0,0,1,15,15)" stroke="rgb(255,204,0)">
      <path d="M352.3411 360.2052 L478.0296 360.2052 L478.0296 375.2052 L493.0296 375.2052 L493.0296 400.2052 L352.3411 400.2052 Z" stroke="none" clip-path="url(#clipPath2)"/>
      <path fill="white" d="M478.0296 360.2052 L478.0296 375.2052 L493.0296 375.2052 Z" clip-path="url(#clipPath2)" fill-rule="evenodd" stroke="none"/>
    </g>
    <g text-rendering="geometricPrecision" stroke-miterlimit="1.45" shape-rendering="geometricPrecision" transform="matrix(1,0,0,1,15,15)" stroke-linecap="butt">
      <path fill="none" d="M352.3411 360.2052 L478.0296 360.2052 L478.0296 375.2052 L493.0296 375.2052 L493.0296 400.2052 L352.3411 400.2052 Z" clip-path="url(#clipPath2)"/>
      <path fill="none" d="M478.0296 360.2052 L478.0296 375.2052 L493.0296 375.2052 Z" clip-path="url(#clipPath2)" fill-rule="evenodd"/>
      <text x="405.1013" xml:space="preserve" y="384.3595" clip-path="url(#clipPath2)" font-family="sans-serif" stroke="none">RDPM</text>
      <path fill="none" d="M508.0298 299.5938 L508.0298 416.3252" clip-path="url(#clipPath2)"/>
      <path d="M508.0298 424.3252 L513.0298 412.3252 L508.0298 415.3252 L503.0298 412.3252 Z" clip-path="url(#clipPath2)" stroke="none"/>
      <path fill="none" d="M516.9772 482.6567 L516.9772 544.0942 L681.3909 544.0942 L681.3909 598.0248" clip-path="url(#clipPath2)"/>
      <path d="M681.3909 606.0248 L686.3909 594.0248 L681.3909 597.0248 L676.3909 594.0248 Z" clip-path="url(#clipPath2)" stroke="none"/>
      <text x="685.6653" xml:space="preserve" y="548.2485" clip-path="url(#clipPath2)" font-family="sans-serif" stroke="none">API Calls</text>
      <path fill="none" d="M499.0823 482.6567 L499.0823 544.0942 L470.971 544.0942 L470.971 598.0248" clip-path="url(#clipPath2)"/>
      <path d="M470.971 606.0248 L475.971 594.0248 L470.971 597.0248 L465.971 594.0248 Z" clip-path="url(#clipPath2)" stroke="none"/>
    </g>
  </g>
</svg>
