<?xml version="1.0" encoding="UTF-8"?><svg xmlns="http://www.w3.org/2000/svg" xmlns:xlink="http://www.w3.org/1999/xlink" fill-opacity="1" color-rendering="auto" color-interpolation="auto" text-rendering="auto" stroke="black" stroke-linecap="square" width="784" stroke-miterlimit="10" shape-rendering="auto" stroke-opacity="1" fill="black" stroke-dasharray="none" font-weight="normal" stroke-width="1" height="1073" font-family="'Dialog'" font-style="normal" stroke-linejoin="miter" font-size="12px" stroke-dashoffset="0" image-rendering="auto">
  <!--Generated by ySVG 2.5-->
  <defs id="genericDefs"/>
  <g>
    <g fill="white" text-rendering="geometricPrecision" shape-rendering="geometricPrecision" transform="translate(17,39)" stroke="white">
      <rect x="-17" width="784" height="1073" y="-39" clip-path="url(#clipPath2)" stroke="none"/>
    </g>
    <g text-rendering="geometricPrecision" shape-rendering="geometricPrecision" transform="matrix(1.4743,0,0,1.4523,418.9088,39)">
      <g clip-path="url(#clipPath3)">
        <svg xmlns:svg="http://www.w3.org/2000/svg" xmlns:sodipodi="http://sodipodi.sourceforge.net/DTD/sodipodi-0.dtd" xmlns:inkscape="http://www.inkscape.org/namespaces/inkscape" xmlns:dc="http://purl.org/dc/elements/1.1/" xmlns:cc="http://web.resource.org/cc/" xmlns:rdf="http://www.w3.org/1999/02/22-rdf-syntax-ns#" opacity="1" writing-mode="lr-tb" stop-color="rgb(0, 0, 0)" shape-rendering="auto" glyph-orientation-horizontal="0deg" color-profile="auto" lighting-color="rgb(255, 255, 255)" color="rgb(0, 0, 0)" font-weight="400" alignment-baseline="auto" font-style="normal" version="1.0" color-interpolation-filters="linearrgb" text-anchor="start" stroke-linecap="butt" color-interpolation="srgb" font-variant="normal" word-spacing="normal" fill-opacity="1" text-rendering="auto" clip-path="none" text-decoration="none" letter-spacing="normal" glyph-orientation-vertical="auto" display="inline" font-size-adjust="none" overflow="hidden" fill="rgb(0, 0, 0)" font-stretch="normal" stroke-dasharray="none" inkscape:version="0.45.1" id="svg1.svg2" stroke-miterlimit="4" stop-opacity="1" color-rendering="auto" font-size="12" sodipodi:docbase="C:\Daten\alberts\projects\yfx" pointer-events="visiblepainted" mask="none" direction="ltr" baseline-shift="baseline" sodipodi:docname="uml_actor.svg" enable-background="accumulate" fill-rule="nonzero" image-rendering="auto" stroke-dashoffset="0" inkscape:output_extension="org.inkscape.output.svg.inkscape" marker-end="none" width="41" clip="auto" cursor="auto" stroke="none" filter="none" visibility="visible" kerning="auto" stroke-width="1" font-family="&quot;Arial&quot;,&quot;Helvetica&quot;,sans-serif" flood-opacity="1" clip-rule="nonzero" src="none" height="68.997391" unicode-bidi="normal" sodipodi:version="0.32" stroke-linejoin="miter" stroke-opacity="1" flood-color="rgb(0, 0, 0)" dominant-baseline="auto" marker-start="none" marker-mid="none">
            
          <defs id="svg1.defs4">
            <linearGradient x1="118.0069" gradientUnits="userSpaceOnUse" x2="212.9153" y1="257.1016" y2="297.1016" id="linearGradient1" spreadMethod="reflect">
              <stop stop-opacity="1" stop-color="rgb(232,238,247)" offset="0%"/>
              <stop stop-opacity="1" stop-color="rgb(183,201,227)" offset="100%"/>
            </linearGradient>
            <linearGradient x1="180.4615" gradientUnits="userSpaceOnUse" x2="324.9679" y1="342.1016" y2="382.1016" id="linearGradient2" spreadMethod="reflect">
              <stop stop-opacity="1" stop-color="rgb(232,238,247)" offset="0%"/>
              <stop stop-opacity="1" stop-color="rgb(183,201,227)" offset="100%"/>
            </linearGradient>
            <linearGradient x1="640.8489" gradientUnits="userSpaceOnUse" x2="735.7574" y1="342.1016" y2="382.1016" id="linearGradient3" spreadMethod="reflect">
              <stop stop-opacity="1" stop-color="rgb(232,238,247)" offset="0%"/>
              <stop stop-opacity="1" stop-color="rgb(183,201,227)" offset="100%"/>
            </linearGradient>
            <linearGradient x1="528.7964" gradientUnits="userSpaceOnUse" x2="673.3028" y1="257.1016" y2="297.1016" id="linearGradient4" spreadMethod="reflect">
              <stop stop-opacity="1" stop-color="rgb(232,238,247)" offset="0%"/>
              <stop stop-opacity="1" stop-color="rgb(183,201,227)" offset="100%"/>
            </linearGradient>
            <linearGradient x1="314.5843" gradientUnits="userSpaceOnUse" x2="493.5276" y1="528.0391" y2="568.0391" id="linearGradient5" spreadMethod="reflect">
              <stop stop-opacity="1" stop-color="rgb(232,238,247)" offset="0%"/>
              <stop stop-opacity="1" stop-color="rgb(183,201,227)" offset="100%"/>
            </linearGradient>
            <linearGradient x1="314.5843" gradientUnits="userSpaceOnUse" x2="493.5276" y1="620.0078" y2="660.0078" id="linearGradient6" spreadMethod="reflect">
              <stop stop-opacity="1" stop-color="rgb(232,238,247)" offset="0%"/>
              <stop stop-opacity="1" stop-color="rgb(183,201,227)" offset="100%"/>
            </linearGradient>
            <clipPath clipPathUnits="userSpaceOnUse" id="clipPath1">
              <path d="M0 0 L784 0 L784 1073 L0 1073 L0 0 Z"/>
            </clipPath>
            <clipPath clipPathUnits="userSpaceOnUse" id="clipPath2">
              <path d="M-17 -39 L767 -39 L767 1034 L-17 1034 L-17 -39 Z"/>
            </clipPath>
            <clipPath clipPathUnits="userSpaceOnUse" id="clipPath3">
              <path d="M-284.1393 -26.8538 L247.6356 -26.8538 L247.6356 711.97 L-284.1393 711.97 L-284.1393 -26.8538 Z"/>
            </clipPath>
            <clipPath clipPathUnits="userSpaceOnUse" id="clipPath4">
              <path d="M-402.5919 -804.5651 L381.4081 -804.5651 L381.4081 268.4349 L-402.5919 268.4349 L-402.5919 -804.5651 Z"/>
            </clipPath>
            <clipPath clipPathUnits="userSpaceOnUse" id="clipPath5">
              <path d="M-280.5783 -183.2266 L251.1966 -183.2266 L251.1966 555.5972 L-280.5783 555.5972 L-280.5783 -183.2266 Z"/>
            </clipPath>
            <clipPath clipPathUnits="userSpaceOnUse" id="clipPath6">
              <path d="M-402.5919 -976.7723 L381.4081 -976.7723 L381.4081 96.2277 L-402.5919 96.2277 L-402.5919 -976.7723 Z"/>
            </clipPath>
          </defs>
            
  
          <metadata id="svg1.metadata7">
    
  </metadata>
            
          <g inkscape:groupmode="layer" id="svg1.layer1" transform="translate(-29.5,-42.959476)" inkscape:label="Ebene 1">
                
            <a id="svg1.a3142" transform="matrix(1.0873906,0,0,1,-4.4741999,0)">
                    
              <path transform="translate(11.586889,5.2908993)" style="fill:none;fill-rule:evenodd;stroke:#000000;stroke-width:1px;stroke-linecap:butt;stroke-linejoin:miter;stroke-opacity:1" sodipodi:cx="38.509369" sodipodi:cy="47.36993" sodipodi:rx="8.5197716" id="svg1.path2160" d="M 47.02914 47.36993 A 8.5197716 9.2013531 0 1 1  29.989597,47.36993 A 8.5197716 9.2013531 0 1 1  47.02914 47.36993 z" sodipodi:ry="9.2013531" sodipodi:type="arc"/>
                  
            </a>
                
            <path style="fill:none" sodipodi:cx="43.962021" sodipodi:cy="48.392303" d="M 47.71072 48.392303 A 3.7486994 0 0 1 1  40.213321,48.392303 A 3.7486994 0 0 1 1  47.71072 48.392303 z" id="svg1.path3134" sodipodi:rx="3.7486994" sodipodi:ry="0" sodipodi:type="arc"/>
                
            <path style="fill:none;fill-rule:evenodd;stroke:#000000;stroke-width:1.24319649px;stroke-linecap:butt;stroke-linejoin:miter;stroke-opacity:1" d="M 50,61.33709 C 50,91.363211 50,92.247838 50,92.247838" id="svg1.path3136"/>
                
            <path style="fill:none;fill-rule:evenodd;stroke:#000000;stroke-width:1px;stroke-linecap:butt;stroke-linejoin:miter;stroke-opacity:1" d="M 69.760668,72.362183 C 69.760668,72.362183 69.760668,72.362183 50.239332,72.362183 C 30.239332,72.362183 30.239332,72.362183 30.239332,72.362183 L 30.239332,72.362183" id="svg1.path3138"/>
                
            <path style="fill:none;fill-rule:evenodd;stroke:#000000;stroke-width:1px;stroke-linecap:butt;stroke-linejoin:miter;stroke-opacity:1" d="M 30,111.45687 C 30,111.45687 30,111.45687 50,92.013532 C 70,111.45687 70,111.45687 70,111.45687" id="svg1.path3140"/>
              
          </g>
          
        </svg>
      </g>
    </g>
    <g font-size="13px" stroke-linecap="butt" transform="matrix(1,0,0,1,17,39)" text-rendering="geometricPrecision" font-family="sans-serif" shape-rendering="geometricPrecision" stroke-miterlimit="1.45">
      <text x="414.9141" xml:space="preserve" y="-9.0659" clip-path="url(#clipPath2)" stroke="none">Actor</text>
    </g>
    <g fill="rgb(245,245,245)" text-rendering="geometricPrecision" shape-rendering="geometricPrecision" transform="matrix(1,0,0,1,17,39)" stroke="rgb(245,245,245)">
      <rect x="102.0067" y="220.6406" clip-path="url(#clipPath2)" width="238.9615" rx="4" ry="4" height="176.4609" stroke="none"/>
      <rect x="102.0067" y="220.6406" clip-path="url(#clipPath2)" fill="lime" width="238.9615" height="21.4609" stroke="none"/>
    </g>
    <g font-size="15px" stroke-linecap="butt" transform="matrix(1,0,0,1,17,39)" text-rendering="geometricPrecision" font-family="sans-serif" shape-rendering="geometricPrecision" stroke-miterlimit="1.45">
      <text x="234.9936" xml:space="preserve" y="236.564" clip-path="url(#clipPath2)" stroke="none">Microservice1</text>
      <rect x="102.0067" y="220.6406" clip-path="url(#clipPath2)" fill="none" width="238.9615" stroke-dasharray="6,2" rx="4" ry="4" height="176.4609"/>
    </g>
    <g fill="url(#linearGradient1)" text-rendering="geometricPrecision" shape-rendering="geometricPrecision" transform="matrix(1,0,0,1,17,39)" stroke="url(#linearGradient1)">
      <path d="M118.0069 257.1016 L212.9153 257.1016 L212.9153 297.1016 L118.0069 297.1016 Z" stroke="none" clip-path="url(#clipPath2)"/>
    </g>
    <g text-rendering="geometricPrecision" stroke-miterlimit="1.45" shape-rendering="geometricPrecision" transform="matrix(1,0,0,1,17,39)" stroke-linecap="butt">
      <path fill="none" d="M118.0069 257.1016 L212.9153 257.1016 L212.9153 297.1016 L118.0069 297.1016 Z" clip-path="url(#clipPath2)"/>
      <text x="131.3156" xml:space="preserve" y="274.2715" clip-path="url(#clipPath2)" font-family="sans-serif" stroke="none">Servercode</text>
      <text x="123.8713" xml:space="preserve" y="288.2402" clip-path="url(#clipPath2)" font-family="sans-serif" stroke="none">Microservice1</text>
    </g>
    <g fill="url(#linearGradient2)" text-rendering="geometricPrecision" shape-rendering="geometricPrecision" transform="matrix(1,0,0,1,17,39)" stroke="url(#linearGradient2)">
      <path d="M180.4615 342.1016 L324.9679 342.1016 L324.9679 382.1016 L180.4615 382.1016 Z" stroke="none" clip-path="url(#clipPath2)"/>
    </g>
    <g text-rendering="geometricPrecision" stroke-miterlimit="1.45" shape-rendering="geometricPrecision" transform="matrix(1,0,0,1,17,39)" stroke-linecap="butt">
      <path fill="none" d="M180.4615 342.1016 L324.9679 342.1016 L324.9679 382.1016 L180.4615 382.1016 Z" clip-path="url(#clipPath2)"/>
      <text x="205.8192" xml:space="preserve" y="359.2715" clip-path="url(#clipPath2)" font-family="sans-serif" stroke="none">Webservercode</text>
      <text x="195.2928" xml:space="preserve" y="373.2402" clip-path="url(#clipPath2)" font-family="sans-serif" stroke="none">Microservice1-html</text>
    </g>
    <g text-rendering="geometricPrecision" stroke-miterlimit="1.45" shape-rendering="geometricPrecision" transform="matrix(1,0,0,1,17,39)" stroke-linecap="butt">
      <path fill="none" d="M417.1321 100.0498 L417.1321 125.5 L325.4683 125.5 L325.4683 212.5942" clip-path="url(#clipPath2)"/>
      <path d="M325.4683 220.5942 L330.4683 208.5942 L325.4683 211.5942 L320.4683 208.5942 Z" clip-path="url(#clipPath2)" stroke="none"/>
      <text x="272.9175" xml:space="preserve" y="172.6621" clip-path="url(#clipPath2)" font-family="sans-serif" stroke="none">git push</text>
    </g>
    <g fill="rgb(245,245,245)" text-rendering="geometricPrecision" shape-rendering="geometricPrecision" transform="matrix(1,0,0,1,17,39)" stroke="rgb(245,245,245)">
      <rect x="512.796" y="220.6406" clip-path="url(#clipPath2)" width="238.9615" rx="4" ry="4" height="176.4609" stroke="none"/>
      <rect x="512.796" y="220.6406" clip-path="url(#clipPath2)" fill="yellow" width="238.9615" height="21.4609" stroke="none"/>
    </g>
    <g font-size="15px" stroke-linecap="butt" transform="matrix(1,0,0,1,17,39)" text-rendering="geometricPrecision" font-family="sans-serif" shape-rendering="geometricPrecision" stroke-miterlimit="1.45">
      <text x="645.783" xml:space="preserve" y="236.564" clip-path="url(#clipPath2)" stroke="none">Microservice2</text>
      <rect x="512.796" y="220.6406" clip-path="url(#clipPath2)" fill="none" width="238.9615" stroke-dasharray="6,2" rx="4" ry="4" height="176.4609"/>
    </g>
    <g fill="url(#linearGradient3)" text-rendering="geometricPrecision" shape-rendering="geometricPrecision" transform="matrix(1,0,0,1,17,39)" stroke="url(#linearGradient3)">
      <path d="M640.8489 342.1016 L735.7574 342.1016 L735.7574 382.1016 L640.8489 382.1016 Z" stroke="none" clip-path="url(#clipPath2)"/>
    </g>
    <g text-rendering="geometricPrecision" stroke-miterlimit="1.45" shape-rendering="geometricPrecision" transform="matrix(1,0,0,1,17,39)" stroke-linecap="butt">
      <path fill="none" d="M640.8489 342.1016 L735.7574 342.1016 L735.7574 382.1016 L640.8489 382.1016 Z" clip-path="url(#clipPath2)"/>
      <text x="654.1577" xml:space="preserve" y="359.2715" clip-path="url(#clipPath2)" font-family="sans-serif" stroke="none">Servercode</text>
      <text x="646.7133" xml:space="preserve" y="373.2402" clip-path="url(#clipPath2)" font-family="sans-serif" stroke="none">Microservice2</text>
    </g>
    <g fill="url(#linearGradient4)" text-rendering="geometricPrecision" shape-rendering="geometricPrecision" transform="matrix(1,0,0,1,17,39)" stroke="url(#linearGradient4)">
      <path d="M528.7964 257.1016 L673.3028 257.1016 L673.3028 297.1016 L528.7964 297.1016 Z" stroke="none" clip-path="url(#clipPath2)"/>
    </g>
    <g text-rendering="geometricPrecision" stroke-miterlimit="1.45" shape-rendering="geometricPrecision" transform="matrix(1,0,0,1,17,39)" stroke-linecap="butt">
      <path fill="none" d="M528.7964 257.1016 L673.3028 257.1016 L673.3028 297.1016 L528.7964 297.1016 Z" clip-path="url(#clipPath2)"/>
      <text x="554.1541" xml:space="preserve" y="274.2715" clip-path="url(#clipPath2)" font-family="sans-serif" stroke="none">Webservercode</text>
      <text x="543.6277" xml:space="preserve" y="288.2402" clip-path="url(#clipPath2)" font-family="sans-serif" stroke="none">Microservice1-html</text>
    </g>
    <g text-rendering="geometricPrecision" shape-rendering="geometricPrecision" transform="matrix(1,0,0,1,402.5919,804.5651)">
      <g clip-path="url(#clipPath4)">
        <svg xml:space="preserve" opacity="1" writing-mode="lr-tb" stop-color="rgb(0, 0, 0)" shape-rendering="auto" glyph-orientation-horizontal="0deg" color-profile="auto" lighting-color="rgb(255, 255, 255)" color="rgb(0, 0, 0)" font-weight="400" alignment-baseline="auto" font-style="normal" version="1.1" color-interpolation-filters="linearrgb" text-anchor="start" stroke-linecap="butt" color-interpolation="srgb" font-variant="normal" word-spacing="normal" fill-opacity="1" text-rendering="auto" clip-path="none" text-decoration="none" letter-spacing="normal" viewBox="-0.569 -0.349 37 59" glyph-orientation-vertical="auto" display="inline" font-size-adjust="none" overflow="hidden" fill="rgb(0, 0, 0)" font-stretch="normal" stroke-dasharray="none" stroke-miterlimit="4" stop-opacity="1" color-rendering="auto" font-size="12" pointer-events="visiblepainted" mask="none" direction="ltr" baseline-shift="baseline" enable-background="new -0.569 -0.349 37 59" fill-rule="nonzero" image-rendering="auto" stroke-dashoffset="0" width="37px" marker-end="none" clip="auto" cursor="auto" stroke="none" filter="none" visibility="visible" kerning="auto" stroke-width="1" font-family="&quot;Arial&quot;,&quot;Helvetica&quot;,sans-serif" flood-opacity="1" clip-rule="nonzero" src="none" height="59px" unicode-bidi="normal" stroke-linejoin="miter" stroke-opacity="1" flood-color="rgb(0, 0, 0)" dominant-baseline="auto" marker-start="none" x="0px" marker-mid="none" y="0px">
<defs>
</defs>
<linearGradient gradientTransform="matrix(1 0 0 -1 -97.6001 -161.5986)" x1="115.7744" x2="115.7743" gradientUnits="userSpaceOnUse" y1="-158.8057" y2="-219.9759" id="svg2.SVGID_1_">
	<stop offset="0" style="stop-color:#B3B3B3"/>
	<stop offset="0.164" style="stop-color:#ABABAB"/>
	<stop offset="0.4188" style="stop-color:#959595"/>
	<stop offset="0.7308" style="stop-color:#717171"/>
	<stop offset="1" style="stop-color:#4D4D4D"/>
</linearGradient>
<path fill="url(#svg2.SVGID_1_)" d="M35.79,55.773c0,1.392-1.137,2.528-2.527,2.528H3.086c-1.39,0-2.528-1.139-2.528-2.528V2.528  C0.559,1.138,1.697,0,3.086,0h30.176c1.391,0,2.527,1.138,2.527,2.528V55.773z"/>
<linearGradient gradientTransform="matrix(1 0 0 -1 -97.6001 -161.5986)" x1="115.7744" x2="115.7743" gradientUnits="userSpaceOnUse" y1="-158.8057" y2="-219.9759" id="svg2.SVGID_2_">
	<stop offset="0" style="stop-color:#B3B3B3"/>
	<stop offset="0.164" style="stop-color:#ABABAB"/>
	<stop offset="0.4188" style="stop-color:#959595"/>
	<stop offset="0.7308" style="stop-color:#717171"/>
	<stop offset="1" style="stop-color:#4D4D4D"/>
</linearGradient>
<path fill="url(#svg2.SVGID_2_)" d="M35.79,55.773c0,1.392-1.137,2.528-2.527,2.528H3.086c-1.39,0-2.528-1.139-2.528-2.528V2.528  C0.559,1.138,1.697,0,3.086,0h30.176c1.391,0,2.527,1.138,2.527,2.528V55.773z"/>
<path fill="#FFFFFF" opacity="0.19" d="M35.79,39.342L0.559,26.702V2.529c0-1.391,1.138-2.528,2.528-2.528h30.176  c1.391,0,2.527,1.138,2.527,2.528V39.342z"/>
<path fill="#353535" d="M32.868,53.717c0,1.392-1.138,2.529-2.527,2.529H11.854c-1.39,0-2.528-1.139-2.528-2.529V11.534  c0-1.39,1.138-2.528,2.528-2.528H30.34c1.391,0,2.528,1.138,2.528,2.528V53.717L32.868,53.717z"/>
<linearGradient gradientTransform="matrix(1 0 0 -1 -97.6001 -161.5986)" x1="123.9893" x2="123.9893" gradientUnits="userSpaceOnUse" y1="-171.4683" y2="-215.0464" id="svg2.SVGID_3_">
	<stop offset="0" style="stop-color:#B3B3B3"/>
	<stop offset="0.164" style="stop-color:#ABABAB"/>
	<stop offset="0.4188" style="stop-color:#959595"/>
	<stop offset="0.7308" style="stop-color:#717171"/>
	<stop offset="1" style="stop-color:#4D4D4D"/>
</linearGradient>
<path fill="url(#svg2.SVGID_3_)" d="M30.34,52.129c0,0.695-0.568,1.265-1.265,1.265h-5.371c-0.695,0-1.265-0.568-1.265-1.265V13.123  c0-0.695,0.568-1.264,1.265-1.264h5.371c0.695,0,1.265,0.569,1.265,1.264V52.129z"/>
<linearGradient gradientTransform="matrix(1 0 0 -1 -97.6001 -161.5986)" x1="113.4834" x2="113.4834" gradientUnits="userSpaceOnUse" y1="-171.4683" y2="-215.0464" id="svg2.SVGID_4_">
	<stop offset="0" style="stop-color:#B3B3B3"/>
	<stop offset="0.164" style="stop-color:#ABABAB"/>
	<stop offset="0.4188" style="stop-color:#959595"/>
	<stop offset="0.7308" style="stop-color:#717171"/>
	<stop offset="1" style="stop-color:#4D4D4D"/>
</linearGradient>
<path fill="url(#svg2.SVGID_4_)" d="M19.833,52.129c0,0.695-0.567,1.265-1.264,1.265h-5.372c-0.695,0-1.264-0.568-1.264-1.265V13.123  c0-0.695,0.569-1.264,1.264-1.264h5.372c0.695,0,1.264,0.569,1.264,1.264V52.129z"/>
<linearGradient gradientTransform="matrix(1 0 0 -1 -97.6001 -161.5986)" x1="123.9932" x2="123.9932" gradientUnits="userSpaceOnUse" y1="-215.5532" y2="-209.4927" id="svg2.SVGID_5_">
	<stop offset="0" style="stop-color:#8D8D8D"/>
	<stop offset="0.2282" style="stop-color:#858585"/>
	<stop offset="0.5829" style="stop-color:#6F6F6F"/>
	<stop offset="1" style="stop-color:#4D4D4D"/>
</linearGradient>
<rect x="23.362" fill="url(#svg2.SVGID_5_)" width="6.06" y="45.948" height="6.061"/>
<linearGradient gradientTransform="matrix(1 0 0 -1 -97.6001 -161.5986)" x1="113.4834" x2="113.4834" gradientUnits="userSpaceOnUse" y1="-215.4204" y2="-209.3599" id="svg2.SVGID_6_">
	<stop offset="0" style="stop-color:#8D8D8D"/>
	<stop offset="0.2282" style="stop-color:#858585"/>
	<stop offset="0.5829" style="stop-color:#6F6F6F"/>
	<stop offset="1" style="stop-color:#4D4D4D"/>
</linearGradient>
<rect x="12.854" fill="url(#svg2.SVGID_6_)" width="6.06" y="45.815" height="6.061"/>
<rect x="12.854" fill="#6E6E6E" width="6.06" y="24.328" height="15.014"/>
<rect x="23.36" fill="#6E6E6E" width="6.061" y="24.328" height="15.014"/>
<rect x="0.071" y="50.68" fill="#C8FF00" width="5.709" height="2.898" stroke="#717171" stroke-width="0.1416" stroke-miterlimit="10"/>
<radialGradient gradientTransform="matrix(1 0 0 -1 -97.6001 -161.5986)" id="svg2.SVGID_7_" r="3.221" cx="124.1484" gradientUnits="userSpaceOnUse" cy="-180.064">
	<stop offset="0" style="stop-color:#8D8D8D"/>
	<stop offset="0.2282" style="stop-color:#858585"/>
	<stop offset="0.5829" style="stop-color:#6F6F6F"/>
	<stop offset="1" style="stop-color:#4D4D4D"/>
</radialGradient>
<circle fill="url(#svg2.SVGID_7_)" r="2.296" cx="26.391" cy="18.307" stroke="#666666" stroke-width="0.632" stroke-miterlimit="10"/>
<radialGradient gradientTransform="matrix(1 0 0 -1 -97.6001 -161.5986)" id="svg2.SVGID_8_" r="3.2209" cx="113.6426" gradientUnits="userSpaceOnUse" cy="-180.064">
	<stop offset="0" style="stop-color:#8D8D8D"/>
	<stop offset="0.2282" style="stop-color:#858585"/>
	<stop offset="0.5829" style="stop-color:#6F6F6F"/>
	<stop offset="1" style="stop-color:#4D4D4D"/>
</radialGradient>
<circle fill="url(#svg2.SVGID_8_)" r="2.295" cx="15.885" cy="18.307" stroke="#666666" stroke-width="0.632" stroke-miterlimit="10"/>
</svg>
      </g>
    </g>
    <g text-rendering="geometricPrecision" stroke-miterlimit="1.45" shape-rendering="geometricPrecision" font-family="sans-serif" transform="matrix(1,0,0,1,17,39)" stroke-linecap="butt">
      <text x="364.3938" xml:space="preserve" y="841.3538" clip-path="url(#clipPath2)" stroke="none">Gitlab-Server</text>
      <text x="347.9964" xml:space="preserve" y="855.3225" clip-path="url(#clipPath2)" stroke="none">Container Registry</text>
    </g>
    <g text-rendering="geometricPrecision" shape-rendering="geometricPrecision" transform="matrix(1.4743,0,0,1.4523,413.6588,266.1016)">
      <g clip-path="url(#clipPath5)">
        <svg xmlns:svg="http://www.w3.org/2000/svg" xmlns:sodipodi="http://sodipodi.sourceforge.net/DTD/sodipodi-0.dtd" xmlns:inkscape="http://www.inkscape.org/namespaces/inkscape" xmlns:dc="http://purl.org/dc/elements/1.1/" xmlns:cc="http://web.resource.org/cc/" xmlns:rdf="http://www.w3.org/1999/02/22-rdf-syntax-ns#" opacity="1" writing-mode="lr-tb" stop-color="rgb(0, 0, 0)" shape-rendering="auto" glyph-orientation-horizontal="0deg" color-profile="auto" lighting-color="rgb(255, 255, 255)" color="rgb(0, 0, 0)" font-weight="400" alignment-baseline="auto" font-style="normal" version="1.0" color-interpolation-filters="linearrgb" text-anchor="start" stroke-linecap="butt" color-interpolation="srgb" font-variant="normal" word-spacing="normal" fill-opacity="1" text-rendering="auto" clip-path="none" text-decoration="none" letter-spacing="normal" glyph-orientation-vertical="auto" display="inline" font-size-adjust="none" overflow="hidden" fill="rgb(0, 0, 0)" font-stretch="normal" stroke-dasharray="none" inkscape:version="0.45.1" id="svg3.svg2" stroke-miterlimit="4" stop-opacity="1" color-rendering="auto" font-size="12" sodipodi:docbase="C:\Daten\alberts\projects\yfx" pointer-events="visiblepainted" mask="none" direction="ltr" baseline-shift="baseline" sodipodi:docname="uml_actor.svg" enable-background="accumulate" fill-rule="nonzero" image-rendering="auto" stroke-dashoffset="0" inkscape:output_extension="org.inkscape.output.svg.inkscape" marker-end="none" width="41" clip="auto" cursor="auto" stroke="none" filter="none" visibility="visible" kerning="auto" stroke-width="1" font-family="&quot;Arial&quot;,&quot;Helvetica&quot;,sans-serif" flood-opacity="1" clip-rule="nonzero" src="none" height="68.997391" unicode-bidi="normal" sodipodi:version="0.32" stroke-linejoin="miter" stroke-opacity="1" flood-color="rgb(0, 0, 0)" dominant-baseline="auto" marker-start="none" marker-mid="none">
            
          <defs id="svg3.defs4"/>
            
  
          <metadata id="svg3.metadata7">
    
  </metadata>
            
          <g inkscape:groupmode="layer" id="svg3.layer1" transform="translate(-29.5,-42.959476)" inkscape:label="Ebene 1">
                
            <a id="svg3.a3142" transform="matrix(1.0873906,0,0,1,-4.4741999,0)">
                    
              <path transform="translate(11.586889,5.2908993)" style="fill:none;fill-rule:evenodd;stroke:#000000;stroke-width:1px;stroke-linecap:butt;stroke-linejoin:miter;stroke-opacity:1" sodipodi:cx="38.509369" sodipodi:cy="47.36993" sodipodi:rx="8.5197716" id="svg3.path2160" d="M 47.02914 47.36993 A 8.5197716 9.2013531 0 1 1  29.989597,47.36993 A 8.5197716 9.2013531 0 1 1  47.02914 47.36993 z" sodipodi:ry="9.2013531" sodipodi:type="arc"/>
                  
            </a>
                
            <path style="fill:none" sodipodi:cx="43.962021" sodipodi:cy="48.392303" d="M 47.71072 48.392303 A 3.7486994 0 0 1 1  40.213321,48.392303 A 3.7486994 0 0 1 1  47.71072 48.392303 z" id="svg3.path3134" sodipodi:rx="3.7486994" sodipodi:ry="0" sodipodi:type="arc"/>
                
            <path style="fill:none;fill-rule:evenodd;stroke:#000000;stroke-width:1.24319649px;stroke-linecap:butt;stroke-linejoin:miter;stroke-opacity:1" d="M 50,61.33709 C 50,91.363211 50,92.247838 50,92.247838" id="svg3.path3136"/>
                
            <path style="fill:none;fill-rule:evenodd;stroke:#000000;stroke-width:1px;stroke-linecap:butt;stroke-linejoin:miter;stroke-opacity:1" d="M 69.760668,72.362183 C 69.760668,72.362183 69.760668,72.362183 50.239332,72.362183 C 30.239332,72.362183 30.239332,72.362183 30.239332,72.362183 L 30.239332,72.362183" id="svg3.path3138"/>
                
            <path style="fill:none;fill-rule:evenodd;stroke:#000000;stroke-width:1px;stroke-linecap:butt;stroke-linejoin:miter;stroke-opacity:1" d="M 30,111.45687 C 30,111.45687 30,111.45687 50,92.013532 C 70,111.45687 70,111.45687 70,111.45687" id="svg3.path3140"/>
              
          </g>
          
        </svg>
      </g>
    </g>
    <g font-size="13px" stroke-linecap="butt" transform="matrix(1,0,0,1,17,39)" text-rendering="geometricPrecision" font-family="sans-serif" shape-rendering="geometricPrecision" stroke-miterlimit="1.45">
      <text x="372.9683" xml:space="preserve" y="218.0356" clip-path="url(#clipPath2)" stroke="none">Gitlab Scheduler</text>
    </g>
    <g fill="url(#linearGradient5)" text-rendering="geometricPrecision" shape-rendering="geometricPrecision" transform="matrix(1,0,0,1,17,39)" stroke="url(#linearGradient5)">
      <path d="M314.5843 528.0391 L493.5276 528.0391 L493.5276 568.0391 L314.5843 568.0391 Z" stroke="none" clip-path="url(#clipPath2)"/>
    </g>
    <g text-rendering="geometricPrecision" stroke-miterlimit="1.45" shape-rendering="geometricPrecision" transform="matrix(1,0,0,1,17,39)" stroke-linecap="butt">
      <path fill="none" d="M314.5843 528.0391 L493.5276 528.0391 L493.5276 568.0391 L314.5843 568.0391 Z" clip-path="url(#clipPath2)"/>
      <text x="318.4651" xml:space="preserve" y="545.209" clip-path="url(#clipPath2)" font-family="sans-serif" stroke="none">include all gitlab-builder.yml</text>
      <text x="351.6673" xml:space="preserve" y="559.1777" clip-path="url(#clipPath2)" font-family="sans-serif" stroke="none">into .gitlab-ci.yml</text>
    </g>
    <g fill="url(#linearGradient6)" text-rendering="geometricPrecision" shape-rendering="geometricPrecision" transform="matrix(1,0,0,1,17,39)" stroke="url(#linearGradient6)">
      <path d="M314.5843 620.0078 L493.5276 620.0078 L493.5276 660.0078 L314.5843 660.0078 Z" stroke="none" clip-path="url(#clipPath2)"/>
    </g>
    <g text-rendering="geometricPrecision" stroke-miterlimit="1.45" shape-rendering="geometricPrecision" transform="matrix(1,0,0,1,17,39)" stroke-linecap="butt">
      <path fill="none" d="M314.5843 620.0078 L493.5276 620.0078 L493.5276 660.0078 L314.5843 660.0078 Z" clip-path="url(#clipPath2)"/>
      <text x="340.9886" xml:space="preserve" y="644.1621" clip-path="url(#clipPath2)" font-family="sans-serif" stroke="none">execute gitlab-ci.yml</text>
    </g>
    <g text-rendering="geometricPrecision" shape-rendering="geometricPrecision" transform="matrix(1,0,0,1,402.5919,976.7723)">
      <g clip-path="url(#clipPath6)">
        <svg xml:space="preserve" opacity="1" writing-mode="lr-tb" stop-color="rgb(0, 0, 0)" shape-rendering="auto" glyph-orientation-horizontal="0deg" color-profile="auto" lighting-color="rgb(255, 255, 255)" color="rgb(0, 0, 0)" font-weight="400" alignment-baseline="auto" font-style="normal" version="1.1" color-interpolation-filters="linearrgb" text-anchor="start" stroke-linecap="butt" color-interpolation="srgb" font-variant="normal" word-spacing="normal" fill-opacity="1" text-rendering="auto" clip-path="none" text-decoration="none" letter-spacing="normal" viewBox="-0.569 -0.349 37 59" glyph-orientation-vertical="auto" display="inline" font-size-adjust="none" overflow="hidden" fill="rgb(0, 0, 0)" font-stretch="normal" stroke-dasharray="none" stroke-miterlimit="4" stop-opacity="1" color-rendering="auto" font-size="12" pointer-events="visiblepainted" mask="none" direction="ltr" baseline-shift="baseline" enable-background="new -0.569 -0.349 37 59" fill-rule="nonzero" image-rendering="auto" stroke-dashoffset="0" width="37px" marker-end="none" clip="auto" cursor="auto" stroke="none" filter="none" visibility="visible" kerning="auto" stroke-width="1" font-family="&quot;Arial&quot;,&quot;Helvetica&quot;,sans-serif" flood-opacity="1" clip-rule="nonzero" src="none" height="59px" unicode-bidi="normal" stroke-linejoin="miter" stroke-opacity="1" flood-color="rgb(0, 0, 0)" dominant-baseline="auto" marker-start="none" x="0px" marker-mid="none" y="0px">
<defs>
</defs>
<linearGradient gradientTransform="matrix(1 0 0 -1 -97.6001 -161.5986)" x1="115.7744" x2="115.7743" gradientUnits="userSpaceOnUse" y1="-158.8057" y2="-219.9759" id="svg4.SVGID_1_">
	<stop offset="0" style="stop-color:#B3B3B3"/>
	<stop offset="0.164" style="stop-color:#ABABAB"/>
	<stop offset="0.4188" style="stop-color:#959595"/>
	<stop offset="0.7308" style="stop-color:#717171"/>
	<stop offset="1" style="stop-color:#4D4D4D"/>
</linearGradient>
<path fill="url(#svg4.SVGID_1_)" d="M35.79,55.773c0,1.392-1.137,2.528-2.527,2.528H3.086c-1.39,0-2.528-1.139-2.528-2.528V2.528  C0.559,1.138,1.697,0,3.086,0h30.176c1.391,0,2.527,1.138,2.527,2.528V55.773z"/>
<linearGradient gradientTransform="matrix(1 0 0 -1 -97.6001 -161.5986)" x1="115.7744" x2="115.7743" gradientUnits="userSpaceOnUse" y1="-158.8057" y2="-219.9759" id="svg4.SVGID_2_">
	<stop offset="0" style="stop-color:#B3B3B3"/>
	<stop offset="0.164" style="stop-color:#ABABAB"/>
	<stop offset="0.4188" style="stop-color:#959595"/>
	<stop offset="0.7308" style="stop-color:#717171"/>
	<stop offset="1" style="stop-color:#4D4D4D"/>
</linearGradient>
<path fill="url(#svg4.SVGID_2_)" d="M35.79,55.773c0,1.392-1.137,2.528-2.527,2.528H3.086c-1.39,0-2.528-1.139-2.528-2.528V2.528  C0.559,1.138,1.697,0,3.086,0h30.176c1.391,0,2.527,1.138,2.527,2.528V55.773z"/>
<path fill="#FFFFFF" opacity="0.19" d="M35.79,39.342L0.559,26.702V2.529c0-1.391,1.138-2.528,2.528-2.528h30.176  c1.391,0,2.527,1.138,2.527,2.528V39.342z"/>
<path fill="#353535" d="M32.868,53.717c0,1.392-1.138,2.529-2.527,2.529H11.854c-1.39,0-2.528-1.139-2.528-2.529V11.534  c0-1.39,1.138-2.528,2.528-2.528H30.34c1.391,0,2.528,1.138,2.528,2.528V53.717L32.868,53.717z"/>
<linearGradient gradientTransform="matrix(1 0 0 -1 -97.6001 -161.5986)" x1="123.9893" x2="123.9893" gradientUnits="userSpaceOnUse" y1="-171.4683" y2="-215.0464" id="svg4.SVGID_3_">
	<stop offset="0" style="stop-color:#B3B3B3"/>
	<stop offset="0.164" style="stop-color:#ABABAB"/>
	<stop offset="0.4188" style="stop-color:#959595"/>
	<stop offset="0.7308" style="stop-color:#717171"/>
	<stop offset="1" style="stop-color:#4D4D4D"/>
</linearGradient>
<path fill="url(#svg4.SVGID_3_)" d="M30.34,52.129c0,0.695-0.568,1.265-1.265,1.265h-5.371c-0.695,0-1.265-0.568-1.265-1.265V13.123  c0-0.695,0.568-1.264,1.265-1.264h5.371c0.695,0,1.265,0.569,1.265,1.264V52.129z"/>
<linearGradient gradientTransform="matrix(1 0 0 -1 -97.6001 -161.5986)" x1="113.4834" x2="113.4834" gradientUnits="userSpaceOnUse" y1="-171.4683" y2="-215.0464" id="svg4.SVGID_4_">
	<stop offset="0" style="stop-color:#B3B3B3"/>
	<stop offset="0.164" style="stop-color:#ABABAB"/>
	<stop offset="0.4188" style="stop-color:#959595"/>
	<stop offset="0.7308" style="stop-color:#717171"/>
	<stop offset="1" style="stop-color:#4D4D4D"/>
</linearGradient>
<path fill="url(#svg4.SVGID_4_)" d="M19.833,52.129c0,0.695-0.567,1.265-1.264,1.265h-5.372c-0.695,0-1.264-0.568-1.264-1.265V13.123  c0-0.695,0.569-1.264,1.264-1.264h5.372c0.695,0,1.264,0.569,1.264,1.264V52.129z"/>
<linearGradient gradientTransform="matrix(1 0 0 -1 -97.6001 -161.5986)" x1="123.9932" x2="123.9932" gradientUnits="userSpaceOnUse" y1="-215.5532" y2="-209.4927" id="svg4.SVGID_5_">
	<stop offset="0" style="stop-color:#8D8D8D"/>
	<stop offset="0.2282" style="stop-color:#858585"/>
	<stop offset="0.5829" style="stop-color:#6F6F6F"/>
	<stop offset="1" style="stop-color:#4D4D4D"/>
</linearGradient>
<rect x="23.362" fill="url(#svg4.SVGID_5_)" width="6.06" y="45.948" height="6.061"/>
<linearGradient gradientTransform="matrix(1 0 0 -1 -97.6001 -161.5986)" x1="113.4834" x2="113.4834" gradientUnits="userSpaceOnUse" y1="-215.4204" y2="-209.3599" id="svg4.SVGID_6_">
	<stop offset="0" style="stop-color:#8D8D8D"/>
	<stop offset="0.2282" style="stop-color:#858585"/>
	<stop offset="0.5829" style="stop-color:#6F6F6F"/>
	<stop offset="1" style="stop-color:#4D4D4D"/>
</linearGradient>
<rect x="12.854" fill="url(#svg4.SVGID_6_)" width="6.06" y="45.815" height="6.061"/>
<rect x="12.854" fill="#6E6E6E" width="6.06" y="24.328" height="15.014"/>
<rect x="23.36" fill="#6E6E6E" width="6.061" y="24.328" height="15.014"/>
<rect x="0.071" y="50.68" fill="#C8FF00" width="5.709" height="2.898" stroke="#717171" stroke-width="0.1416" stroke-miterlimit="10"/>
<radialGradient gradientTransform="matrix(1 0 0 -1 -97.6001 -161.5986)" id="svg4.SVGID_7_" r="3.221" cx="124.1484" gradientUnits="userSpaceOnUse" cy="-180.064">
	<stop offset="0" style="stop-color:#8D8D8D"/>
	<stop offset="0.2282" style="stop-color:#858585"/>
	<stop offset="0.5829" style="stop-color:#6F6F6F"/>
	<stop offset="1" style="stop-color:#4D4D4D"/>
</radialGradient>
<circle fill="url(#svg4.SVGID_7_)" r="2.296" cx="26.391" cy="18.307" stroke="#666666" stroke-width="0.632" stroke-miterlimit="10"/>
<radialGradient gradientTransform="matrix(1 0 0 -1 -97.6001 -161.5986)" id="svg4.SVGID_8_" r="3.2209" cx="113.6426" gradientUnits="userSpaceOnUse" cy="-180.064">
	<stop offset="0" style="stop-color:#8D8D8D"/>
	<stop offset="0.2282" style="stop-color:#858585"/>
	<stop offset="0.5829" style="stop-color:#6F6F6F"/>
	<stop offset="1" style="stop-color:#4D4D4D"/>
</radialGradient>
<circle fill="url(#svg4.SVGID_8_)" r="2.295" cx="15.885" cy="18.307" stroke="#666666" stroke-width="0.632" stroke-miterlimit="10"/>
</svg>
      </g>
    </g>
    <g text-rendering="geometricPrecision" stroke-miterlimit="1.45" shape-rendering="geometricPrecision" font-family="sans-serif" transform="matrix(1,0,0,1,17,39)" stroke-linecap="butt">
      <text x="369.6878" xml:space="preserve" y="1013.561" clip-path="url(#clipPath2)" stroke="none">Kubernetes</text>
      <path fill="none" d="M447.1321 100.0498 L447.1321 125.5 L538.796 125.5 L538.796 212.5942" clip-path="url(#clipPath2)"/>
      <path d="M538.796 220.5942 L543.796 208.5942 L538.796 211.5942 L533.796 208.5942 Z" clip-path="url(#clipPath2)" stroke="none"/>
      <text x="486.2452" xml:space="preserve" y="172.6621" clip-path="url(#clipPath2)" stroke="none">git push</text>
      <path fill="none" d="M426.8821 327.1442 L426.882 501.5703 L404.0559 501.5703 L404.0559 520.0132" clip-path="url(#clipPath2)"/>
      <path d="M404.0559 528.0132 L409.0559 516.0132 L404.0559 519.0132 L399.0559 516.0132 Z" clip-path="url(#clipPath2)" stroke="none"/>
      <text x="382.3586" xml:space="preserve" y="477.5684" clip-path="url(#clipPath2)" stroke="none">trigger</text>
      <path fill="none" d="M252.7147 390.1016 L252.7147 422.6016 L261.4611 422.6016 L261.4611 501.5703 L344.4082 501.5703 L344.4082 528.0132" clip-path="url(#clipPath2)"/>
      <path d="M252.7147 382.1016 L247.7147 394.1016 L252.7147 391.1016 L257.7147 394.1016 Z" clip-path="url(#clipPath2)" stroke="none"/>
      <text x="191.4611" xml:space="preserve" y="466.2402" clip-path="url(#clipPath2)" stroke="none">taken from</text>
      <path fill="none" d="M601.0496 305.1016 L601.0496 501.5703 L463.7037 501.5703 L463.7037 528.0132" clip-path="url(#clipPath2)"/>
      <path d="M601.0496 297.1016 L596.0496 309.1016 L601.0496 306.1016 L606.0496 309.1016 Z" clip-path="url(#clipPath2)" stroke="none"/>
      <text x="531.0496" xml:space="preserve" y="478.2027" clip-path="url(#clipPath2)" stroke="none">taken from</text>
      <path fill="none" d="M404.0559 568.0391 L404.0559 611.9824" clip-path="url(#clipPath2)"/>
      <path d="M404.0559 619.9824 L409.0559 607.9824 L404.0559 610.9824 L399.0559 607.9824 Z" clip-path="url(#clipPath2)" stroke="none"/>
      <path fill="none" d="M165.4611 297.1016 L165.461 594.5078 L344.4082 594.5078 L344.4082 611.958" clip-path="url(#clipPath2)"/>
      <path d="M344.4082 619.958 L349.4082 607.958 L344.4082 610.958 L339.4082 607.958 Z" clip-path="url(#clipPath2)" stroke="none"/>
      <text x="0.0001" xml:space="preserve" y="542.916" clip-path="url(#clipPath2)" stroke="none">push triggers .gitlab-ci.yml</text>
      <text x="40.881" xml:space="preserve" y="556.8848" clip-path="url(#clipPath2)" stroke="none">build process</text>
      <path fill="none" d="M688.3032 382.1016 L688.3032 594.5078 L463.7037 594.5078 L463.7037 611.958" clip-path="url(#clipPath2)"/>
      <path d="M463.7037 619.958 L468.7037 607.958 L463.7037 610.958 L458.7037 607.958 Z" clip-path="url(#clipPath2)" stroke="none"/>
      <text x="519.0278" xml:space="preserve" y="546.485" clip-path="url(#clipPath2)" stroke="none">push  triggers .gitlab-ci.yml</text>
      <text x="561.8159" xml:space="preserve" y="560.4538" clip-path="url(#clipPath2)" stroke="none">build process</text>
      <path fill="none" d="M404.0559 660.0078 L404.0559 757.8882" clip-path="url(#clipPath2)"/>
      <path d="M404.0559 765.8882 L409.0559 753.8882 L404.0559 756.8882 L399.0559 753.8882 Z" clip-path="url(#clipPath2)" stroke="none"/>
      <text x="290.7259" xml:space="preserve" y="703.1465" clip-path="url(#clipPath2)" stroke="none">pushes webserver</text>
      <text x="294.6429" xml:space="preserve" y="717.1152" clip-path="url(#clipPath2)" stroke="none">docker container</text>
      <text x="314.3304" xml:space="preserve" y="731.084" clip-path="url(#clipPath2)" stroke="none">to registry</text>
      <path fill="none" d="M404.0559 824.2151 L404.0559 930.0935" clip-path="url(#clipPath2)"/>
      <path d="M404.0559 938.0935 L409.0559 926.0935 L404.0559 929.0935 L399.0559 926.0935 Z" clip-path="url(#clipPath2)" stroke="none"/>
      <text x="323.9544" xml:space="preserve" y="904.2444" clip-path="url(#clipPath2)" stroke="none">Update pods</text>
    </g>
  </g>
</svg>
