<?xml version="1.0" encoding="UTF-8"?><svg xmlns="http://www.w3.org/2000/svg" xmlns:xlink="http://www.w3.org/1999/xlink" fill-opacity="1" color-rendering="auto" color-interpolation="auto" text-rendering="auto" stroke="black" stroke-linecap="square" width="1114" stroke-miterlimit="10" shape-rendering="auto" stroke-opacity="1" fill="black" stroke-dasharray="none" font-weight="normal" stroke-width="1" height="488" font-family="'Dialog'" font-style="normal" stroke-linejoin="miter" font-size="12px" stroke-dashoffset="0" image-rendering="auto">
  <!--Generated by ySVG 2.5-->
  <defs id="genericDefs"/>
  <g>
    <defs id="defs1">
      <linearGradient x1="462.6704" gradientUnits="userSpaceOnUse" x2="602.5788" y1="0" y2="40" id="linearGradient1" spreadMethod="reflect">
        <stop stop-opacity="1" stop-color="rgb(232,238,247)" offset="0%"/>
        <stop stop-opacity="1" stop-color="rgb(183,201,227)" offset="100%"/>
      </linearGradient>
      <linearGradient x1="0" gradientUnits="userSpaceOnUse" x2="152.9084" y1="82.9531" y2="122.9531" id="linearGradient2" spreadMethod="reflect">
        <stop stop-opacity="1" stop-color="rgb(232,238,247)" offset="0%"/>
        <stop stop-opacity="1" stop-color="rgb(183,201,227)" offset="100%"/>
      </linearGradient>
      <linearGradient x1="172.9084" gradientUnits="userSpaceOnUse" x2="281.8169" y1="82.9531" y2="122.9531" id="linearGradient3" spreadMethod="reflect">
        <stop stop-opacity="1" stop-color="rgb(232,238,247)" offset="0%"/>
        <stop stop-opacity="1" stop-color="rgb(183,201,227)" offset="100%"/>
      </linearGradient>
      <linearGradient x1="334.2619" gradientUnits="userSpaceOnUse" x2="429.1704" y1="82.9531" y2="122.9531" id="linearGradient4" spreadMethod="reflect">
        <stop stop-opacity="1" stop-color="rgb(232,238,247)" offset="0%"/>
        <stop stop-opacity="1" stop-color="rgb(183,201,227)" offset="100%"/>
      </linearGradient>
      <linearGradient x1="475.1704" gradientUnits="userSpaceOnUse" x2="590.0788" y1="82.9531" y2="122.9531" id="linearGradient5" spreadMethod="reflect">
        <stop stop-opacity="1" stop-color="rgb(232,238,247)" offset="0%"/>
        <stop stop-opacity="1" stop-color="rgb(183,201,227)" offset="100%"/>
      </linearGradient>
      <linearGradient x1="610.0788" gradientUnits="userSpaceOnUse" x2="762.9872" y1="82.9531" y2="122.9531" id="linearGradient6" spreadMethod="reflect">
        <stop stop-opacity="1" stop-color="rgb(232,238,247)" offset="0%"/>
        <stop stop-opacity="1" stop-color="rgb(183,201,227)" offset="100%"/>
      </linearGradient>
      <linearGradient x1="782.9872" gradientUnits="userSpaceOnUse" x2="929.8956" y1="82.9531" y2="122.9531" id="linearGradient7" spreadMethod="reflect">
        <stop stop-opacity="1" stop-color="rgb(232,238,247)" offset="0%"/>
        <stop stop-opacity="1" stop-color="rgb(183,201,227)" offset="100%"/>
      </linearGradient>
      <linearGradient x1="949.8956" gradientUnits="userSpaceOnUse" x2="1083.8041" y1="82.9531" y2="122.9531" id="linearGradient8" spreadMethod="reflect">
        <stop stop-opacity="1" stop-color="rgb(232,238,247)" offset="0%"/>
        <stop stop-opacity="1" stop-color="rgb(183,201,227)" offset="100%"/>
      </linearGradient>
      <linearGradient x1="179.9084" gradientUnits="userSpaceOnUse" x2="274.8169" y1="337.7188" y2="377.7188" id="linearGradient9" spreadMethod="reflect">
        <stop stop-opacity="1" stop-color="rgb(232,238,247)" offset="0%"/>
        <stop stop-opacity="1" stop-color="rgb(183,201,227)" offset="100%"/>
      </linearGradient>
      <linearGradient x1="172.9084" gradientUnits="userSpaceOnUse" x2="281.8169" y1="168.8594" y2="208.8594" id="linearGradient10" spreadMethod="reflect">
        <stop stop-opacity="1" stop-color="rgb(232,238,247)" offset="0%"/>
        <stop stop-opacity="1" stop-color="rgb(183,201,227)" offset="100%"/>
      </linearGradient>
      <linearGradient x1="160.4084" gradientUnits="userSpaceOnUse" x2="294.3169" y1="254.7656" y2="294.7656" id="linearGradient11" spreadMethod="reflect">
        <stop stop-opacity="1" stop-color="rgb(232,238,247)" offset="0%"/>
        <stop stop-opacity="1" stop-color="rgb(183,201,227)" offset="100%"/>
      </linearGradient>
      <linearGradient x1="29" gradientUnits="userSpaceOnUse" x2="123.9084" y1="165.9062" y2="205.9062" id="linearGradient12" spreadMethod="reflect">
        <stop stop-opacity="1" stop-color="rgb(232,238,247)" offset="0%"/>
        <stop stop-opacity="1" stop-color="rgb(183,201,227)" offset="100%"/>
      </linearGradient>
      <linearGradient x1="29" gradientUnits="userSpaceOnUse" x2="123.9084" y1="248.8594" y2="288.8594" id="linearGradient13" spreadMethod="reflect">
        <stop stop-opacity="1" stop-color="rgb(232,238,247)" offset="0%"/>
        <stop stop-opacity="1" stop-color="rgb(183,201,227)" offset="100%"/>
      </linearGradient>
      <linearGradient x1="29" gradientUnits="userSpaceOnUse" x2="123.9084" y1="334.7656" y2="374.7656" id="linearGradient14" spreadMethod="reflect">
        <stop stop-opacity="1" stop-color="rgb(232,238,247)" offset="0%"/>
        <stop stop-opacity="1" stop-color="rgb(183,201,227)" offset="100%"/>
      </linearGradient>
      <linearGradient x1="16" gradientUnits="userSpaceOnUse" x2="136.9084" y1="417.7188" y2="457.7188" id="linearGradient15" spreadMethod="reflect">
        <stop stop-opacity="1" stop-color="rgb(232,238,247)" offset="0%"/>
        <stop stop-opacity="1" stop-color="rgb(183,201,227)" offset="100%"/>
      </linearGradient>
      <linearGradient x1="613.0788" gradientUnits="userSpaceOnUse" x2="759.9872" y1="162.9531" y2="202.9531" id="linearGradient16" spreadMethod="reflect">
        <stop stop-opacity="1" stop-color="rgb(232,238,247)" offset="0%"/>
        <stop stop-opacity="1" stop-color="rgb(183,201,227)" offset="100%"/>
      </linearGradient>
      <linearGradient x1="639.0788" gradientUnits="userSpaceOnUse" x2="733.9872" y1="242.9531" y2="282.9531" id="linearGradient17" spreadMethod="reflect">
        <stop stop-opacity="1" stop-color="rgb(232,238,247)" offset="0%"/>
        <stop stop-opacity="1" stop-color="rgb(183,201,227)" offset="100%"/>
      </linearGradient>
      <linearGradient x1="626.0788" gradientUnits="userSpaceOnUse" x2="746.9872" y1="322.9531" y2="362.9531" id="linearGradient18" spreadMethod="reflect">
        <stop stop-opacity="1" stop-color="rgb(232,238,247)" offset="0%"/>
        <stop stop-opacity="1" stop-color="rgb(183,201,227)" offset="100%"/>
      </linearGradient>
      <linearGradient x1="616.5788" gradientUnits="userSpaceOnUse" x2="756.4872" y1="405.9062" y2="445.9062" id="linearGradient19" spreadMethod="reflect">
        <stop stop-opacity="1" stop-color="rgb(232,238,247)" offset="0%"/>
        <stop stop-opacity="1" stop-color="rgb(183,201,227)" offset="100%"/>
      </linearGradient>
      <linearGradient x1="475.1704" gradientUnits="userSpaceOnUse" x2="590.0788" y1="165.9062" y2="205.9062" id="linearGradient20" spreadMethod="reflect">
        <stop stop-opacity="1" stop-color="rgb(232,238,247)" offset="0%"/>
        <stop stop-opacity="1" stop-color="rgb(183,201,227)" offset="100%"/>
      </linearGradient>
      <linearGradient x1="475.1704" gradientUnits="userSpaceOnUse" x2="590.0788" y1="248.8594" y2="288.8594" id="linearGradient21" spreadMethod="reflect">
        <stop stop-opacity="1" stop-color="rgb(232,238,247)" offset="0%"/>
        <stop stop-opacity="1" stop-color="rgb(183,201,227)" offset="100%"/>
      </linearGradient>
      <linearGradient x1="308.2619" gradientUnits="userSpaceOnUse" x2="455.1704" y1="168.8594" y2="208.8594" id="linearGradient22" spreadMethod="reflect">
        <stop stop-opacity="1" stop-color="rgb(232,238,247)" offset="0%"/>
        <stop stop-opacity="1" stop-color="rgb(183,201,227)" offset="100%"/>
      </linearGradient>
      <linearGradient x1="314.7619" gradientUnits="userSpaceOnUse" x2="448.6704" y1="251.8125" y2="291.8125" id="linearGradient23" spreadMethod="reflect">
        <stop stop-opacity="1" stop-color="rgb(232,238,247)" offset="0%"/>
        <stop stop-opacity="1" stop-color="rgb(183,201,227)" offset="100%"/>
      </linearGradient>
      <linearGradient x1="782.9872" gradientUnits="userSpaceOnUse" x2="929.8956" y1="162.9531" y2="202.9531" id="linearGradient24" spreadMethod="reflect">
        <stop stop-opacity="1" stop-color="rgb(232,238,247)" offset="0%"/>
        <stop stop-opacity="1" stop-color="rgb(183,201,227)" offset="100%"/>
      </linearGradient>
      <linearGradient x1="782.9872" gradientUnits="userSpaceOnUse" x2="929.8956" y1="242.9531" y2="282.9531" id="linearGradient25" spreadMethod="reflect">
        <stop stop-opacity="1" stop-color="rgb(232,238,247)" offset="0%"/>
        <stop stop-opacity="1" stop-color="rgb(183,201,227)" offset="100%"/>
      </linearGradient>
      <linearGradient x1="782.9872" gradientUnits="userSpaceOnUse" x2="929.8956" y1="322.9531" y2="362.9531" id="linearGradient26" spreadMethod="reflect">
        <stop stop-opacity="1" stop-color="rgb(232,238,247)" offset="0%"/>
        <stop stop-opacity="1" stop-color="rgb(183,201,227)" offset="100%"/>
      </linearGradient>
      <linearGradient x1="782.9872" gradientUnits="userSpaceOnUse" x2="929.8956" y1="405.9062" y2="445.9062" id="linearGradient27" spreadMethod="reflect">
        <stop stop-opacity="1" stop-color="rgb(232,238,247)" offset="0%"/>
        <stop stop-opacity="1" stop-color="rgb(183,201,227)" offset="100%"/>
      </linearGradient>
      <linearGradient x1="949.8956" gradientUnits="userSpaceOnUse" x2="1083.8041" y1="162.9531" y2="202.9531" id="linearGradient28" spreadMethod="reflect">
        <stop stop-opacity="1" stop-color="rgb(232,238,247)" offset="0%"/>
        <stop stop-opacity="1" stop-color="rgb(183,201,227)" offset="100%"/>
      </linearGradient>
      <linearGradient x1="949.8956" gradientUnits="userSpaceOnUse" x2="1083.8041" y1="245.9062" y2="285.9062" id="linearGradient29" spreadMethod="reflect">
        <stop stop-opacity="1" stop-color="rgb(232,238,247)" offset="0%"/>
        <stop stop-opacity="1" stop-color="rgb(183,201,227)" offset="100%"/>
      </linearGradient>
      <clipPath clipPathUnits="userSpaceOnUse" id="clipPath1">
        <path d="M0 0 L1114 0 L1114 488 L0 488 L0 0 Z"/>
      </clipPath>
      <clipPath clipPathUnits="userSpaceOnUse" id="clipPath2">
        <path d="M-15 -15 L1099 -15 L1099 473 L-15 473 L-15 -15 Z"/>
      </clipPath>
    </defs>
    <g fill="white" text-rendering="geometricPrecision" shape-rendering="geometricPrecision" transform="translate(15,15)" stroke="white">
      <rect x="-15" width="1114" height="488" y="-15" clip-path="url(#clipPath2)" stroke="none"/>
    </g>
    <g fill="url(#linearGradient1)" text-rendering="geometricPrecision" shape-rendering="geometricPrecision" transform="matrix(1,0,0,1,15,15)" stroke="url(#linearGradient1)">
      <path d="M462.6704 0 L602.5788 0 L602.5788 40 L462.6704 40 Z" stroke="none" clip-path="url(#clipPath2)"/>
    </g>
    <g text-rendering="geometricPrecision" stroke-miterlimit="1.45" shape-rendering="geometricPrecision" transform="matrix(1,0,0,1,15,15)" stroke-linecap="butt">
      <path fill="none" d="M462.6704 0 L602.5788 0 L602.5788 40 L462.6704 40 Z" clip-path="url(#clipPath2)"/>
      <text x="468.5718" font-size="20px" y="26.9238" clip-path="url(#clipPath2)" font-family="sans-serif" stroke="none" font-weight="bold" xml:space="preserve">Sciebo RDS</text>
    </g>
    <g fill="url(#linearGradient2)" text-rendering="geometricPrecision" shape-rendering="geometricPrecision" transform="matrix(1,0,0,1,15,15)" stroke="url(#linearGradient2)">
      <path d="M0 82.9531 L152.9084 82.9531 L152.9084 122.9531 L0 122.9531 Z" stroke="none" clip-path="url(#clipPath2)"/>
    </g>
    <g text-rendering="geometricPrecision" stroke-miterlimit="1.45" shape-rendering="geometricPrecision" transform="matrix(1,0,0,1,15,15)" stroke-linecap="butt">
      <path fill="none" d="M0 82.9531 L152.9084 82.9531 L152.9084 122.9531 L0 122.9531 Z" clip-path="url(#clipPath2)"/>
      <text x="63.0069" xml:space="preserve" y="93.1387" clip-path="url(#clipPath2)" font-family="sans-serif" stroke="none">AP 1</text>
      <text x="12.5987" xml:space="preserve" y="107.1074" clip-path="url(#clipPath2)" font-family="sans-serif" stroke="none">Anforderungsanalyse</text>
      <text x="31.4747" xml:space="preserve" y="121.0762" clip-path="url(#clipPath2)" font-family="sans-serif" stroke="none">und Evaluation</text>
    </g>
    <g fill="url(#linearGradient3)" text-rendering="geometricPrecision" shape-rendering="geometricPrecision" transform="matrix(1,0,0,1,15,15)" stroke="url(#linearGradient3)">
      <path d="M172.9084 82.9531 L281.8169 82.9531 L281.8169 122.9531 L172.9084 122.9531 Z" stroke="none" clip-path="url(#clipPath2)"/>
    </g>
    <g text-rendering="geometricPrecision" stroke-miterlimit="1.45" shape-rendering="geometricPrecision" transform="matrix(1,0,0,1,15,15)" stroke-linecap="butt">
      <path fill="none" d="M172.9084 82.9531 L281.8169 82.9531 L281.8169 122.9531 L172.9084 122.9531 Z" clip-path="url(#clipPath2)"/>
      <text x="213.9154" xml:space="preserve" y="93.1387" clip-path="url(#clipPath2)" font-family="sans-serif" stroke="none">AP 2</text>
      <text x="178.6537" xml:space="preserve" y="107.1074" clip-path="url(#clipPath2)" font-family="sans-serif" stroke="none">Architektur und </text>
      <text x="189.6898" xml:space="preserve" y="121.0762" clip-path="url(#clipPath2)" font-family="sans-serif" stroke="none">Infrastruktur</text>
    </g>
    <g fill="url(#linearGradient4)" text-rendering="geometricPrecision" shape-rendering="geometricPrecision" transform="matrix(1,0,0,1,15,15)" stroke="url(#linearGradient4)">
      <path d="M334.2619 82.9531 L429.1704 82.9531 L429.1704 122.9531 L334.2619 122.9531 Z" stroke="none" clip-path="url(#clipPath2)"/>
    </g>
    <g text-rendering="geometricPrecision" stroke-miterlimit="1.45" shape-rendering="geometricPrecision" transform="matrix(1,0,0,1,15,15)" stroke-linecap="butt">
      <path fill="none" d="M334.2619 82.9531 L429.1704 82.9531 L429.1704 122.9531 L334.2619 122.9531 Z" clip-path="url(#clipPath2)"/>
      <text x="368.2689" xml:space="preserve" y="93.1387" clip-path="url(#clipPath2)" font-family="sans-serif" stroke="none">AP 3</text>
      <text x="354.5433" xml:space="preserve" y="107.1074" clip-path="url(#clipPath2)" font-family="sans-serif" stroke="none">Transfer-</text>
      <text x="350.6878" xml:space="preserve" y="121.0762" clip-path="url(#clipPath2)" font-family="sans-serif" stroke="none">Workflows</text>
    </g>
    <g fill="url(#linearGradient5)" text-rendering="geometricPrecision" shape-rendering="geometricPrecision" transform="matrix(1,0,0,1,15,15)" stroke="url(#linearGradient5)">
      <path d="M475.1704 82.9531 L590.0788 82.9531 L590.0788 122.9531 L475.1704 122.9531 Z" stroke="none" clip-path="url(#clipPath2)"/>
    </g>
    <g text-rendering="geometricPrecision" stroke-miterlimit="1.45" shape-rendering="geometricPrecision" transform="matrix(1,0,0,1,15,15)" stroke-linecap="butt">
      <path fill="none" d="M475.1704 82.9531 L590.0788 82.9531 L590.0788 122.9531 L475.1704 122.9531 Z" clip-path="url(#clipPath2)"/>
      <text x="519.1773" xml:space="preserve" y="93.1387" clip-path="url(#clipPath2)" font-family="sans-serif" stroke="none">AP 4</text>
      <text x="489.2798" xml:space="preserve" y="107.1074" clip-path="url(#clipPath2)" font-family="sans-serif" stroke="none">Research data</text>
      <text x="482.7935" xml:space="preserve" y="121.0762" clip-path="url(#clipPath2)" font-family="sans-serif" stroke="none">project manager</text>
    </g>
    <g fill="url(#linearGradient6)" text-rendering="geometricPrecision" shape-rendering="geometricPrecision" transform="matrix(1,0,0,1,15,15)" stroke="url(#linearGradient6)">
      <path d="M610.0788 82.9531 L762.9872 82.9531 L762.9872 122.9531 L610.0788 122.9531 Z" stroke="none" clip-path="url(#clipPath2)"/>
    </g>
    <g text-rendering="geometricPrecision" stroke-miterlimit="1.45" shape-rendering="geometricPrecision" transform="matrix(1,0,0,1,15,15)" stroke-linecap="butt">
      <path fill="none" d="M610.0788 82.9531 L762.9872 82.9531 L762.9872 122.9531 L610.0788 122.9531 Z" clip-path="url(#clipPath2)"/>
      <text x="673.0858" xml:space="preserve" y="100.123" clip-path="url(#clipPath2)" font-family="sans-serif" stroke="none">AP 5</text>
      <text x="617.2283" xml:space="preserve" y="114.0918" clip-path="url(#clipPath2)" font-family="sans-serif" stroke="none">Rssearch data services</text>
    </g>
    <g fill="url(#linearGradient7)" text-rendering="geometricPrecision" shape-rendering="geometricPrecision" transform="matrix(1,0,0,1,15,15)" stroke="url(#linearGradient7)">
      <path d="M782.9872 82.9531 L929.8956 82.9531 L929.8956 122.9531 L782.9872 122.9531 Z" stroke="none" clip-path="url(#clipPath2)"/>
    </g>
    <g text-rendering="geometricPrecision" stroke-miterlimit="1.45" shape-rendering="geometricPrecision" transform="matrix(1,0,0,1,15,15)" stroke-linecap="butt">
      <path fill="none" d="M782.9872 82.9531 L929.8956 82.9531 L929.8956 122.9531 L782.9872 122.9531 Z" clip-path="url(#clipPath2)"/>
      <text x="842.9941" xml:space="preserve" y="100.123" clip-path="url(#clipPath2)" font-family="sans-serif" stroke="none">AP 6</text>
      <text x="785.5342" xml:space="preserve" y="114.0918" clip-path="url(#clipPath2)" font-family="sans-serif" stroke="none">Pilotartige Konnektoren</text>
    </g>
    <g fill="url(#linearGradient8)" text-rendering="geometricPrecision" shape-rendering="geometricPrecision" transform="matrix(1,0,0,1,15,15)" stroke="url(#linearGradient8)">
      <path d="M949.8956 82.9531 L1083.8041 82.9531 L1083.8041 122.9531 L949.8956 122.9531 Z" stroke="none" clip-path="url(#clipPath2)"/>
    </g>
    <g text-rendering="geometricPrecision" stroke-miterlimit="1.45" shape-rendering="geometricPrecision" transform="matrix(1,0,0,1,15,15)" stroke-linecap="butt">
      <path fill="none" d="M949.8956 82.9531 L1083.8041 82.9531 L1083.8041 122.9531 L949.8956 122.9531 Z" clip-path="url(#clipPath2)"/>
      <text x="1003.4026" xml:space="preserve" y="100.123" clip-path="url(#clipPath2)" font-family="sans-serif" stroke="none">AP 7</text>
      <text x="955.7161" xml:space="preserve" y="114.0918" clip-path="url(#clipPath2)" font-family="sans-serif" stroke="none">Projektmanagement</text>
    </g>
    <g fill="url(#linearGradient9)" text-rendering="geometricPrecision" shape-rendering="geometricPrecision" transform="matrix(1,0,0,1,15,15)" stroke="url(#linearGradient9)">
      <path d="M179.9084 337.7188 L274.8169 337.7188 L274.8169 377.7188 L179.9084 377.7188 Z" stroke="none" clip-path="url(#clipPath2)"/>
    </g>
    <g text-rendering="geometricPrecision" stroke-miterlimit="1.45" shape-rendering="geometricPrecision" transform="matrix(1,0,0,1,15,15)" stroke-linecap="butt">
      <path fill="none" d="M179.9084 337.7188 L274.8169 337.7188 L274.8169 377.7188 L179.9084 377.7188 Z" clip-path="url(#clipPath2)"/>
      <text x="208.1908" xml:space="preserve" y="354.8887" clip-path="url(#clipPath2)" font-family="sans-serif" stroke="none">AP 2.3</text>
      <text x="187.5746" xml:space="preserve" y="368.8574" clip-path="url(#clipPath2)" font-family="sans-serif" stroke="none">Nachnutzung</text>
    </g>
    <g fill="url(#linearGradient10)" text-rendering="geometricPrecision" shape-rendering="geometricPrecision" transform="matrix(1,0,0,1,15,15)" stroke="url(#linearGradient10)">
      <path d="M172.9084 168.8594 L281.8169 168.8594 L281.8169 208.8594 L172.9084 208.8594 Z" stroke="none" clip-path="url(#clipPath2)"/>
    </g>
    <g text-rendering="geometricPrecision" stroke-miterlimit="1.45" shape-rendering="geometricPrecision" transform="matrix(1,0,0,1,15,15)" stroke-linecap="butt">
      <path fill="none" d="M172.9084 168.8594 L281.8169 168.8594 L281.8169 208.8594 L172.9084 208.8594 Z" clip-path="url(#clipPath2)"/>
      <text x="208.1908" xml:space="preserve" y="179.0449" clip-path="url(#clipPath2)" font-family="sans-serif" stroke="none">AP 2.1</text>
      <text x="175.7591" xml:space="preserve" y="193.0137" clip-path="url(#clipPath2)" font-family="sans-serif" stroke="none">Entwicklung und </text>
      <text x="187.2523" xml:space="preserve" y="206.9824" clip-path="url(#clipPath2)" font-family="sans-serif" stroke="none">Ausarbeitung</text>
    </g>
    <g fill="url(#linearGradient11)" text-rendering="geometricPrecision" shape-rendering="geometricPrecision" transform="matrix(1,0,0,1,15,15)" stroke="url(#linearGradient11)">
      <path d="M160.4084 254.7656 L294.3169 254.7656 L294.3169 294.7656 L160.4084 294.7656 Z" stroke="none" clip-path="url(#clipPath2)"/>
    </g>
    <g text-rendering="geometricPrecision" stroke-miterlimit="1.45" shape-rendering="geometricPrecision" transform="matrix(1,0,0,1,15,15)" stroke-linecap="butt">
      <path fill="none" d="M160.4084 254.7656 L294.3169 254.7656 L294.3169 294.7656 L160.4084 294.7656 Z" clip-path="url(#clipPath2)"/>
      <text x="208.1908" xml:space="preserve" y="264.9512" clip-path="url(#clipPath2)" font-family="sans-serif" stroke="none">AP 2.2</text>
      <text x="171.6136" xml:space="preserve" y="278.9199" clip-path="url(#clipPath2)" font-family="sans-serif" stroke="none">Aufbau technische</text>
      <text x="164.805" xml:space="preserve" y="292.8887" clip-path="url(#clipPath2)" font-family="sans-serif" stroke="none">Rahmeninfrastruktur</text>
    </g>
    <g fill="url(#linearGradient12)" text-rendering="geometricPrecision" shape-rendering="geometricPrecision" transform="matrix(1,0,0,1,15,15)" stroke="url(#linearGradient12)">
      <path d="M29 165.9062 L123.9084 165.9062 L123.9084 205.9062 L29 205.9062 Z" stroke="none" clip-path="url(#clipPath2)"/>
    </g>
    <g text-rendering="geometricPrecision" stroke-miterlimit="1.45" shape-rendering="geometricPrecision" transform="matrix(1,0,0,1,15,15)" stroke-linecap="butt">
      <path fill="none" d="M29 165.9062 L123.9084 165.9062 L123.9084 205.9062 L29 205.9062 Z" clip-path="url(#clipPath2)"/>
      <text x="57.2823" xml:space="preserve" y="183.0762" clip-path="url(#clipPath2)" font-family="sans-serif" stroke="none">AP 1.1</text>
      <text x="31.422" xml:space="preserve" y="197.0449" clip-path="url(#clipPath2)" font-family="sans-serif" stroke="none">Anforderungen</text>
    </g>
    <g fill="url(#linearGradient13)" text-rendering="geometricPrecision" shape-rendering="geometricPrecision" transform="matrix(1,0,0,1,15,15)" stroke="url(#linearGradient13)">
      <path d="M29 248.8594 L123.9084 248.8594 L123.9084 288.8594 L29 288.8594 Z" stroke="none" clip-path="url(#clipPath2)"/>
    </g>
    <g text-rendering="geometricPrecision" stroke-miterlimit="1.45" shape-rendering="geometricPrecision" transform="matrix(1,0,0,1,15,15)" stroke-linecap="butt">
      <path fill="none" d="M29 248.8594 L123.9084 248.8594 L123.9084 288.8594 L29 288.8594 Z" clip-path="url(#clipPath2)"/>
      <text x="57.2823" xml:space="preserve" y="259.0449" clip-path="url(#clipPath2)" font-family="sans-serif" stroke="none">AP 1.2</text>
      <text x="41.5675" xml:space="preserve" y="273.0137" clip-path="url(#clipPath2)" font-family="sans-serif" stroke="none">Ergebnisse </text>
      <text x="40.6915" xml:space="preserve" y="286.9824" clip-path="url(#clipPath2)" font-family="sans-serif" stroke="none">ausarbeiten</text>
    </g>
    <g fill="url(#linearGradient14)" text-rendering="geometricPrecision" shape-rendering="geometricPrecision" transform="matrix(1,0,0,1,15,15)" stroke="url(#linearGradient14)">
      <path d="M29 334.7656 L123.9084 334.7656 L123.9084 374.7656 L29 374.7656 Z" stroke="none" clip-path="url(#clipPath2)"/>
    </g>
    <g text-rendering="geometricPrecision" stroke-miterlimit="1.45" shape-rendering="geometricPrecision" transform="matrix(1,0,0,1,15,15)" stroke-linecap="butt">
      <path fill="none" d="M29 334.7656 L123.9084 334.7656 L123.9084 374.7656 L29 374.7656 Z" clip-path="url(#clipPath2)"/>
      <text x="57.2823" xml:space="preserve" y="344.9512" clip-path="url(#clipPath2)" font-family="sans-serif" stroke="none">AP 1.3</text>
      <text x="34.381" xml:space="preserve" y="358.9199" clip-path="url(#clipPath2)" font-family="sans-serif" stroke="none">Komponenten</text>
      <text x="57.4376" xml:space="preserve" y="372.8887" clip-path="url(#clipPath2)" font-family="sans-serif" stroke="none">testen</text>
    </g>
    <g fill="url(#linearGradient15)" text-rendering="geometricPrecision" shape-rendering="geometricPrecision" transform="matrix(1,0,0,1,15,15)" stroke="url(#linearGradient15)">
      <path d="M16 417.7188 L136.9084 417.7188 L136.9084 457.7188 L16 457.7188 Z" stroke="none" clip-path="url(#clipPath2)"/>
    </g>
    <g text-rendering="geometricPrecision" stroke-miterlimit="1.45" shape-rendering="geometricPrecision" transform="matrix(1,0,0,1,15,15)" stroke-linecap="butt">
      <path fill="none" d="M16 417.7188 L136.9084 417.7188 L136.9084 457.7188 L16 457.7188 Z" clip-path="url(#clipPath2)"/>
      <text x="57.2823" xml:space="preserve" y="434.8887" clip-path="url(#clipPath2)" font-family="sans-serif" stroke="none">AP 1.4</text>
      <text x="18.9386" xml:space="preserve" y="448.8574" clip-path="url(#clipPath2)" font-family="sans-serif" stroke="none">agiles Pflichtenheft</text>
    </g>
    <g fill="url(#linearGradient16)" text-rendering="geometricPrecision" shape-rendering="geometricPrecision" transform="matrix(1,0,0,1,15,15)" stroke="url(#linearGradient16)">
      <path d="M613.0788 162.9531 L759.9872 162.9531 L759.9872 202.9531 L613.0788 202.9531 Z" stroke="none" clip-path="url(#clipPath2)"/>
    </g>
    <g text-rendering="geometricPrecision" stroke-miterlimit="1.45" shape-rendering="geometricPrecision" transform="matrix(1,0,0,1,15,15)" stroke-linecap="butt">
      <path fill="none" d="M613.0788 162.9531 L759.9872 162.9531 L759.9872 202.9531 L613.0788 202.9531 Z" clip-path="url(#clipPath2)"/>
      <text x="667.3611" xml:space="preserve" y="180.123" clip-path="url(#clipPath2)" font-family="sans-serif" stroke="none">AP 5.1</text>
      <text x="618.9188" xml:space="preserve" y="194.0918" clip-path="url(#clipPath2)" font-family="sans-serif" stroke="none">Datenmangementplan</text>
    </g>
    <g fill="url(#linearGradient17)" text-rendering="geometricPrecision" shape-rendering="geometricPrecision" transform="matrix(1,0,0,1,15,15)" stroke="url(#linearGradient17)">
      <path d="M639.0788 242.9531 L733.9872 242.9531 L733.9872 282.9531 L639.0788 282.9531 Z" stroke="none" clip-path="url(#clipPath2)"/>
    </g>
    <g text-rendering="geometricPrecision" stroke-miterlimit="1.45" shape-rendering="geometricPrecision" transform="matrix(1,0,0,1,15,15)" stroke-linecap="butt">
      <path fill="none" d="M639.0788 242.9531 L733.9872 242.9531 L733.9872 282.9531 L639.0788 282.9531 Z" clip-path="url(#clipPath2)"/>
      <text x="667.3611" xml:space="preserve" y="260.123" clip-path="url(#clipPath2)" font-family="sans-serif" stroke="none">AP 5.2</text>
      <text x="655.1004" xml:space="preserve" y="274.0918" clip-path="url(#clipPath2)" font-family="sans-serif" stroke="none">Taxonomy</text>
    </g>
    <g fill="url(#linearGradient18)" text-rendering="geometricPrecision" shape-rendering="geometricPrecision" transform="matrix(1,0,0,1,15,15)" stroke="url(#linearGradient18)">
      <path d="M626.0788 322.9531 L746.9872 322.9531 L746.9872 362.9531 L626.0788 362.9531 Z" stroke="none" clip-path="url(#clipPath2)"/>
    </g>
    <g text-rendering="geometricPrecision" stroke-miterlimit="1.45" shape-rendering="geometricPrecision" transform="matrix(1,0,0,1,15,15)" stroke-linecap="butt">
      <path fill="none" d="M626.0788 322.9531 L746.9872 322.9531 L746.9872 362.9531 L626.0788 362.9531 Z" clip-path="url(#clipPath2)"/>
      <text x="667.3611" xml:space="preserve" y="340.123" clip-path="url(#clipPath2)" font-family="sans-serif" stroke="none">AP 5.3</text>
      <text x="632.2254" xml:space="preserve" y="354.0918" clip-path="url(#clipPath2)" font-family="sans-serif" stroke="none">Metadata Capture</text>
    </g>
    <g fill="url(#linearGradient19)" text-rendering="geometricPrecision" shape-rendering="geometricPrecision" transform="matrix(1,0,0,1,15,15)" stroke="url(#linearGradient19)">
      <path d="M616.5788 405.9062 L756.4872 405.9062 L756.4872 445.9062 L616.5788 445.9062 Z" stroke="none" clip-path="url(#clipPath2)"/>
    </g>
    <g text-rendering="geometricPrecision" stroke-miterlimit="1.45" shape-rendering="geometricPrecision" transform="matrix(1,0,0,1,15,15)" stroke-linecap="butt">
      <path fill="none" d="M616.5788 405.9062 L756.4872 405.9062 L756.4872 445.9062 L616.5788 445.9062 Z" clip-path="url(#clipPath2)"/>
      <text x="667.3611" xml:space="preserve" y="416.0918" clip-path="url(#clipPath2)" font-family="sans-serif" stroke="none">AP 5.4</text>
      <text x="649.7889" xml:space="preserve" y="430.0605" clip-path="url(#clipPath2)" font-family="sans-serif" stroke="none">Information </text>
      <text x="633.5818" xml:space="preserve" y="444.0293" clip-path="url(#clipPath2)" font-family="sans-serif" stroke="none">Package Exporter</text>
    </g>
    <g fill="url(#linearGradient20)" text-rendering="geometricPrecision" shape-rendering="geometricPrecision" transform="matrix(1,0,0,1,15,15)" stroke="url(#linearGradient20)">
      <path d="M475.1704 165.9062 L590.0788 165.9062 L590.0788 205.9062 L475.1704 205.9062 Z" stroke="none" clip-path="url(#clipPath2)"/>
    </g>
    <g text-rendering="geometricPrecision" stroke-miterlimit="1.45" shape-rendering="geometricPrecision" transform="matrix(1,0,0,1,15,15)" stroke-linecap="butt">
      <path fill="none" d="M475.1704 165.9062 L590.0788 165.9062 L590.0788 205.9062 L475.1704 205.9062 Z" clip-path="url(#clipPath2)"/>
      <text x="513.4527" xml:space="preserve" y="183.0762" clip-path="url(#clipPath2)" font-family="sans-serif" stroke="none">AP 4.1</text>
      <text x="483.7545" xml:space="preserve" y="197.0449" clip-path="url(#clipPath2)" font-family="sans-serif" stroke="none">Betriebskonzept</text>
    </g>
    <g fill="url(#linearGradient21)" text-rendering="geometricPrecision" shape-rendering="geometricPrecision" transform="matrix(1,0,0,1,15,15)" stroke="url(#linearGradient21)">
      <path d="M475.1704 248.8594 L590.0788 248.8594 L590.0788 288.8594 L475.1704 288.8594 Z" stroke="none" clip-path="url(#clipPath2)"/>
    </g>
    <g text-rendering="geometricPrecision" stroke-miterlimit="1.45" shape-rendering="geometricPrecision" transform="matrix(1,0,0,1,15,15)" stroke-linecap="butt">
      <path fill="none" d="M475.1704 248.8594 L590.0788 248.8594 L590.0788 288.8594 L475.1704 288.8594 Z" clip-path="url(#clipPath2)"/>
      <text x="513.4527" xml:space="preserve" y="259.0449" clip-path="url(#clipPath2)" font-family="sans-serif" stroke="none">AP 4.2</text>
      <text x="489.9332" xml:space="preserve" y="273.0137" clip-path="url(#clipPath2)" font-family="sans-serif" stroke="none">Grundlegende</text>
      <text x="499.106" xml:space="preserve" y="286.9824" clip-path="url(#clipPath2)" font-family="sans-serif" stroke="none">Funktionen</text>
    </g>
    <g fill="url(#linearGradient22)" text-rendering="geometricPrecision" shape-rendering="geometricPrecision" transform="matrix(1,0,0,1,15,15)" stroke="url(#linearGradient22)">
      <path d="M308.2619 168.8594 L455.1704 168.8594 L455.1704 208.8594 L308.2619 208.8594 Z" stroke="none" clip-path="url(#clipPath2)"/>
    </g>
    <g text-rendering="geometricPrecision" stroke-miterlimit="1.45" shape-rendering="geometricPrecision" transform="matrix(1,0,0,1,15,15)" stroke-linecap="butt">
      <path fill="none" d="M308.2619 168.8594 L455.1704 168.8594 L455.1704 208.8594 L308.2619 208.8594 Z" clip-path="url(#clipPath2)"/>
      <text x="362.5443" xml:space="preserve" y="179.0449" clip-path="url(#clipPath2)" font-family="sans-serif" stroke="none">AP 3.1</text>
      <text x="333.7542" xml:space="preserve" y="193.0137" clip-path="url(#clipPath2)" font-family="sans-serif" stroke="none">Infrastruktur für</text>
      <text x="313.9203" xml:space="preserve" y="206.9824" clip-path="url(#clipPath2)" font-family="sans-serif" stroke="none">anpassbare Workflows</text>
    </g>
    <g fill="url(#linearGradient23)" text-rendering="geometricPrecision" shape-rendering="geometricPrecision" transform="matrix(1,0,0,1,15,15)" stroke="url(#linearGradient23)">
      <path d="M314.7619 251.8125 L448.6704 251.8125 L448.6704 291.8125 L314.7619 291.8125 Z" stroke="none" clip-path="url(#clipPath2)"/>
    </g>
    <g text-rendering="geometricPrecision" stroke-miterlimit="1.45" shape-rendering="geometricPrecision" transform="matrix(1,0,0,1,15,15)" stroke-linecap="butt">
      <path fill="none" d="M314.7619 251.8125 L448.6704 251.8125 L448.6704 291.8125 L314.7619 291.8125 Z" clip-path="url(#clipPath2)"/>
      <text x="362.5443" xml:space="preserve" y="268.9824" clip-path="url(#clipPath2)" font-family="sans-serif" stroke="none">AP 3.2</text>
      <text x="321.3441" xml:space="preserve" y="282.9512" clip-path="url(#clipPath2)" font-family="sans-serif" stroke="none">Nutzbare Workflows</text>
    </g>
    <g fill="url(#linearGradient24)" text-rendering="geometricPrecision" shape-rendering="geometricPrecision" transform="matrix(1,0,0,1,15,15)" stroke="url(#linearGradient24)">
      <path d="M782.9872 162.9531 L929.8956 162.9531 L929.8956 202.9531 L782.9872 202.9531 Z" stroke="none" clip-path="url(#clipPath2)"/>
    </g>
    <g text-rendering="geometricPrecision" stroke-miterlimit="1.45" shape-rendering="geometricPrecision" transform="matrix(1,0,0,1,15,15)" stroke-linecap="butt">
      <path fill="none" d="M782.9872 162.9531 L929.8956 162.9531 L929.8956 202.9531 L782.9872 202.9531 Z" clip-path="url(#clipPath2)"/>
      <text x="837.2695" xml:space="preserve" y="180.123" clip-path="url(#clipPath2)" font-family="sans-serif" stroke="none">AP 6.1</text>
      <text x="832.1865" xml:space="preserve" y="194.0918" clip-path="url(#clipPath2)" font-family="sans-serif" stroke="none">Clarin-D</text>
    </g>
    <g fill="url(#linearGradient25)" text-rendering="geometricPrecision" shape-rendering="geometricPrecision" transform="matrix(1,0,0,1,15,15)" stroke="url(#linearGradient25)">
      <path d="M782.9872 242.9531 L929.8956 242.9531 L929.8956 282.9531 L782.9872 282.9531 Z" stroke="none" clip-path="url(#clipPath2)"/>
    </g>
    <g text-rendering="geometricPrecision" stroke-miterlimit="1.45" shape-rendering="geometricPrecision" transform="matrix(1,0,0,1,15,15)" stroke-linecap="butt">
      <path fill="none" d="M782.9872 242.9531 L929.8956 242.9531 L929.8956 282.9531 L782.9872 282.9531 Z" clip-path="url(#clipPath2)"/>
      <text x="837.2695" xml:space="preserve" y="260.123" clip-path="url(#clipPath2)" font-family="sans-serif" stroke="none">AP 6.2</text>
      <text x="825.8145" xml:space="preserve" y="274.0918" clip-path="url(#clipPath2)" font-family="sans-serif" stroke="none">Lightroom</text>
    </g>
    <g fill="url(#linearGradient26)" text-rendering="geometricPrecision" shape-rendering="geometricPrecision" transform="matrix(1,0,0,1,15,15)" stroke="url(#linearGradient26)">
      <path d="M782.9872 322.9531 L929.8956 322.9531 L929.8956 362.9531 L782.9872 362.9531 Z" stroke="none" clip-path="url(#clipPath2)"/>
    </g>
    <g text-rendering="geometricPrecision" stroke-miterlimit="1.45" shape-rendering="geometricPrecision" transform="matrix(1,0,0,1,15,15)" stroke-linecap="butt">
      <path fill="none" d="M782.9872 322.9531 L929.8956 322.9531 L929.8956 362.9531 L782.9872 362.9531 Z" clip-path="url(#clipPath2)"/>
      <text x="837.2695" xml:space="preserve" y="340.123" clip-path="url(#clipPath2)" font-family="sans-serif" stroke="none">AP 6.3</text>
      <text x="814.1426" xml:space="preserve" y="354.0918" clip-path="url(#clipPath2)" font-family="sans-serif" stroke="none">oXygen Editor</text>
    </g>
    <g fill="url(#linearGradient27)" text-rendering="geometricPrecision" shape-rendering="geometricPrecision" transform="matrix(1,0,0,1,15,15)" stroke="url(#linearGradient27)">
      <path d="M782.9872 405.9062 L929.8956 405.9062 L929.8956 445.9062 L782.9872 445.9062 Z" stroke="none" clip-path="url(#clipPath2)"/>
    </g>
    <g text-rendering="geometricPrecision" stroke-miterlimit="1.45" shape-rendering="geometricPrecision" transform="matrix(1,0,0,1,15,15)" stroke-linecap="butt">
      <path fill="none" d="M782.9872 405.9062 L929.8956 405.9062 L929.8956 445.9062 L782.9872 445.9062 Z" clip-path="url(#clipPath2)"/>
      <text x="837.2695" xml:space="preserve" y="416.0918" clip-path="url(#clipPath2)" font-family="sans-serif" stroke="none">AP 6.4</text>
      <text x="838.6201" xml:space="preserve" y="430.0605" clip-path="url(#clipPath2)" font-family="sans-serif" stroke="none">Gitlab</text>
      <text x="827.4434" xml:space="preserve" y="444.0293" clip-path="url(#clipPath2)" font-family="sans-serif" stroke="none">(optional)</text>
    </g>
    <g fill="url(#linearGradient28)" text-rendering="geometricPrecision" shape-rendering="geometricPrecision" transform="matrix(1,0,0,1,15,15)" stroke="url(#linearGradient28)">
      <path d="M949.8956 162.9531 L1083.8041 162.9531 L1083.8041 202.9531 L949.8956 202.9531 Z" stroke="none" clip-path="url(#clipPath2)"/>
    </g>
    <g text-rendering="geometricPrecision" stroke-miterlimit="1.45" shape-rendering="geometricPrecision" transform="matrix(1,0,0,1,15,15)" stroke-linecap="butt">
      <path fill="none" d="M949.8956 162.9531 L1083.8041 162.9531 L1083.8041 202.9531 L949.8956 202.9531 Z" clip-path="url(#clipPath2)"/>
      <text x="997.678" xml:space="preserve" y="180.123" clip-path="url(#clipPath2)" font-family="sans-serif" stroke="none">AP 7.1</text>
      <text x="958.3381" xml:space="preserve" y="194.0918" clip-path="url(#clipPath2)" font-family="sans-serif" stroke="none">Projektinfrastruktur</text>
    </g>
    <g fill="url(#linearGradient29)" text-rendering="geometricPrecision" shape-rendering="geometricPrecision" transform="matrix(1,0,0,1,15,15)" stroke="url(#linearGradient29)">
      <path d="M949.8956 245.9062 L1083.8041 245.9062 L1083.8041 285.9062 L949.8956 285.9062 Z" stroke="none" clip-path="url(#clipPath2)"/>
    </g>
    <g text-rendering="geometricPrecision" stroke-miterlimit="1.45" shape-rendering="geometricPrecision" transform="matrix(1,0,0,1,15,15)" stroke-linecap="butt">
      <path fill="none" d="M949.8956 245.9062 L1083.8041 245.9062 L1083.8041 285.9062 L949.8956 285.9062 Z" clip-path="url(#clipPath2)"/>
      <text x="997.678" xml:space="preserve" y="256.0918" clip-path="url(#clipPath2)" font-family="sans-serif" stroke="none">AP 7.2</text>
      <text x="984.1604" xml:space="preserve" y="270.0605" clip-path="url(#clipPath2)" font-family="sans-serif" stroke="none">Bericht an </text>
      <text x="977.4456" xml:space="preserve" y="284.0293" clip-path="url(#clipPath2)" font-family="sans-serif" stroke="none">Projektträger</text>
    </g>
    <g text-rendering="geometricPrecision" stroke-miterlimit="1.45" shape-rendering="geometricPrecision" transform="matrix(1,0,0,1,15,15)" stroke-linecap="butt">
      <path fill="none" d="M532.6246 39.9609 L532.6246 60 L76.4542 60 L76.4542 74.9447" clip-path="url(#clipPath2)"/>
    </g>
    <g text-rendering="geometricPrecision" stroke-miterlimit="1.45" shape-rendering="geometricPrecision" transform="matrix(1,0,0,1,15,15)" stroke-linecap="butt">
      <path d="M76.4542 82.9447 L81.4542 70.9447 L76.4542 73.9447 L71.4542 70.9447 Z" stroke="none" clip-path="url(#clipPath2)"/>
      <path fill="none" d="M532.6246 39.9609 L532.6246 60 L227.3626 60 L227.3626 74.9447" clip-path="url(#clipPath2)"/>
      <path d="M227.3626 82.9447 L232.3626 70.9447 L227.3626 73.9447 L222.3626 70.9447 Z" clip-path="url(#clipPath2)" stroke="none"/>
      <path fill="none" d="M532.6246 39.9609 L532.6246 60 L381.7162 60 L381.7162 74.9447" clip-path="url(#clipPath2)"/>
      <path d="M381.7162 82.9447 L386.7162 70.9447 L381.7162 73.9447 L376.7162 70.9447 Z" clip-path="url(#clipPath2)" stroke="none"/>
      <path fill="none" d="M532.6246 39.9687 L532.6246 74.9322" clip-path="url(#clipPath2)"/>
      <path d="M532.6246 82.9322 L537.6246 70.9322 L532.6246 73.9322 L527.6246 70.9322 Z" clip-path="url(#clipPath2)" stroke="none"/>
      <path fill="none" d="M532.6246 39.9609 L532.6246 60 L686.533 60 L686.533 74.9447" clip-path="url(#clipPath2)"/>
      <path d="M686.533 82.9447 L691.533 70.9447 L686.533 73.9447 L681.533 70.9447 Z" clip-path="url(#clipPath2)" stroke="none"/>
      <path fill="none" d="M532.6246 39.9609 L532.6246 60 L856.4414 60 L856.4414 74.9447" clip-path="url(#clipPath2)"/>
      <path d="M856.4414 82.9447 L861.4414 70.9447 L856.4414 73.9447 L851.4414 70.9447 Z" clip-path="url(#clipPath2)" stroke="none"/>
      <path fill="none" d="M532.6246 39.9609 L532.6246 60 L1016.8499 60 L1016.8499 74.9447" clip-path="url(#clipPath2)"/>
      <path d="M1016.8499 82.9447 L1021.8499 70.9447 L1016.8499 73.9447 L1011.8499 70.9447 Z" clip-path="url(#clipPath2)" stroke="none"/>
      <path fill="none" d="M227.3626 122.9616 L227.3626 160.8777" clip-path="url(#clipPath2)"/>
      <path d="M227.3626 168.8777 L232.3626 156.8777 L227.3626 159.8777 L222.3626 156.8777 Z" clip-path="url(#clipPath2)" stroke="none"/>
      <path fill="none" d="M227.3626 208.8678 L227.3626 246.7839" clip-path="url(#clipPath2)"/>
      <path d="M227.3626 254.7839 L232.3626 242.7839 L227.3626 245.7839 L222.3626 242.7839 Z" clip-path="url(#clipPath2)" stroke="none"/>
      <path fill="none" d="M227.3626 294.7343 L227.3626 329.6978" clip-path="url(#clipPath2)"/>
      <path d="M227.3626 337.6978 L232.3626 325.6978 L227.3626 328.6978 L222.3626 325.6978 Z" clip-path="url(#clipPath2)" stroke="none"/>
      <path fill="none" d="M76.4542 122.9218 L76.4542 157.8853" clip-path="url(#clipPath2)"/>
      <path d="M76.4542 165.8853 L81.4542 153.8853 L76.4542 156.8853 L71.4542 153.8853 Z" clip-path="url(#clipPath2)" stroke="none"/>
      <path fill="none" d="M76.4542 205.8749 L76.4542 240.8384" clip-path="url(#clipPath2)"/>
      <path d="M76.4542 248.8384 L81.4542 236.8384 L76.4542 239.8384 L71.4542 236.8384 Z" clip-path="url(#clipPath2)" stroke="none"/>
      <path fill="none" d="M76.4542 288.8678 L76.4542 326.7839" clip-path="url(#clipPath2)"/>
      <path d="M76.4542 334.7839 L81.4542 322.7839 L76.4542 325.7839 L71.4542 322.7839 Z" clip-path="url(#clipPath2)" stroke="none"/>
      <path fill="none" d="M76.4542 374.7343 L76.4542 409.6978" clip-path="url(#clipPath2)"/>
      <path d="M76.4542 417.6978 L81.4542 405.6978 L76.4542 408.6978 L71.4542 405.6978 Z" clip-path="url(#clipPath2)" stroke="none"/>
      <path fill="none" d="M686.533 122.9141 L686.533 154.9303" clip-path="url(#clipPath2)"/>
      <path d="M686.533 162.9303 L691.533 150.9303 L686.533 153.9303 L681.533 150.9303 Z" clip-path="url(#clipPath2)" stroke="none"/>
      <path fill="none" d="M686.533 202.9141 L686.533 234.9303" clip-path="url(#clipPath2)"/>
      <path d="M686.533 242.9303 L691.533 230.9303 L686.533 233.9303 L681.533 230.9303 Z" clip-path="url(#clipPath2)" stroke="none"/>
      <path fill="none" d="M686.533 282.9141 L686.533 314.9303" clip-path="url(#clipPath2)"/>
      <path d="M686.533 322.9303 L691.533 310.9303 L686.533 313.9303 L681.533 310.9303 Z" clip-path="url(#clipPath2)" stroke="none"/>
      <path fill="none" d="M686.533 362.9218 L686.533 397.8853" clip-path="url(#clipPath2)"/>
      <path d="M686.533 405.8853 L691.533 393.8853 L686.533 396.8853 L681.533 393.8853 Z" clip-path="url(#clipPath2)" stroke="none"/>
      <path fill="none" d="M532.6246 122.9218 L532.6246 157.8853" clip-path="url(#clipPath2)"/>
      <path d="M532.6246 165.8853 L537.6246 153.8853 L532.6246 156.8853 L527.6246 153.8853 Z" clip-path="url(#clipPath2)" stroke="none"/>
      <path fill="none" d="M532.6246 205.8749 L532.6246 240.8384" clip-path="url(#clipPath2)"/>
      <path d="M532.6246 248.8384 L537.6246 236.8384 L532.6246 239.8384 L527.6246 236.8384 Z" clip-path="url(#clipPath2)" stroke="none"/>
      <path fill="none" d="M381.7162 122.9616 L381.7162 160.8777" clip-path="url(#clipPath2)"/>
      <path d="M381.7162 168.8777 L386.7162 156.8777 L381.7162 159.8777 L376.7162 156.8777 Z" clip-path="url(#clipPath2)" stroke="none"/>
      <path fill="none" d="M381.7162 208.8281 L381.7162 243.7916" clip-path="url(#clipPath2)"/>
      <path d="M381.7162 251.7916 L386.7162 239.7916 L381.7162 242.7916 L376.7162 239.7916 Z" clip-path="url(#clipPath2)" stroke="none"/>
      <path fill="none" d="M856.4414 122.9141 L856.4414 154.9303" clip-path="url(#clipPath2)"/>
      <path d="M856.4414 162.9303 L861.4414 150.9303 L856.4414 153.9303 L851.4414 150.9303 Z" clip-path="url(#clipPath2)" stroke="none"/>
      <path fill="none" d="M856.4414 202.9141 L856.4414 234.9303" clip-path="url(#clipPath2)"/>
      <path d="M856.4414 242.9303 L861.4414 230.9303 L856.4414 233.9303 L851.4414 230.9303 Z" clip-path="url(#clipPath2)" stroke="none"/>
      <path fill="none" d="M856.4414 282.9141 L856.4414 314.9303" clip-path="url(#clipPath2)"/>
      <path d="M856.4414 322.9303 L861.4414 310.9303 L856.4414 313.9303 L851.4414 310.9303 Z" clip-path="url(#clipPath2)" stroke="none"/>
      <path fill="none" d="M856.4414 362.9218 L856.4414 397.8853" clip-path="url(#clipPath2)"/>
      <path d="M856.4414 405.8853 L861.4414 393.8853 L856.4414 396.8853 L851.4414 393.8853 Z" clip-path="url(#clipPath2)" stroke="none"/>
      <path fill="none" d="M1016.8499 122.9141 L1016.8499 154.9303" clip-path="url(#clipPath2)"/>
      <path d="M1016.8499 162.9303 L1021.8499 150.9303 L1016.8499 153.9303 L1011.8499 150.9303 Z" clip-path="url(#clipPath2)" stroke="none"/>
      <path fill="none" d="M1016.8499 202.9218 L1016.8499 237.8853" clip-path="url(#clipPath2)"/>
      <path d="M1016.8499 245.8853 L1021.8499 233.8853 L1016.8499 236.8853 L1011.8499 233.8853 Z" clip-path="url(#clipPath2)" stroke="none"/>
    </g>
  </g>
</svg>
