<?xml version="1.0" encoding="UTF-8"?><svg xmlns="http://www.w3.org/2000/svg" xmlns:xlink="http://www.w3.org/1999/xlink" fill-opacity="1" color-rendering="auto" color-interpolation="auto" text-rendering="auto" stroke="black" stroke-linecap="square" width="935" stroke-miterlimit="10" shape-rendering="auto" stroke-opacity="1" fill="black" stroke-dasharray="none" font-weight="normal" stroke-width="1" height="1376" font-family="'Dialog'" font-style="normal" stroke-linejoin="miter" font-size="12px" stroke-dashoffset="0" image-rendering="auto">
  <!--Generated by ySVG 2.5-->
  <defs id="genericDefs"/>
  <g>
    <g fill="white" text-rendering="geometricPrecision" shape-rendering="geometricPrecision" transform="translate(-3,39)" stroke="white">
      <rect x="3" width="935" height="1376" y="-39" clip-path="url(#clipPath2)" stroke="none"/>
    </g>
    <g fill="rgb(245,245,245)" text-rendering="geometricPrecision" shape-rendering="geometricPrecision" transform="matrix(1,0,0,1,-3,39)" stroke="rgb(245,245,245)">
      <rect x="540.5024" y="722.3364" clip-path="url(#clipPath2)" width="382.2667" rx="4" ry="4" height="473.6994" stroke="none"/>
      <rect x="540.5024" y="722.3364" clip-path="url(#clipPath2)" fill="rgb(153,204,255)" width="382.2667" height="21.4609" stroke="none"/>
    </g>
    <g font-size="15px" stroke-linecap="butt" transform="matrix(1,0,0,1,-3,39)" text-rendering="geometricPrecision" font-family="sans-serif" shape-rendering="geometricPrecision" stroke-miterlimit="1.45">
      <text x="742.3584" xml:space="preserve" y="738.2597" clip-path="url(#clipPath2)" stroke="none">Research Data Services</text>
      <rect x="540.5024" y="722.3364" clip-path="url(#clipPath2)" fill="none" width="382.2667" stroke-dasharray="6,2" rx="4" ry="4" height="473.6994"/>
    </g>
    <g fill="url(#linearGradient1)" text-rendering="geometricPrecision" shape-rendering="geometricPrecision" transform="matrix(1,0,0,1,-3,39)" stroke="url(#linearGradient1)">
      <path d="M762.2623 878.7973 L906.7687 878.7973 L906.7687 918.7973 L762.2623 918.7973 Z" stroke="none" clip-path="url(#clipPath2)"/>
    </g>
    <g text-rendering="geometricPrecision" stroke-miterlimit="1.45" shape-rendering="geometricPrecision" transform="matrix(1,0,0,1,-3,39)" stroke-linecap="butt">
      <path fill="none" d="M762.2623 878.7973 L906.7687 878.7973 L906.7687 918.7973 L762.2623 918.7973 Z" clip-path="url(#clipPath2)"/>
      <text x="819.12" xml:space="preserve" y="902.9516" clip-path="url(#clipPath2)" font-family="sans-serif" stroke="none">Flask</text>
    </g>
    <g fill="url(#linearGradient2)" text-rendering="geometricPrecision" shape-rendering="geometricPrecision" transform="matrix(1,0,0,1,-3,39)" stroke="url(#linearGradient2)">
      <path d="M764.8379 758.7973 L904.1931 758.7973 L904.1931 798.7973 L764.8379 798.7973 Z" stroke="none" clip-path="url(#clipPath2)"/>
    </g>
    <g text-rendering="geometricPrecision" stroke-miterlimit="1.45" shape-rendering="geometricPrecision" transform="matrix(1,0,0,1,-3,39)" stroke-linecap="butt">
      <path fill="none" d="M764.8379 758.7973 L904.1931 758.7973 L904.1931 798.7973 L764.8379 798.7973 Z" clip-path="url(#clipPath2)"/>
      <text x="779.4081" xml:space="preserve" y="775.9672" clip-path="url(#clipPath2)" font-family="sans-serif" stroke="none">Application Server</text>
      <text x="809.2821" xml:space="preserve" y="789.936" clip-path="url(#clipPath2)" font-family="sans-serif" stroke="none">(UWSGI)</text>
    </g>
    <g fill="url(#linearGradient3)" text-rendering="geometricPrecision" shape-rendering="geometricPrecision" transform="matrix(1,0,0,1,-3,39)" stroke="url(#linearGradient3)">
      <path d="M587.7556 823.7973 L732.2619 823.7973 L732.2619 863.7973 L587.7556 863.7973 Z" stroke="none" clip-path="url(#clipPath2)"/>
    </g>
    <g text-rendering="geometricPrecision" stroke-miterlimit="1.45" shape-rendering="geometricPrecision" transform="matrix(1,0,0,1,-3,39)" stroke-linecap="butt">
      <path fill="none" d="M587.7556 823.7973 L732.2619 823.7973 L732.2619 863.7973 L587.7556 863.7973 Z" clip-path="url(#clipPath2)"/>
      <text x="622.1161" xml:space="preserve" y="847.9516" clip-path="url(#clipPath2)" font-family="sans-serif" stroke="none">Pulsar-Client</text>
    </g>
    <g text-rendering="geometricPrecision" shape-rendering="geometricPrecision" transform="matrix(1,0,0,1,840.2307,1139.4171)">
      <g clip-path="url(#clipPath3)">
        <svg xml:space="preserve" opacity="1" writing-mode="lr-tb" stop-color="rgb(0, 0, 0)" shape-rendering="auto" glyph-orientation-horizontal="0deg" color-profile="auto" lighting-color="rgb(255, 255, 255)" color="rgb(0, 0, 0)" font-weight="400" alignment-baseline="auto" font-style="normal" version="1.1" color-interpolation-filters="linearrgb" text-anchor="start" stroke-linecap="butt" color-interpolation="srgb" font-variant="normal" word-spacing="normal" fill-opacity="1" text-rendering="auto" clip-path="none" text-decoration="none" letter-spacing="normal" viewBox="-0.569 -0.349 37 59" glyph-orientation-vertical="auto" display="inline" font-size-adjust="none" overflow="hidden" fill="rgb(0, 0, 0)" font-stretch="normal" stroke-dasharray="none" stroke-miterlimit="4" stop-opacity="1" color-rendering="auto" font-size="12" pointer-events="visiblepainted" mask="none" direction="ltr" baseline-shift="baseline" enable-background="new -0.569 -0.349 37 59" fill-rule="nonzero" image-rendering="auto" stroke-dashoffset="0" width="37px" marker-end="none" clip="auto" cursor="auto" stroke="none" filter="none" visibility="visible" kerning="auto" stroke-width="1" font-family="&quot;Arial&quot;,&quot;Helvetica&quot;,sans-serif" flood-opacity="1" clip-rule="nonzero" src="none" height="59px" unicode-bidi="normal" stroke-linejoin="miter" stroke-opacity="1" flood-color="rgb(0, 0, 0)" dominant-baseline="auto" marker-start="none" x="0px" marker-mid="none" y="0px">
<defs>
<linearGradient x1="762.2623" gradientUnits="userSpaceOnUse" x2="906.7687" y1="878.7973" y2="918.7973" id="linearGradient1" spreadMethod="reflect"><stop stop-opacity="1" stop-color="rgb(232,238,247)" offset="0%"/><stop stop-opacity="1" stop-color="rgb(183,201,227)" offset="100%"/></linearGradient><linearGradient x1="764.8379" gradientUnits="userSpaceOnUse" x2="904.1931" y1="758.7973" y2="798.7973" id="linearGradient2" spreadMethod="reflect"><stop stop-opacity="1" stop-color="rgb(232,238,247)" offset="0%"/><stop stop-opacity="1" stop-color="rgb(183,201,227)" offset="100%"/></linearGradient><linearGradient x1="587.7556" gradientUnits="userSpaceOnUse" x2="732.2619" y1="823.7973" y2="863.7973" id="linearGradient3" spreadMethod="reflect"><stop stop-opacity="1" stop-color="rgb(232,238,247)" offset="0%"/><stop stop-opacity="1" stop-color="rgb(183,201,227)" offset="100%"/></linearGradient><linearGradient x1="260.5699" gradientUnits="userSpaceOnUse" x2="412.9023" y1="758.7973" y2="798.7973" id="linearGradient4" spreadMethod="reflect"><stop stop-opacity="1" stop-color="rgb(232,238,247)" offset="0%"/><stop stop-opacity="1" stop-color="rgb(183,201,227)" offset="100%"/></linearGradient><linearGradient x1="403.446" gradientUnits="userSpaceOnUse" x2="483.446" y1="221.4609" y2="261.4609" id="linearGradient5" spreadMethod="reflect"><stop stop-opacity="1" stop-color="rgb(232,238,247)" offset="0%"/><stop stop-opacity="1" stop-color="rgb(183,201,227)" offset="100%"/></linearGradient><linearGradient x1="348.446" gradientUnits="userSpaceOnUse" x2="428.446" y1="166.4609" y2="206.4609" id="linearGradient6" spreadMethod="reflect"><stop stop-opacity="1" stop-color="rgb(232,238,247)" offset="0%"/><stop stop-opacity="1" stop-color="rgb(183,201,227)" offset="100%"/></linearGradient><linearGradient x1="238.446" gradientUnits="userSpaceOnUse" x2="318.446" y1="166.4609" y2="206.4609" id="linearGradient7" spreadMethod="reflect"><stop stop-opacity="1" stop-color="rgb(232,238,247)" offset="0%"/><stop stop-opacity="1" stop-color="rgb(183,201,227)" offset="100%"/></linearGradient><linearGradient x1="20.0004" gradientUnits="userSpaceOnUse" x2="164.5067" y1="758.7973" y2="798.7973" id="linearGradient8" spreadMethod="reflect"><stop stop-opacity="1" stop-color="rgb(232,238,247)" offset="0%"/><stop stop-opacity="1" stop-color="rgb(183,201,227)" offset="100%"/></linearGradient><linearGradient x1="122.0595" gradientUnits="userSpaceOnUse" x2="266.5659" y1="1281.1337" y2="1321.1337" id="linearGradient9" spreadMethod="reflect"><stop stop-opacity="1" stop-color="rgb(232,238,247)" offset="0%"/><stop stop-opacity="1" stop-color="rgb(183,201,227)" offset="100%"/></linearGradient><clipPath clipPathUnits="userSpaceOnUse" id="clipPath1"><path d="M0 0 L935 0 L935 1376 L0 1376 L0 0 Z"/></clipPath><clipPath clipPathUnits="userSpaceOnUse" id="clipPath2"><path d="M3 -39 L938 -39 L938 1337 L3 1337 L3 -39 Z"/></clipPath><clipPath clipPathUnits="userSpaceOnUse" id="clipPath3"><path d="M-840.2307 -1139.4171 L94.7693 -1139.4171 L94.7693 236.5829 L-840.2307 236.5829 L-840.2307 -1139.4171 Z"/></clipPath><clipPath clipPathUnits="userSpaceOnUse" id="clipPath4"><path d="M-344.7319 -496.8114 L590.2681 -496.8114 L590.2681 879.1886 L-344.7319 879.1886 L-344.7319 -496.8114 Z"/></clipPath><clipPath clipPathUnits="userSpaceOnUse" id="clipPath5"><path d="M-225.8502 -26.8538 L408.3457 -26.8538 L408.3457 920.6035 L-225.8502 920.6035 L-225.8502 -26.8538 Z"/></clipPath><clipPath clipPathUnits="userSpaceOnUse" id="clipPath6"><path d="M41 1108 L41 1151 L347 1151 L347 1108 Z"/></clipPath></defs>
<linearGradient gradientTransform="matrix(1 0 0 -1 -97.6001 -161.5986)" x1="115.7744" x2="115.7743" gradientUnits="userSpaceOnUse" y1="-158.8057" y2="-219.9759" id="svg1.SVGID_1_">
	<stop offset="0" style="stop-color:#B3B3B3"/>
	<stop offset="0.164" style="stop-color:#ABABAB"/>
	<stop offset="0.4188" style="stop-color:#959595"/>
	<stop offset="0.7308" style="stop-color:#717171"/>
	<stop offset="1" style="stop-color:#4D4D4D"/>
</linearGradient>
<path fill="url(#svg1.SVGID_1_)" d="M35.79,55.773c0,1.392-1.137,2.528-2.527,2.528H3.086c-1.39,0-2.528-1.139-2.528-2.528V2.528  C0.559,1.138,1.697,0,3.086,0h30.176c1.391,0,2.527,1.138,2.527,2.528V55.773z"/>
<linearGradient gradientTransform="matrix(1 0 0 -1 -97.6001 -161.5986)" x1="115.7744" x2="115.7743" gradientUnits="userSpaceOnUse" y1="-158.8057" y2="-219.9759" id="svg1.SVGID_2_">
	<stop offset="0" style="stop-color:#B3B3B3"/>
	<stop offset="0.164" style="stop-color:#ABABAB"/>
	<stop offset="0.4188" style="stop-color:#959595"/>
	<stop offset="0.7308" style="stop-color:#717171"/>
	<stop offset="1" style="stop-color:#4D4D4D"/>
</linearGradient>
<path fill="url(#svg1.SVGID_2_)" d="M35.79,55.773c0,1.392-1.137,2.528-2.527,2.528H3.086c-1.39,0-2.528-1.139-2.528-2.528V2.528  C0.559,1.138,1.697,0,3.086,0h30.176c1.391,0,2.527,1.138,2.527,2.528V55.773z"/>
<path fill="#FFFFFF" opacity="0.19" d="M35.79,39.342L0.559,26.702V2.529c0-1.391,1.138-2.528,2.528-2.528h30.176  c1.391,0,2.527,1.138,2.527,2.528V39.342z"/>
<path fill="#353535" d="M32.868,53.717c0,1.392-1.138,2.529-2.527,2.529H11.854c-1.39,0-2.528-1.139-2.528-2.529V11.534  c0-1.39,1.138-2.528,2.528-2.528H30.34c1.391,0,2.528,1.138,2.528,2.528V53.717L32.868,53.717z"/>
<linearGradient gradientTransform="matrix(1 0 0 -1 -97.6001 -161.5986)" x1="123.9893" x2="123.9893" gradientUnits="userSpaceOnUse" y1="-171.4683" y2="-215.0464" id="svg1.SVGID_3_">
	<stop offset="0" style="stop-color:#B3B3B3"/>
	<stop offset="0.164" style="stop-color:#ABABAB"/>
	<stop offset="0.4188" style="stop-color:#959595"/>
	<stop offset="0.7308" style="stop-color:#717171"/>
	<stop offset="1" style="stop-color:#4D4D4D"/>
</linearGradient>
<path fill="url(#svg1.SVGID_3_)" d="M30.34,52.129c0,0.695-0.568,1.265-1.265,1.265h-5.371c-0.695,0-1.265-0.568-1.265-1.265V13.123  c0-0.695,0.568-1.264,1.265-1.264h5.371c0.695,0,1.265,0.569,1.265,1.264V52.129z"/>
<linearGradient gradientTransform="matrix(1 0 0 -1 -97.6001 -161.5986)" x1="113.4834" x2="113.4834" gradientUnits="userSpaceOnUse" y1="-171.4683" y2="-215.0464" id="svg1.SVGID_4_">
	<stop offset="0" style="stop-color:#B3B3B3"/>
	<stop offset="0.164" style="stop-color:#ABABAB"/>
	<stop offset="0.4188" style="stop-color:#959595"/>
	<stop offset="0.7308" style="stop-color:#717171"/>
	<stop offset="1" style="stop-color:#4D4D4D"/>
</linearGradient>
<path fill="url(#svg1.SVGID_4_)" d="M19.833,52.129c0,0.695-0.567,1.265-1.264,1.265h-5.372c-0.695,0-1.264-0.568-1.264-1.265V13.123  c0-0.695,0.569-1.264,1.264-1.264h5.372c0.695,0,1.264,0.569,1.264,1.264V52.129z"/>
<linearGradient gradientTransform="matrix(1 0 0 -1 -97.6001 -161.5986)" x1="123.9932" x2="123.9932" gradientUnits="userSpaceOnUse" y1="-215.5532" y2="-209.4927" id="svg1.SVGID_5_">
	<stop offset="0" style="stop-color:#8D8D8D"/>
	<stop offset="0.2282" style="stop-color:#858585"/>
	<stop offset="0.5829" style="stop-color:#6F6F6F"/>
	<stop offset="1" style="stop-color:#4D4D4D"/>
</linearGradient>
<rect x="23.362" fill="url(#svg1.SVGID_5_)" width="6.06" y="45.948" height="6.061"/>
<linearGradient gradientTransform="matrix(1 0 0 -1 -97.6001 -161.5986)" x1="113.4834" x2="113.4834" gradientUnits="userSpaceOnUse" y1="-215.4204" y2="-209.3599" id="svg1.SVGID_6_">
	<stop offset="0" style="stop-color:#8D8D8D"/>
	<stop offset="0.2282" style="stop-color:#858585"/>
	<stop offset="0.5829" style="stop-color:#6F6F6F"/>
	<stop offset="1" style="stop-color:#4D4D4D"/>
</linearGradient>
<rect x="12.854" fill="url(#svg1.SVGID_6_)" width="6.06" y="45.815" height="6.061"/>
<rect x="12.854" fill="#6E6E6E" width="6.06" y="24.328" height="15.014"/>
<rect x="23.36" fill="#6E6E6E" width="6.061" y="24.328" height="15.014"/>
<rect x="0.071" y="50.68" fill="#C8FF00" width="5.709" height="2.898" stroke="#717171" stroke-width="0.1416" stroke-miterlimit="10"/>
<radialGradient gradientTransform="matrix(1 0 0 -1 -97.6001 -161.5986)" id="svg1.SVGID_7_" r="3.221" cx="124.1484" gradientUnits="userSpaceOnUse" cy="-180.064">
	<stop offset="0" style="stop-color:#8D8D8D"/>
	<stop offset="0.2282" style="stop-color:#858585"/>
	<stop offset="0.5829" style="stop-color:#6F6F6F"/>
	<stop offset="1" style="stop-color:#4D4D4D"/>
</radialGradient>
<circle fill="url(#svg1.SVGID_7_)" r="2.296" cx="26.391" cy="18.307" stroke="#666666" stroke-width="0.632" stroke-miterlimit="10"/>
<radialGradient gradientTransform="matrix(1 0 0 -1 -97.6001 -161.5986)" id="svg1.SVGID_8_" r="3.2209" cx="113.6426" gradientUnits="userSpaceOnUse" cy="-180.064">
	<stop offset="0" style="stop-color:#8D8D8D"/>
	<stop offset="0.2282" style="stop-color:#858585"/>
	<stop offset="0.5829" style="stop-color:#6F6F6F"/>
	<stop offset="1" style="stop-color:#4D4D4D"/>
</radialGradient>
<circle fill="url(#svg1.SVGID_8_)" r="2.295" cx="15.885" cy="18.307" stroke="#666666" stroke-width="0.632" stroke-miterlimit="10"/>
</svg>
      </g>
    </g>
    <g text-rendering="geometricPrecision" stroke-miterlimit="1.45" shape-rendering="geometricPrecision" font-family="sans-serif" transform="matrix(1,0,0,1,-3,39)" stroke-linecap="butt">
      <text x="845.2329" xml:space="preserve" y="1176.2057" clip-path="url(#clipPath2)" stroke="none">Redis</text>
      <path fill="none" d="M834.5155 798.7973 L834.5155 870.7582" clip-path="url(#clipPath2)"/>
      <path d="M834.5155 878.7582 L839.5155 866.7582 L834.5155 869.7582 L829.5155 866.7582 Z" clip-path="url(#clipPath2)" stroke="none"/>
      <path fill="none" d="M870.6421 918.7973 L870.6423 1092.7217" clip-path="url(#clipPath2)"/>
      <path d="M870.6423 1100.7217 L875.6423 1088.7217 L870.6423 1091.7217 L865.6423 1088.7217 Z" clip-path="url(#clipPath2)" stroke="none"/>
      <text x="794.4547" xml:space="preserve" y="995.9672" clip-path="url(#clipPath2)" stroke="none">redis://6379</text>
      <path fill="none" d="M696.1353 863.7973 L696.1353 944.2973 L742.454 944.2973 L742.454 1075.2661 L852.7474 1075.2661 L852.7474 1092.7163" clip-path="url(#clipPath2)"/>
      <path d="M852.7474 1100.7163 L857.7474 1088.7163 L852.7474 1091.7163 L847.7474 1088.7163 Z" clip-path="url(#clipPath2)" stroke="none"/>
      <text x="666.2665" xml:space="preserve" y="995.436" clip-path="url(#clipPath2)" stroke="none">redis://6379</text>
    </g>
    <g fill="rgb(245,245,245)" text-rendering="geometricPrecision" shape-rendering="geometricPrecision" transform="matrix(1,0,0,1,-3,39)" stroke="rgb(245,245,245)">
      <rect x="194.5071" y="348.3984" clip-path="url(#clipPath2)" width="315.9952" rx="4" ry="4" height="465.3989" stroke="none"/>
      <rect x="194.5071" y="348.3984" clip-path="url(#clipPath2)" fill="aqua" width="315.9952" height="21.4609" stroke="none"/>
    </g>
    <g font-size="15px" stroke-linecap="butt" transform="matrix(1,0,0,1,-3,39)" text-rendering="geometricPrecision" font-family="sans-serif" shape-rendering="geometricPrecision" stroke-miterlimit="1.45">
      <text x="400.624" xml:space="preserve" y="364.3218" clip-path="url(#clipPath2)" stroke="none">Reverse Proxy</text>
      <rect x="194.5071" y="348.3984" clip-path="url(#clipPath2)" fill="none" width="315.9952" stroke-dasharray="6,2" rx="4" ry="4" height="465.3989"/>
    </g>
    <g text-rendering="geometricPrecision" shape-rendering="geometricPrecision" transform="matrix(1,0,0,1,344.7319,496.8114)">
      <g clip-path="url(#clipPath4)">
        <svg xml:space="preserve" opacity="1" writing-mode="lr-tb" stop-color="rgb(0, 0, 0)" shape-rendering="auto" glyph-orientation-horizontal="0deg" color-profile="auto" lighting-color="rgb(255, 255, 255)" color="rgb(0, 0, 0)" font-weight="400" alignment-baseline="auto" font-style="normal" version="1.1" color-interpolation-filters="linearrgb" text-anchor="start" stroke-linecap="butt" color-interpolation="srgb" font-variant="normal" word-spacing="normal" fill-opacity="1" text-rendering="auto" clip-path="none" text-decoration="none" letter-spacing="normal" viewBox="-0.569 -0.349 37 59" glyph-orientation-vertical="auto" display="inline" font-size-adjust="none" overflow="hidden" fill="rgb(0, 0, 0)" font-stretch="normal" stroke-dasharray="none" stroke-miterlimit="4" stop-opacity="1" color-rendering="auto" font-size="12" pointer-events="visiblepainted" mask="none" direction="ltr" baseline-shift="baseline" enable-background="new -0.569 -0.349 37 59" fill-rule="nonzero" image-rendering="auto" stroke-dashoffset="0" width="37px" marker-end="none" clip="auto" cursor="auto" stroke="none" filter="none" visibility="visible" kerning="auto" stroke-width="1" font-family="&quot;Arial&quot;,&quot;Helvetica&quot;,sans-serif" flood-opacity="1" clip-rule="nonzero" src="none" height="59px" unicode-bidi="normal" stroke-linejoin="miter" stroke-opacity="1" flood-color="rgb(0, 0, 0)" dominant-baseline="auto" marker-start="none" x="0px" marker-mid="none" y="0px">
<defs>
</defs>
<linearGradient gradientTransform="matrix(1 0 0 -1 -97.6001 -161.5986)" x1="115.7744" x2="115.7743" gradientUnits="userSpaceOnUse" y1="-158.8057" y2="-219.9759" id="svg2.SVGID_1_">
	<stop offset="0" style="stop-color:#B3B3B3"/>
	<stop offset="0.164" style="stop-color:#ABABAB"/>
	<stop offset="0.4188" style="stop-color:#959595"/>
	<stop offset="0.7308" style="stop-color:#717171"/>
	<stop offset="1" style="stop-color:#4D4D4D"/>
</linearGradient>
<path fill="url(#svg2.SVGID_1_)" d="M35.79,55.773c0,1.392-1.137,2.528-2.527,2.528H3.086c-1.39,0-2.528-1.139-2.528-2.528V2.528  C0.559,1.138,1.697,0,3.086,0h30.176c1.391,0,2.527,1.138,2.527,2.528V55.773z"/>
<linearGradient gradientTransform="matrix(1 0 0 -1 -97.6001 -161.5986)" x1="115.7744" x2="115.7743" gradientUnits="userSpaceOnUse" y1="-158.8057" y2="-219.9759" id="svg2.SVGID_2_">
	<stop offset="0" style="stop-color:#B3B3B3"/>
	<stop offset="0.164" style="stop-color:#ABABAB"/>
	<stop offset="0.4188" style="stop-color:#959595"/>
	<stop offset="0.7308" style="stop-color:#717171"/>
	<stop offset="1" style="stop-color:#4D4D4D"/>
</linearGradient>
<path fill="url(#svg2.SVGID_2_)" d="M35.79,55.773c0,1.392-1.137,2.528-2.527,2.528H3.086c-1.39,0-2.528-1.139-2.528-2.528V2.528  C0.559,1.138,1.697,0,3.086,0h30.176c1.391,0,2.527,1.138,2.527,2.528V55.773z"/>
<path fill="#FFFFFF" opacity="0.19" d="M35.79,39.342L0.559,26.702V2.529c0-1.391,1.138-2.528,2.528-2.528h30.176  c1.391,0,2.527,1.138,2.527,2.528V39.342z"/>
<path fill="#353535" d="M32.868,53.717c0,1.392-1.138,2.529-2.527,2.529H11.854c-1.39,0-2.528-1.139-2.528-2.529V11.534  c0-1.39,1.138-2.528,2.528-2.528H30.34c1.391,0,2.528,1.138,2.528,2.528V53.717L32.868,53.717z"/>
<linearGradient gradientTransform="matrix(1 0 0 -1 -97.6001 -161.5986)" x1="123.9893" x2="123.9893" gradientUnits="userSpaceOnUse" y1="-171.4683" y2="-215.0464" id="svg2.SVGID_3_">
	<stop offset="0" style="stop-color:#B3B3B3"/>
	<stop offset="0.164" style="stop-color:#ABABAB"/>
	<stop offset="0.4188" style="stop-color:#959595"/>
	<stop offset="0.7308" style="stop-color:#717171"/>
	<stop offset="1" style="stop-color:#4D4D4D"/>
</linearGradient>
<path fill="url(#svg2.SVGID_3_)" d="M30.34,52.129c0,0.695-0.568,1.265-1.265,1.265h-5.371c-0.695,0-1.265-0.568-1.265-1.265V13.123  c0-0.695,0.568-1.264,1.265-1.264h5.371c0.695,0,1.265,0.569,1.265,1.264V52.129z"/>
<linearGradient gradientTransform="matrix(1 0 0 -1 -97.6001 -161.5986)" x1="113.4834" x2="113.4834" gradientUnits="userSpaceOnUse" y1="-171.4683" y2="-215.0464" id="svg2.SVGID_4_">
	<stop offset="0" style="stop-color:#B3B3B3"/>
	<stop offset="0.164" style="stop-color:#ABABAB"/>
	<stop offset="0.4188" style="stop-color:#959595"/>
	<stop offset="0.7308" style="stop-color:#717171"/>
	<stop offset="1" style="stop-color:#4D4D4D"/>
</linearGradient>
<path fill="url(#svg2.SVGID_4_)" d="M19.833,52.129c0,0.695-0.567,1.265-1.264,1.265h-5.372c-0.695,0-1.264-0.568-1.264-1.265V13.123  c0-0.695,0.569-1.264,1.264-1.264h5.372c0.695,0,1.264,0.569,1.264,1.264V52.129z"/>
<linearGradient gradientTransform="matrix(1 0 0 -1 -97.6001 -161.5986)" x1="123.9932" x2="123.9932" gradientUnits="userSpaceOnUse" y1="-215.5532" y2="-209.4927" id="svg2.SVGID_5_">
	<stop offset="0" style="stop-color:#8D8D8D"/>
	<stop offset="0.2282" style="stop-color:#858585"/>
	<stop offset="0.5829" style="stop-color:#6F6F6F"/>
	<stop offset="1" style="stop-color:#4D4D4D"/>
</linearGradient>
<rect x="23.362" fill="url(#svg2.SVGID_5_)" width="6.06" y="45.948" height="6.061"/>
<linearGradient gradientTransform="matrix(1 0 0 -1 -97.6001 -161.5986)" x1="113.4834" x2="113.4834" gradientUnits="userSpaceOnUse" y1="-215.4204" y2="-209.3599" id="svg2.SVGID_6_">
	<stop offset="0" style="stop-color:#8D8D8D"/>
	<stop offset="0.2282" style="stop-color:#858585"/>
	<stop offset="0.5829" style="stop-color:#6F6F6F"/>
	<stop offset="1" style="stop-color:#4D4D4D"/>
</linearGradient>
<rect x="12.854" fill="url(#svg2.SVGID_6_)" width="6.06" y="45.815" height="6.061"/>
<rect x="12.854" fill="#6E6E6E" width="6.06" y="24.328" height="15.014"/>
<rect x="23.36" fill="#6E6E6E" width="6.061" y="24.328" height="15.014"/>
<rect x="0.071" y="50.68" fill="#C8FF00" width="5.709" height="2.898" stroke="#717171" stroke-width="0.1416" stroke-miterlimit="10"/>
<radialGradient gradientTransform="matrix(1 0 0 -1 -97.6001 -161.5986)" id="svg2.SVGID_7_" r="3.221" cx="124.1484" gradientUnits="userSpaceOnUse" cy="-180.064">
	<stop offset="0" style="stop-color:#8D8D8D"/>
	<stop offset="0.2282" style="stop-color:#858585"/>
	<stop offset="0.5829" style="stop-color:#6F6F6F"/>
	<stop offset="1" style="stop-color:#4D4D4D"/>
</radialGradient>
<circle fill="url(#svg2.SVGID_7_)" r="2.296" cx="26.391" cy="18.307" stroke="#666666" stroke-width="0.632" stroke-miterlimit="10"/>
<radialGradient gradientTransform="matrix(1 0 0 -1 -97.6001 -161.5986)" id="svg2.SVGID_8_" r="3.2209" cx="113.6426" gradientUnits="userSpaceOnUse" cy="-180.064">
	<stop offset="0" style="stop-color:#8D8D8D"/>
	<stop offset="0.2282" style="stop-color:#858585"/>
	<stop offset="0.5829" style="stop-color:#6F6F6F"/>
	<stop offset="1" style="stop-color:#4D4D4D"/>
</radialGradient>
<circle fill="url(#svg2.SVGID_8_)" r="2.295" cx="15.885" cy="18.307" stroke="#666666" stroke-width="0.632" stroke-miterlimit="10"/>
</svg>
      </g>
    </g>
    <g text-rendering="geometricPrecision" stroke-miterlimit="1.45" shape-rendering="geometricPrecision" font-family="sans-serif" transform="matrix(1,0,0,1,-3,39)" stroke-linecap="butt">
      <text x="339.1492" xml:space="preserve" y="533.6" clip-path="url(#clipPath2)" stroke="none">Frontend</text>
      <text x="342.0085" xml:space="preserve" y="547.5688" clip-path="url(#clipPath2)" stroke="none">(NGINX)</text>
    </g>
    <g fill="url(#linearGradient4)" text-rendering="geometricPrecision" shape-rendering="geometricPrecision" transform="matrix(1,0,0,1,-3,39)" stroke="url(#linearGradient4)">
      <path d="M260.5699 758.7973 L412.9023 758.7973 L412.9023 798.7973 L260.5699 798.7973 Z" stroke="none" clip-path="url(#clipPath2)"/>
    </g>
    <g text-rendering="geometricPrecision" stroke-miterlimit="1.45" shape-rendering="geometricPrecision" transform="matrix(1,0,0,1,-3,39)" stroke-linecap="butt">
      <path fill="none" d="M260.5699 758.7973 L412.9023 758.7973 L412.9023 798.7973 L260.5699 798.7973 Z" clip-path="url(#clipPath2)"/>
      <text x="286.2547" xml:space="preserve" y="775.9672" clip-path="url(#clipPath2)" font-family="sans-serif" stroke="none">Asset Repository</text>
      <text x="265.8465" xml:space="preserve" y="789.936" clip-path="url(#clipPath2)" font-family="sans-serif" stroke="none">[HTML, CSS, JavaScript]</text>
    </g>
    <g fill="rgb(255,204,0)" text-rendering="geometricPrecision" shape-rendering="geometricPrecision" transform="matrix(1,0,0,1,-3,39)" stroke="rgb(255,204,0)">
      <path d="M210.5073 394.0099 L336.1958 394.0099 L336.1958 409.0099 L351.1958 409.0099 L351.1958 434.0099 L210.5073 434.0099 Z" stroke="none" clip-path="url(#clipPath2)"/>
      <path fill="white" d="M336.1958 394.0099 L336.1958 409.0099 L351.1958 409.0099 Z" clip-path="url(#clipPath2)" fill-rule="evenodd" stroke="none"/>
    </g>
    <g text-rendering="geometricPrecision" stroke-miterlimit="1.45" shape-rendering="geometricPrecision" transform="matrix(1,0,0,1,-3,39)" stroke-linecap="butt">
      <path fill="none" d="M210.5073 394.0099 L336.1958 394.0099 L336.1958 409.0099 L351.1958 409.0099 L351.1958 434.0099 L210.5073 434.0099 Z" clip-path="url(#clipPath2)"/>
      <path fill="none" d="M336.1958 394.0099 L336.1958 409.0099 L351.1958 409.0099 Z" clip-path="url(#clipPath2)" fill-rule="evenodd"/>
      <text x="263.2676" xml:space="preserve" y="418.1642" clip-path="url(#clipPath2)" font-family="sans-serif" stroke="none">RDPM</text>
      <path fill="none" d="M378.126 516.4614 L378.126 577.8989 L494.5021 577.8989 L494.5021 696.8364 L834.5155 696.8364 L834.5155 750.767" clip-path="url(#clipPath2)"/>
      <path d="M834.5155 758.767 L839.5155 746.767 L834.5155 749.767 L829.5155 746.767 Z" clip-path="url(#clipPath2)" stroke="none"/>
      <text x="370.2648" xml:space="preserve" y="634.5375" clip-path="url(#clipPath2)" font-family="sans-serif" stroke="none">/api:uwsgi://3031</text>
      <text x="353.7091" xml:space="preserve" y="648.5063" clip-path="url(#clipPath2)" font-family="sans-serif" stroke="none">/frontend:uwsgi://9191</text>
      <path fill="none" d="M366.196 516.4614 L366.196 603.8989 L336.7362 603.8989 L336.7361 750.7595" clip-path="url(#clipPath2)"/>
      <path d="M336.7361 758.7595 L341.7361 746.7595 L336.7361 749.7595 L331.7361 746.7595 Z" clip-path="url(#clipPath2)" stroke="none"/>
      <text x="328.6932" xml:space="preserve" y="665.2143" clip-path="url(#clipPath2)" font-family="sans-serif" stroke="none">/</text>
    </g>
    <g fill="rgb(245,245,245)" text-rendering="geometricPrecision" shape-rendering="geometricPrecision" transform="matrix(1,0,0,1,-3,39)" stroke="rgb(245,245,245)">
      <rect x="222.446" y="130" clip-path="url(#clipPath2)" width="277" rx="4" ry="4" height="146.4609" stroke="none"/>
      <rect x="222.446" y="130" clip-path="url(#clipPath2)" fill="rgb(204,255,255)" width="277" height="21.4609" stroke="none"/>
    </g>
    <g font-size="15px" stroke-linecap="butt" transform="matrix(1,0,0,1,-3,39)" text-rendering="geometricPrecision" font-family="sans-serif" shape-rendering="geometricPrecision" stroke-miterlimit="1.45">
      <text x="379.3943" xml:space="preserve" y="145.9233" clip-path="url(#clipPath2)" stroke="none">Konnektoren zu</text>
      <rect x="222.446" y="130" clip-path="url(#clipPath2)" fill="none" width="277" stroke-dasharray="6,2" rx="4" ry="4" height="146.4609"/>
    </g>
    <g fill="url(#linearGradient5)" text-rendering="geometricPrecision" shape-rendering="geometricPrecision" transform="matrix(1,0,0,1,-3,39)" stroke="url(#linearGradient5)">
      <path d="M403.446 221.4609 L483.446 221.4609 L483.446 261.4609 L403.446 261.4609 Z" stroke="none" clip-path="url(#clipPath2)"/>
    </g>
    <g text-rendering="geometricPrecision" stroke-miterlimit="1.45" shape-rendering="geometricPrecision" transform="matrix(1,0,0,1,-3,39)" stroke-linecap="butt">
      <path fill="none" d="M403.446 221.4609 L483.446 221.4609 L483.446 261.4609 L403.446 261.4609 Z" clip-path="url(#clipPath2)"/>
      <text x="412.8748" xml:space="preserve" y="245.6152" clip-path="url(#clipPath2)" font-family="sans-serif" stroke="none">OwnCloud</text>
    </g>
    <g fill="url(#linearGradient6)" text-rendering="geometricPrecision" shape-rendering="geometricPrecision" transform="matrix(1,0,0,1,-3,39)" stroke="url(#linearGradient6)">
      <path d="M348.446 166.4609 L428.446 166.4609 L428.446 206.4609 L348.446 206.4609 Z" stroke="none" clip-path="url(#clipPath2)"/>
    </g>
    <g text-rendering="geometricPrecision" stroke-miterlimit="1.45" shape-rendering="geometricPrecision" transform="matrix(1,0,0,1,-3,39)" stroke-linecap="butt">
      <path fill="none" d="M348.446 166.4609 L428.446 166.4609 L428.446 206.4609 L348.446 206.4609 Z" clip-path="url(#clipPath2)"/>
      <text x="368.1316" xml:space="preserve" y="190.6152" clip-path="url(#clipPath2)" font-family="sans-serif" stroke="none">Seafile</text>
    </g>
    <g fill="url(#linearGradient7)" text-rendering="geometricPrecision" shape-rendering="geometricPrecision" transform="matrix(1,0,0,1,-3,39)" stroke="url(#linearGradient7)">
      <path d="M238.446 166.4609 L318.446 166.4609 L318.446 206.4609 L238.446 206.4609 Z" stroke="none" clip-path="url(#clipPath2)"/>
    </g>
    <g text-rendering="geometricPrecision" stroke-miterlimit="1.45" shape-rendering="geometricPrecision" transform="matrix(1,0,0,1,-3,39)" stroke-linecap="butt">
      <path fill="none" d="M238.446 166.4609 L318.446 166.4609 L318.446 206.4609 L238.446 206.4609 Z" clip-path="url(#clipPath2)"/>
      <text x="248.115" xml:space="preserve" y="190.6152" clip-path="url(#clipPath2)" font-family="sans-serif" stroke="none">Nextcloud</text>
    </g>
    <g text-rendering="geometricPrecision" shape-rendering="geometricPrecision" transform="matrix(1.4743,0,0,1.4523,332.9727,39)">
      <g clip-path="url(#clipPath5)">
        <svg xmlns:svg="http://www.w3.org/2000/svg" xmlns:sodipodi="http://sodipodi.sourceforge.net/DTD/sodipodi-0.dtd" xmlns:inkscape="http://www.inkscape.org/namespaces/inkscape" xmlns:dc="http://purl.org/dc/elements/1.1/" xmlns:cc="http://web.resource.org/cc/" xmlns:rdf="http://www.w3.org/1999/02/22-rdf-syntax-ns#" opacity="1" writing-mode="lr-tb" stop-color="rgb(0, 0, 0)" shape-rendering="auto" glyph-orientation-horizontal="0deg" color-profile="auto" lighting-color="rgb(255, 255, 255)" color="rgb(0, 0, 0)" font-weight="400" alignment-baseline="auto" font-style="normal" version="1.0" color-interpolation-filters="linearrgb" text-anchor="start" stroke-linecap="butt" color-interpolation="srgb" font-variant="normal" word-spacing="normal" fill-opacity="1" text-rendering="auto" clip-path="none" text-decoration="none" letter-spacing="normal" glyph-orientation-vertical="auto" display="inline" font-size-adjust="none" overflow="hidden" fill="rgb(0, 0, 0)" font-stretch="normal" stroke-dasharray="none" inkscape:version="0.45.1" id="svg3.svg2" stroke-miterlimit="4" stop-opacity="1" color-rendering="auto" font-size="12" sodipodi:docbase="C:\Daten\alberts\projects\yfx" pointer-events="visiblepainted" mask="none" direction="ltr" baseline-shift="baseline" sodipodi:docname="uml_actor.svg" enable-background="accumulate" fill-rule="nonzero" image-rendering="auto" stroke-dashoffset="0" inkscape:output_extension="org.inkscape.output.svg.inkscape" marker-end="none" width="41" clip="auto" cursor="auto" stroke="none" filter="none" visibility="visible" kerning="auto" stroke-width="1" font-family="&quot;Arial&quot;,&quot;Helvetica&quot;,sans-serif" flood-opacity="1" clip-rule="nonzero" src="none" height="68.997391" unicode-bidi="normal" sodipodi:version="0.32" stroke-linejoin="miter" stroke-opacity="1" flood-color="rgb(0, 0, 0)" dominant-baseline="auto" marker-start="none" marker-mid="none">
            
          <defs id="svg3.defs4"/>
            
  
          <metadata id="svg3.metadata7">
    
  </metadata>
            
          <g inkscape:groupmode="layer" id="svg3.layer1" transform="translate(-29.5,-42.959476)" inkscape:label="Ebene 1">
                
            <a id="svg3.a3142" transform="matrix(1.0873906,0,0,1,-4.4741999,0)">
                    
              <path transform="translate(11.586889,5.2908993)" style="fill:none;fill-rule:evenodd;stroke:#000000;stroke-width:1px;stroke-linecap:butt;stroke-linejoin:miter;stroke-opacity:1" sodipodi:cx="38.509369" sodipodi:cy="47.36993" sodipodi:rx="8.5197716" id="svg3.path2160" d="M 47.02914 47.36993 A 8.5197716 9.2013531 0 1 1  29.989597,47.36993 A 8.5197716 9.2013531 0 1 1  47.02914 47.36993 z" sodipodi:ry="9.2013531" sodipodi:type="arc"/>
                  
            </a>
                
            <path style="fill:none" sodipodi:cx="43.962021" sodipodi:cy="48.392303" d="M 47.71072 48.392303 A 3.7486994 0 0 1 1  40.213321,48.392303 A 3.7486994 0 0 1 1  47.71072 48.392303 z" id="svg3.path3134" sodipodi:rx="3.7486994" sodipodi:ry="0" sodipodi:type="arc"/>
                
            <path style="fill:none;fill-rule:evenodd;stroke:#000000;stroke-width:1.24319649px;stroke-linecap:butt;stroke-linejoin:miter;stroke-opacity:1" d="M 50,61.33709 C 50,91.363211 50,92.247838 50,92.247838" id="svg3.path3136"/>
                
            <path style="fill:none;fill-rule:evenodd;stroke:#000000;stroke-width:1px;stroke-linecap:butt;stroke-linejoin:miter;stroke-opacity:1" d="M 69.760668,72.362183 C 69.760668,72.362183 69.760668,72.362183 50.239332,72.362183 C 30.239332,72.362183 30.239332,72.362183 30.239332,72.362183 L 30.239332,72.362183" id="svg3.path3138"/>
                
            <path style="fill:none;fill-rule:evenodd;stroke:#000000;stroke-width:1px;stroke-linecap:butt;stroke-linejoin:miter;stroke-opacity:1" d="M 30,111.45687 C 30,111.45687 30,111.45687 50,92.013532 C 70,111.45687 70,111.45687 70,111.45687" id="svg3.path3140"/>
              
          </g>
          
        </svg>
      </g>
    </g>
    <g font-size="13px" stroke-linecap="butt" transform="matrix(1,0,0,1,-3,39)" text-rendering="geometricPrecision" font-family="sans-serif" shape-rendering="geometricPrecision" stroke-miterlimit="1.45">
      <text x="348.978" xml:space="preserve" y="-9.0659" clip-path="url(#clipPath2)" stroke="none">Actor</text>
    </g>
    <g fill="rgb(255,153,0)" text-rendering="geometricPrecision" shape-rendering="geometricPrecision" transform="matrix(1,0,0,1,-3,39)" stroke="rgb(255,153,0)">
      <rect x="42" width="304" height="41" y="1109" clip-path="url(#clipPath2)" stroke="none"/>
      <rect x="41" y="1108" clip-path="url(#clipPath2)" fill="rgb(255,218,0)" width="1" height="43" stroke="none"/>
      <rect x="42" y="1108" clip-path="url(#clipPath2)" fill="rgb(255,218,0)" width="304" height="1" stroke="none"/>
      <rect x="42" y="1150" clip-path="url(#clipPath2)" fill="rgb(178,107,0)" width="305" height="1" stroke="none"/>
      <rect x="346" y="1108" clip-path="url(#clipPath2)" fill="rgb(178,107,0)" width="1" height="42" stroke="none"/>
    </g>
    <g font-size="28px" stroke-linecap="butt" transform="matrix(1,0,0,1,-3,39)" text-rendering="geometricPrecision" font-family="sans-serif" shape-rendering="geometricPrecision" font-weight="bold" stroke-miterlimit="1.45">
      <text x="67.4787" xml:space="preserve" y="1139.3315" clip-path="url(#clipPath6)" stroke="none">Message Broker</text>
    </g>
    <g fill="url(#linearGradient8)" text-rendering="geometricPrecision" shape-rendering="geometricPrecision" transform="matrix(1,0,0,1,-3,39)" stroke="url(#linearGradient8)">
      <path d="M20.0004 758.7973 L164.5067 758.7973 L164.5067 798.7973 L20.0004 798.7973 Z" stroke="none" clip-path="url(#clipPath2)"/>
    </g>
    <g text-rendering="geometricPrecision" stroke-miterlimit="1.45" shape-rendering="geometricPrecision" transform="matrix(1,0,0,1,-3,39)" stroke-linecap="butt">
      <path fill="none" d="M20.0004 758.7973 L164.5067 758.7973 L164.5067 798.7973 L20.0004 798.7973 Z" clip-path="url(#clipPath2)"/>
      <text x="39.3317" xml:space="preserve" y="782.9516" clip-path="url(#clipPath2)" font-family="sans-serif" stroke="none">Pulsar Dashboard</text>
    </g>
    <g fill="url(#linearGradient9)" text-rendering="geometricPrecision" shape-rendering="geometricPrecision" transform="matrix(1,0,0,1,-3,39)" stroke="url(#linearGradient9)">
      <path d="M122.0595 1281.1337 L266.5659 1281.1337 L266.5659 1321.1337 L122.0595 1321.1337 Z" stroke="none" clip-path="url(#clipPath2)"/>
    </g>
    <g text-rendering="geometricPrecision" stroke-miterlimit="1.45" shape-rendering="geometricPrecision" transform="matrix(1,0,0,1,-3,39)" stroke-linecap="butt">
      <path fill="none" d="M122.0595 1281.1337 L266.5659 1281.1337 L266.5659 1321.1337 L122.0595 1321.1337 Z" clip-path="url(#clipPath2)"/>
      <text x="152.6379" xml:space="preserve" y="1298.3036" clip-path="url(#clipPath2)" font-family="sans-serif" stroke="none">Service-Timer</text>
      <text x="124.343" xml:space="preserve" y="1312.2723" clip-path="url(#clipPath2)" font-family="sans-serif" stroke="none">(sample microservices)</text>
    </g>
    <g text-rendering="geometricPrecision" stroke-miterlimit="1.45" shape-rendering="geometricPrecision" transform="matrix(1,0,0,1,-3,39)" stroke-linecap="butt">
      <path fill="none" d="M366.196 276.4609 L366.196 450.116" clip-path="url(#clipPath2)"/>
      <path d="M366.196 458.116 L371.196 446.116 L366.196 449.116 L361.196 446.116 Z" clip-path="url(#clipPath2)" stroke="none"/>
      <text x="299.1785" xml:space="preserve" y="299.7246" clip-path="url(#clipPath2)" font-family="sans-serif" stroke="none">http://:80</text>
      <text x="292.2351" xml:space="preserve" y="313.6934" clip-path="url(#clipPath2)" font-family="sans-serif" stroke="none">https://:443</text>
      <path fill="none" d="M366.196 100.0293 L366.196 121.9707" clip-path="url(#clipPath2)"/>
      <path d="M366.196 129.9707 L371.196 117.9707 L366.196 120.9707 L361.196 117.9707 Z" clip-path="url(#clipPath2)" stroke="none"/>
      <path fill="none" d="M623.8821 863.7973 L623.8821 889.2973 L640.2664 889.2973 L640.2664 1023.2661 L194.3127 1023.2661 L194.3127 1100.2998" clip-path="url(#clipPath2)"/>
      <path d="M194.3127 1108.2998 L199.3127 1096.2998 L194.3127 1099.2998 L189.3127 1096.2998 Z" clip-path="url(#clipPath2)" stroke="none"/>
      <text x="556.5027" xml:space="preserve" y="998.436" clip-path="url(#clipPath2)" font-family="sans-serif" stroke="none">pulsar://6650</text>
      <path fill="none" d="M354.2661 516.4614 L354.2661 577.8989 L315.7632 577.8989 L315.7632 696.8364 L92.2536 696.8364 L92.2536 750.767" clip-path="url(#clipPath2)"/>
      <path d="M92.2536 758.767 L97.2536 746.767 L92.2536 749.767 L87.2536 746.767 Z" clip-path="url(#clipPath2)" stroke="none"/>
      <text x="214.5504" xml:space="preserve" y="658.0167" clip-path="url(#clipPath2)" font-family="sans-serif" stroke="none">/pulsar:http://80</text>
      <path fill="none" d="M92.2536 798.7973 L92.2535 1100.3035" clip-path="url(#clipPath2)"/>
      <path d="M92.2535 1108.3035 L97.2535 1096.3035 L92.2535 1099.3035 L87.2535 1096.3035 Z" clip-path="url(#clipPath2)" stroke="none"/>
      <text x="20.9527" xml:space="preserve" y="991.6393" clip-path="url(#clipPath2)" font-family="sans-serif" stroke="none">http://8080</text>
      <path fill="none" d="M194.3127 1281.111 L194.3127 1159.5105" clip-path="url(#clipPath2)"/>
      <path d="M194.3127 1151.5105 L189.3127 1163.5105 L194.3127 1160.5105 L199.3127 1163.5105 Z" clip-path="url(#clipPath2)" stroke="none"/>
      <text x="208.7589" xml:space="preserve" y="1217.3279" clip-path="url(#clipPath2)" font-family="sans-serif" stroke="none">pulsar://6650</text>
    </g>
  </g>
</svg>
