<?xml version="1.0" encoding="UTF-8" standalone="no"?>
<svg
   xmlns:dc="http://purl.org/dc/elements/1.1/"
   xmlns:cc="http://creativecommons.org/ns#"
   xmlns:rdf="http://www.w3.org/1999/02/22-rdf-syntax-ns#"
   xmlns:svg="http://www.w3.org/2000/svg"
   xmlns="http://www.w3.org/2000/svg"
   xmlns:sodipodi="http://sodipodi.sourceforge.net/DTD/sodipodi-0.dtd"
   xmlns:inkscape="http://www.inkscape.org/namespaces/inkscape"
   version="1.0"
   width="7.9294477pt"
   height="11.99991pt"
   viewBox="0 0 7.9294477 11.99991"
   preserveAspectRatio="xMidYMid meet"
   id="svg157"
   sodipodi:docname="research-white.svg"
   inkscape:version="1.0beta2 (unknown)">
  <defs
     id="defs161" />
  <sodipodi:namedview
     pagecolor="#ffffff"
     bordercolor="#666666"
     inkscape:document-rotation="0"
     borderopacity="1"
     objecttolerance="10"
     gridtolerance="10"
     guidetolerance="10"
     inkscape:pageopacity="0"
     inkscape:pageshadow="2"
     inkscape:window-width="2512"
     inkscape:window-height="1355"
     id="namedview159"
     showgrid="false"
     showguides="true"
     inkscape:zoom="19.158175"
     inkscape:cx="13.292942"
     inkscape:cy="-4.6983949"
     inkscape:window-x="0"
     inkscape:window-y="0"
     inkscape:window-maximized="1"
     inkscape:current-layer="svg157" />
  <metadata
     id="metadata147">
Created by potrace 1.15, written by Peter Selinger 2001-2017
<rdf:RDF>
  <cc:Work
     rdf:about="">
    <dc:format>image/svg+xml</dc:format>
    <dc:type
       rdf:resource="http://purl.org/dc/dcmitype/StillImage" />
    <dc:title></dc:title>
  </cc:Work>
</rdf:RDF>
</metadata>
  <g
     transform="translate(-126.0059,-103.61382)"
     id="g38">
    <path
       style="fill:#ffffff;stroke-width:0.0104167"
       d="m 126.57585,110.96523 c -0.0501,-0.0813 -0.2317,-0.51533 -0.37147,-0.88789 -0.10469,-0.27907 -0.16435,-0.46369 -0.18343,-0.56764 -0.0198,-0.10807 -0.0202,-0.77035 -4.2e-4,-0.89583 0.0522,-0.33184 0.21159,-0.71348 0.40949,-0.98039 0.18924,-0.25523 0.4495,-0.46807 0.80258,-0.65635 0.3708,-0.19772 0.42853,-0.23334 0.46268,-0.28547 0.0223,-0.034 0.0219,-0.0354 -0.11578,-0.39029 -0.20585,-0.53069 -0.29685,-0.79934 -0.29685,-0.87634 0,-0.0326 0.007,-0.0447 0.0443,-0.0767 0.0243,-0.0209 0.0922,-0.0638 0.15084,-0.0953 0.0586,-0.0315 0.11603,-0.0693 0.1276,-0.084 0.0291,-0.037 0.0278,-0.11033 -0.003,-0.16456 -0.0224,-0.0396 -0.0263,-0.0418 -0.0793,-0.0449 -0.046,-0.003 -0.0864,0.007 -0.23012,0.0571 -0.1982,0.0686 -0.18595,0.0697 -0.24593,-0.0238 -0.0509,-0.0795 -0.18404,-0.35054 -0.22357,-0.45532 -0.0259,-0.0687 -0.032,-0.0962 -0.0239,-0.10891 0.0375,-0.0594 0.13766,-0.10824 0.78548,-0.38263 0.67362,-0.28532 1.05805,-0.43219 1.13121,-0.43219 0.10956,0 0.29898,0.33895 0.30023,0.53723 4.1e-4,0.0648 -0.003,0.0783 -0.0282,0.11134 -0.0158,0.0207 -0.0643,0.0602 -0.10781,0.0878 -0.1333,0.0845 -0.13955,0.0912 -0.13955,0.15053 0,0.0507 0.0181,0.10052 0.0497,0.13658 0.0199,0.0227 0.0774,0.0235 0.16694,0.002 0.0361,-0.009 0.12016,-0.0203 0.18679,-0.0261 l 0.12114,-0.0106 0.0355,0.0341 c 0.0195,0.0187 0.0558,0.0763 0.0807,0.12803 0.0952,0.19761 0.90796,2.20285 1.11027,2.73937 l 0.0707,0.1875 -0.0541,0.0245 c -0.0298,0.0135 -0.2517,0.10359 -0.49318,0.2002 -1.27309,0.50934 -1.46007,0.57153 -1.53628,0.51098 -0.0161,-0.0128 -0.0458,-0.0637 -0.0719,-0.12356 -0.0754,-0.17244 -0.10683,-0.21123 -0.17083,-0.21097 -0.13228,5.5e-4 -0.5102,0.23042 -0.64236,0.39072 -0.15152,0.18377 -0.23016,0.49338 -0.17737,0.69827 0.0397,0.15428 0.14955,0.45463 0.36507,0.99867 0.0521,0.13138 0.0946,0.24441 0.0946,0.25118 0,0.0211 -0.11215,0.0634 -0.3143,0.11863 -0.30068,0.0821 -0.42432,0.13497 -0.69612,0.29774 -0.0831,0.0497 -0.17767,0.10395 -0.21022,0.12045 l -0.0592,0.03 z"
       id="path165"
       inkscape:connector-curvature="0" />
    <path
       style="fill:#ffffff;stroke-width:0.0104167"
       d="m 129.51081,110.06285 c -0.29844,-0.12411 -0.40718,-0.17979 -0.46633,-0.2388 -0.0717,-0.0715 -0.24296,-0.44162 -0.24513,-0.52972 -0.002,-0.095 0.0367,-0.11794 0.58226,-0.34161 0.3626,-0.14868 1.38681,-0.55215 1.42061,-0.55963 0.0215,-0.005 0.0654,0.0746 0.19383,0.35061 l 0.11615,0.24962 -0.0903,0.20399 c -0.1125,0.25424 -0.17592,0.3803 -0.23839,0.47385 -0.0395,0.0592 -0.0604,0.0792 -0.11072,0.10648 -0.12462,0.0674 -0.44793,0.2038 -0.89639,0.3781 -0.0164,0.006 -0.0823,-0.0166 -0.26562,-0.0929 z"
       id="path167"
       inkscape:connector-curvature="0" />
    <path
       style="fill:#ffffff;stroke-width:0.0104167"
       d="m 126.45976,115.47585 c 5e-5,-0.23299 0.0307,-0.41127 0.0947,-0.55 0.0367,-0.0796 0.12736,-0.17662 0.18896,-0.20221 0.063,-0.0262 0.21257,-0.0365 0.53403,-0.0368 0.51517,-5.4e-4 0.95313,-0.0293 0.95313,-0.0626 0,-0.005 -0.0638,-0.0896 -0.14172,-0.18881 -0.1683,-0.21435 -0.25132,-0.33837 -0.33034,-0.4935 -0.0771,-0.15144 -0.11889,-0.19496 -0.20191,-0.2104 -0.16186,-0.0301 -0.44813,-0.1916 -0.62779,-0.35419 -0.0772,-0.0698 -0.18072,-0.19371 -0.24448,-0.29245 -0.11418,-0.17684 -0.15671,-0.34722 -0.17103,-0.68518 -0.01,-0.2349 -5.4e-4,-0.3418 0.0403,-0.45768 0.17656,-0.50078 0.60397,-0.87157 1.10326,-0.95714 0.12451,-0.0213 0.33479,-0.0217 0.45514,-7.2e-4 0.27332,0.0476 0.61539,0.22219 0.8013,0.40905 l 0.0829,0.0833 0.8125,-0.33237 c 2.4475,-1.00119 2.8363,-1.14603 3.08334,-1.14864 0.10616,-9.9e-4 0.17558,0.0288 0.25803,0.11126 0.18752,0.18751 0.19566,0.49494 0.0174,0.65627 -0.13479,0.12197 -0.33666,0.21024 -2.47332,1.08174 -0.59011,0.24067 -1.12041,0.46009 -1.17846,0.48756 -0.15904,0.0753 -0.17221,0.0919 -0.25535,0.32329 -0.0381,0.10596 -0.0977,0.2657 -0.13252,0.35496 -0.0791,0.20294 -0.0875,0.25859 -0.0501,0.33474 0.0336,0.0683 0.20465,0.25245 0.29356,0.31589 0.13483,0.0962 0.30269,0.15169 0.45825,0.15144 0.2,-3.2e-4 0.48119,-0.0923 1.68229,-0.54998 0.88193,-0.3361 1.09766,-0.41332 1.27604,-0.45673 0.12254,-0.0298 0.24558,-0.0332 0.32884,-0.009 0.32708,0.0953 0.56371,0.51354 0.47988,0.84817 -0.0122,0.0487 -0.0384,0.12127 -0.0582,0.16138 -0.11293,0.22858 -0.28662,0.32336 -1.34676,0.73496 -0.093,0.0361 -0.16732,0.0675 -0.1651,0.0697 0.002,0.002 0.0586,0.0129 0.12521,0.0238 0.13691,0.0223 0.43478,0.0375 1.0059,0.0513 0.30132,0.007 0.40492,0.0132 0.45313,0.0261 0.11885,0.0317 0.24259,0.1409 0.27088,0.23903 0.0177,0.0614 0.0324,0.22267 0.0419,0.45925 0.004,0.0917 0.009,0.17486 0.0117,0.18489 0.005,0.0173 -0.17807,0.0182 -3.73523,0.0182 h -3.7403 z m 1.56948,-2.71624 c 0.0889,-0.0438 0.20899,-0.1617 0.24918,-0.24469 0.0272,-0.0562 0.0303,-0.073 0.0303,-0.16667 0,-0.0934 -0.003,-0.10977 -0.0285,-0.1582 -0.0418,-0.0793 -0.11997,-0.15195 -0.213,-0.19793 -0.0769,-0.038 -0.0847,-0.0397 -0.18504,-0.0397 -0.0916,0 -0.1121,0.003 -0.16382,0.0277 -0.15965,0.0748 -0.24843,0.23956 -0.235,0.43601 0.003,0.0431 0.0127,0.0958 0.0216,0.1173 0.0206,0.0492 0.10629,0.14038 0.17924,0.19063 0.12313,0.0848 0.22387,0.0952 0.34503,0.0355 z"
       id="path169"
       inkscape:connector-curvature="0" />
  </g>
</svg>
