<?xml version="1.0" encoding="UTF-8" standalone="no"?>
<svg xmlns:dc="http://purl.org/dc/elements/1.1/" xmlns:cc="http://creativecommons.org/ns#" xmlns:rdf="http://www.w3.org/1999/02/22-rdf-syntax-ns#" xmlns:svg="http://www.w3.org/2000/svg" xmlns="http://www.w3.org/2000/svg" xmlns:sodipodi="http://sodipodi.sourceforge.net/DTD/sodipodi-0.dtd" xmlns:inkscape="http://www.inkscape.org/namespaces/inkscape" inkscape:version="1.0beta2 (unknown)" sodipodi:docname="research-white.svg" id="svg157" preserveAspectRatio="xMidYMid meet" viewBox="0 0 256.000000 256.000000" height="256.000000pt" width="256.000000pt" version="1.0">
  <defs id="defs161"/>
  <sodipodi:namedview inkscape:current-layer="svg157" inkscape:window-maximized="1" inkscape:window-y="0" inkscape:window-x="0" inkscape:cy="170.66667" inkscape:cx="170.66667" inkscape:zoom="3.3867188" showguides="true" showgrid="false" id="namedview159" inkscape:window-height="1355" inkscape:window-width="2512" inkscape:pageshadow="2" inkscape:pageopacity="0" guidetolerance="10" gridtolerance="10" objecttolerance="10" borderopacity="1" inkscape:document-rotation="0" bordercolor="#666666" pagecolor="#ffffff"/>
  <metadata id="metadata147">
Created by potrace 1.15, written by Peter Selinger 2001-2017
<rdf:RDF>
  <cc:Work rdf:about="">
    <dc:format>image/svg+xml</dc:format>
    <dc:type rdf:resource="http://purl.org/dc/dcmitype/StillImage"/>
    <dc:title/>
  </cc:Work>
</rdf:RDF>
</metadata>
  <g id="g155" stroke="none" fill="#000000" transform="translate(0.000000,256.000000) scale(0.100000,-0.100000)">
    <path id="path149" d="M845 2491 c-88 -37 -177 -75 -197 -84 -21 -9 -38 -22 -38 -29 0 -22 58 -138 69 -138 6 0 29 7 52 16 35 14 42 15 50 3 16 -25 9 -39 -26 -53 -19 -8 -38 -22 -42 -31 -3 -10 15 -68 40 -133 26 -65 49 -124 52 -133 4 -11 -17 -27 -89 -62 -138 -69 -217 -161 -260 -306 -19 -63 -21 -207 -5 -266 20 -72 110 -295 119 -295 5 0 37 18 70 39 42 27 86 45 136 57 47 10 74 21 71 28 -43 103 -99 252 -103 274 -8 40 12 105 43 142 25 30 109 80 136 80 7 0 18 -15 25 -32 24 -64 12 -66 248 27 120 47 220 87 221 89 3 3 -131 336 -236 591 -28 67 -31 70 -63 69 -18 -1 -43 -5 -55 -9 -18 -6 -25 -3 -32 16 -8 21 -4 26 25 42 26 13 34 24 33 45 -1 42 -41 117 -64 119 -11 1 -92 -28 -180 -66z"/>
    <path id="path151" d="M1355 1496 c-60 -23 -158 -62 -217 -87 -120 -49 -116 -40 -74 -134 22 -48 27 -53 101 -84 l77 -32 92 36 c50 20 100 43 112 50 11 7 35 47 53 89 l33 75 -30 66 c-17 36 -32 65 -34 65 -2 -1 -52 -20 -113 -44z"/>
    <path id="path153" d="M1468 1041 l-387 -158 -23 24 c-12 13 -49 37 -82 53 -151 76 -331 10 -404 -148 -21 -47 -24 -64 -20 -136 5 -90 19 -125 76 -188 36 -39 120 -88 153 -88 9 0 24 -18 35 -42 10 -24 38 -66 61 -94 l41 -52 -30 -6 c-17 -3 -88 -6 -158 -6 -122 0 -128 -1 -152 -25 -25 -24 -38 -77 -38 -146 l0 -29 796 0 796 0 -4 76 c-3 69 -6 79 -31 100 -26 22 -36 24 -155 25 -70 0 -147 4 -171 7 l-45 7 138 54 c148 59 177 81 196 149 20 76 -36 171 -111 186 -42 8 -75 -2 -307 -91 -299 -115 -360 -134 -402 -127 -51 10 -83 28 -119 70 -35 39 -35 40 -3 119 11 28 24 64 29 80 7 25 20 35 83 60 41 17 223 91 404 165 301 123 332 139 349 168 24 41 16 95 -20 128 -47 43 -76 35 -495 -135z m-562 -285 c41 -35 39 -89 -4 -127 -40 -36 -71 -37 -111 -3 -25 21 -31 33 -31 65 0 80 85 118 146 65z"/>
  </g>
  <path transform="scale(0.74999998)" inkscape:connector-curvature="0" id="path163" d="m 75.829429,210.20883 c -1.774112,-2.20727 -10.877498,-24.6619 -14.630317,-36.08749 -1.671434,-5.08874 -2.013972,-7.61446 -2.182438,-16.09227 -0.230562,-11.60266 0.476684,-17.65486 2.915651,-24.95041 5.86501,-17.54369 16.027377,-28.9756 33.582205,-37.777472 7.56381,-3.792438 11.18807,-6.072866 11.80561,-7.428217 0.38002,-0.834046 0.67455,0.02973 -4.47037,-13.110341 -4.29057,-10.958058 -7.186798,-19.453919 -7.478812,-21.938509 -0.181636,-1.545443 -0.179906,-1.549536 1.189874,-2.812153 0.754474,-0.695452 2.45222,-1.786948 3.772768,-2.425548 4.13213,-1.998253 4.96006,-2.789721 4.96006,-4.741619 0,-0.925699 -0.63543,-2.409734 -1.41009,-3.293244 -0.74206,-0.846321 -2.6789,-0.64362 -6.042726,0.632403 -1.66612,0.632019 -3.959414,1.437456 -5.096207,1.789859 l -2.066898,0.640732 -1.037172,-1.158304 C 87.966496,39.586656 82.932178,29.4645 81.861588,25.815586 l -0.456541,-1.556041 0.861241,-0.9809 c 1.376316,-1.567537 3.084224,-2.350892 29.046602,-13.3226143 12.86948,-5.438652 23.25952,-9.30643439 24.99991,-9.30643439 2.79142,0 7.41212,7.67821859 8.5488,14.20556169 0.6169,3.542459 -0.33261,5.094661 -4.65389,7.607957 -1.17836,0.685343 -2.40743,1.530474 -2.73126,1.878069 -0.74213,0.796583 -0.75588,2.338786 -0.035,3.925746 1.09733,2.415692 1.70598,2.591573 5.52585,1.596821 1.28457,-0.334522 3.80472,-0.685183 5.60033,-0.779246 l 3.26475,-0.171026 1.10118,0.966842 c 1.4875,1.306045 2.24595,2.971267 10.087,22.146438 15.32871,37.486169 25.94396,64.339291 25.58333,64.717471 -0.31909,0.33461 -23.51258,9.60779 -41.38174,16.54518 -9.69951,3.76566 -14.65522,5.20872 -16.62114,4.83991 -1.43013,-0.26829 -2.17127,-1.21483 -3.45089,-4.40727 -1.3727,-3.42467 -2.70254,-5.43971 -3.76614,-5.70666 -1.73909,-0.43648 -6.69687,1.72471 -12.01734,5.2386 -3.98934,2.63475 -6.61618,5.09888 -8.26955,7.75731 -2.74532,4.41416 -4.485669,10.47725 -4.212626,14.67604 0.210741,3.24068 3.294316,12.07307 10.580566,30.30627 1.76572,4.41857 3.2104,8.18053 3.2104,8.35993 0,0.59442 -3.62973,1.97979 -8.11995,3.09918 -8.595141,2.14271 -12.746847,3.8865 -20.633879,8.66658 -6.498202,3.93835 -7.718147,4.55487 -8.092172,4.08953 z" style="fill:#ffffff;stroke:none;stroke-width:0.295271"/>
  <path transform="scale(0.74999998)" inkscape:connector-curvature="0" id="path165" d="m 75.514757,209.32638 c -1.421146,-2.30564 -6.567804,-14.60721 -10.529634,-25.16799 -2.967605,-7.91055 -4.658695,-13.14362 -5.199589,-16.09011 -0.56241,-3.0637 -0.571166,-21.83655 -0.01184,-25.39331 1.479228,-9.40648 5.997626,-20.22447 11.607235,-27.79015 5.364334,-7.23488 12.74164,-13.26799 22.750092,-18.604874 10.510659,-5.604684 12.147079,-6.614331 13.115229,-8.091917 0.63163,-0.963987 0.62019,-1.002528 -3.28217,-11.063231 -5.83485,-15.042837 -8.414364,-22.658058 -8.414364,-24.840814 0,-0.924747 0.197067,-1.266228 1.254902,-2.174517 0.690196,-0.592621 2.614205,-1.807735 4.275572,-2.700254 1.66137,-0.892516 3.28906,-1.963942 3.61707,-2.380948 0.8239,-1.047421 0.78797,-3.127345 -0.0806,-4.664713 -0.63382,-1.121879 -0.74652,-1.185625 -2.24841,-1.271676 -1.30382,-0.0747 -2.447948,0.209214 -6.523016,1.618694 -5.618134,1.94319 -5.270899,1.976825 -6.970939,-0.675244 -1.443701,-2.25218 -5.216788,-9.936439 -6.337278,-12.906485 -0.734889,-1.947946 -0.906056,-2.726545 -0.678657,-3.087048 1.062978,-1.68517 3.901907,-3.068095 22.26523,-10.846047 19.09451,-8.0876513 29.9913,-12.25087864 32.0653,-12.25087864 3.10559,0 8.47483,9.60781164 8.51027,15.22842264 0.0116,1.835269 -0.0855,2.218391 -0.79985,3.155803 -0.44716,0.586818 -1.82233,1.706346 -3.05594,2.48784 -3.77861,2.393753 -3.95572,2.584801 -3.95572,4.266885 0,1.438547 0.5138,2.849205 1.41009,3.87143 0.56423,0.643514 2.19519,0.667404 4.73206,0.06932 1.0234,-0.241274 3.40603,-0.574148 5.29473,-0.73972 l 3.43401,-0.301041 1.00495,0.965538 c 0.55273,0.531047 1.5826,2.164185 2.28862,3.629196 2.69939,5.601362 25.7372,62.442035 31.47196,77.650059 l 2.00418,5.31488 -1.53426,0.69608 c -0.84384,0.38284 -7.1347,2.93668 -13.97969,5.67521 -36.08714,14.43762 -41.38709,16.2004 -43.54752,14.48405 -0.45692,-0.363 -1.29722,-1.80642 -2.03888,-3.50227 -2.13779,-4.88818 -3.02808,-5.98768 -4.84232,-5.98016 -3.74957,0.0155 -14.46227,6.5315 -18.20847,11.07526 -4.2948,5.20914 -6.524051,13.98546 -5.027638,19.79319 1.126798,4.37325 4.239038,12.88698 10.348268,28.30833 1.47533,3.72413 2.68241,6.92813 2.68241,7.12 0,0.59834 -3.1791,1.79824 -8.90903,3.36257 -8.523192,2.32692 -12.027879,3.82592 -19.732256,8.43978 -2.354787,1.41019 -5.036283,2.94659 -5.958881,3.41422 l -1.677451,0.85025 z" style="fill:#ffffff;stroke-width:0.295271"/>
  <path transform="scale(0.74999998)" inkscape:connector-curvature="0" id="path167" d="m 158.70912,183.74764 c -8.4594,-3.51794 -11.54195,-5.09644 -13.21864,-6.76894 -2.0317,-2.02663 -6.88679,-12.51845 -6.9484,-15.01547 -0.0665,-2.69301 1.04134,-3.34296 16.50475,-9.6833 10.2784,-4.21438 39.31066,-15.65112 40.26877,-15.86317 0.61023,-0.13505 1.85325,2.11341 5.49423,9.93833 l 3.29238,7.07574 -2.55872,5.78229 c -3.1889,7.20637 -4.98668,10.77988 -6.75736,13.43186 -1.11969,1.67698 -1.7118,2.24639 -3.13867,3.01835 -3.5324,1.91109 -12.697,5.77668 -25.40893,10.71738 -0.46569,0.181 -2.33178,-0.47158 -7.52941,-2.63307 z" style="fill:#ffffff;stroke-width:0.295271"/>
  <path transform="scale(0.74999998)" inkscape:connector-curvature="0" id="path169" d="m 72.224131,337.18478 c 0.0014,-6.60445 0.871392,-11.65791 2.683995,-15.5904 1.03983,-2.25595 3.610247,-5.00651 5.356371,-5.73178 1.785223,-0.74151 6.025539,-1.03379 15.137579,-1.04343 14.602994,-0.0154 27.017304,-0.83104 27.017304,-1.77501 0,-0.12986 -1.80766,-2.53825 -4.01701,-5.35196 -4.77087,-6.07592 -7.12406,-9.59138 -9.36393,-13.98893 -2.18646,-4.29268 -3.3702,-5.52614 -5.72335,-5.96375 -4.588097,-0.85325 -12.702809,-5.4315 -17.795369,-10.04001 -2.18687,-1.979 -5.122784,-5.49105 -6.929936,-8.28985 -3.236689,-5.01277 -4.44227,-9.84239 -4.848161,-19.422 -0.282121,-6.65848 -0.01514,-9.68877 1.143017,-12.97359 5.004869,-14.19499 17.120126,-24.70556 31.273039,-27.13088 3.52918,-0.60478 9.4899,-0.61429 12.90122,-0.0206 7.74763,1.34841 17.44387,6.29821 22.71381,11.59509 l 2.34909,2.3611 23.03114,-9.42128 c 69.37689,-28.37979 80.39784,-32.48546 87.40023,-32.55953 3.00938,-0.0318 4.9772,0.81663 7.31419,3.15362 5.31555,5.31555 5.54619,14.02984 0.49236,18.60273 -3.82073,3.45714 -9.54289,5.95979 -70.10874,30.66285 -16.7271,6.8225 -31.75924,13.04173 -33.40474,13.82051 -4.50795,2.13352 -4.88138,2.60632 -7.23817,9.16435 -1.07932,3.00333 -2.76965,7.53099 -3.75629,10.06148 -2.2429,5.75247 -2.4788,7.3299 -1.41899,9.48841 0.95111,1.93714 5.80105,7.15624 8.32117,8.95456 3.82201,2.72733 8.58014,4.29975 12.98952,4.29265 5.66938,-0.009 13.63992,-2.61492 47.68628,-15.58996 24.99942,-9.52727 31.11437,-11.71597 36.1707,-12.94648 3.47367,-0.84534 6.96131,-0.93965 9.32127,-0.25205 9.27154,2.70137 15.97911,14.55682 13.6028,24.04261 -0.34548,1.37908 -1.08766,3.43752 -1.6493,4.57431 -3.20112,6.47929 -8.12436,9.16605 -38.17507,20.83325 -2.6368,1.02374 -4.74285,1.91268 -4.68011,1.97542 0.0627,0.0627 1.65993,0.36624 3.5493,0.67445 3.88077,0.63305 12.32419,1.06395 28.51323,1.45514 8.5411,0.20638 11.47772,0.37559 12.84429,0.7401 3.36908,0.89865 6.87673,3.99388 7.67856,6.77572 0.50167,1.7405 0.91836,6.31167 1.18662,13.01766 0.10395,2.59839 0.25349,4.95686 0.33233,5.24106 0.13631,0.49143 -5.04759,0.51673 -105.87888,0.51673 H 72.223299 Z m 44.488309,-76.99493 c 2.5197,-1.24044 5.92405,-4.58335 7.06336,-6.93587 0.77188,-1.59384 0.85797,-2.06795 0.85782,-4.72434 -1.5e-4,-2.6466 -0.0839,-3.1115 -0.80757,-4.48446 -1.18515,-2.24838 -3.40069,-4.3071 -6.03779,-5.61042 -2.18127,-1.07804 -2.40206,-1.12542 -5.24515,-1.12542 -2.59685,0 -3.17758,0.0982 -4.64373,0.78554 -4.52524,2.12136 -7.04182,6.79062 -6.66121,12.35925 0.0834,1.22087 0.35951,2.71708 0.61349,3.32492 0.58287,1.39502 3.01283,3.97941 5.08072,5.40361 3.49009,2.40372 6.34589,2.69783 9.78006,1.00719 z" style="fill:#ffffff;stroke-width:0.295271"/>
</svg>