<?xml version="1.0" encoding="UTF-8" standalone="no"?>
<svg
   xmlns:dc="http://purl.org/dc/elements/1.1/"
   xmlns:cc="http://creativecommons.org/ns#"
   xmlns:rdf="http://www.w3.org/1999/02/22-rdf-syntax-ns#"
   xmlns:svg="http://www.w3.org/2000/svg"
   xmlns="http://www.w3.org/2000/svg"
   version="1.1"
   id="svg4313"
   viewBox="0 0 500.00001 499.99487"
   height="141.10966mm"
   width="141.11111mm">
  <defs
     id="defs4315" />
  <metadata
     id="metadata4318">
    <rdf:RDF>
      <cc:Work
         rdf:about="">
        <dc:format>image/svg+xml</dc:format>
        <dc:type
           rdf:resource="http://purl.org/dc/dcmitype/StillImage" />
        <dc:title></dc:title>
      </cc:Work>
    </rdf:RDF>
  </metadata>
  <g
     transform="translate(-143.22986,23.654665)"
     id="layer1">
    <path
       d="m 643.22986,226.34277 c 0,138.08263 -111.9148,249.99743 -249.99744,249.99743 -138.0775,0 -250.00256,-111.9148 -250.00256,-249.99743 0,-138.072374 111.92506,-249.997435 250.00256,-249.997435 138.08264,0 249.99744,111.925061 249.99744,249.997435"
       style="fill:#29833b;fill-opacity:1;fill-rule:nonzero;stroke:none"
       id="path4223" />
    <path
       d="m 528.54284,151.89041 c -3.02154,9.15182 -12.88129,14.11247 -22.01771,11.10632 -9.15182,-3.02153 -14.13299,-12.87615 -11.10632,-22.02796 3.00101,-9.15695 12.88128,-14.10734 21.99718,-11.09607 9.16208,3.01128 14.13812,12.87616 11.12685,22.01771"
       style="fill:#ffffff;fill-opacity:1;fill-rule:nonzero;stroke:none"
       id="path4227" />
    <path
       d="M 520.75969,384.74104 492.87846,351.6837 c 18.63195,-16.95446 59.34829,-59.56888 65.01175,-112.48423 l -23.11552,-2.47263 c -6.18671,57.56307 -64.78603,104.00956 -65.36571,104.47126 l -9.52117,7.42815 41.88597,49.69887 c -31.11823,19.72463 -67.94095,31.26187 -107.3902,31.47732 l 0,-100.99315 -23.25915,0 0,99.79788 C 269.28483,417.55214 189.74509,331.09211 189.74509,226.3541 c 0,-112.21747 91.28218,-203.494519 203.474,-203.494519 8.01297,0 15.89769,0.512994 23.6439,1.410733 -26.15244,8.551613 -47.32884,26.28069 -61.39001,52.407482 -28.59943,53.125674 -20.29918,129.695174 18.12921,167.225834 10.70106,10.44969 29.40483,23.32584 56.58325,23.32584 16.62102,0 36.40207,-4.82215 59.47142,-17.95993 l -11.4962,-20.2017 C 442.43062,249.41318 411.8972,248.78733 389.84359,227.2621 358.76127,196.91336 352.2565,131.69129 375.94657,87.7123 397.6924,47.324271 453.48564,27.235421 495.25875,50.391976 555.86388,85.675713 596.7136,151.30305 596.7136,226.3541 c 0,63.93446 -29.66645,121.06148 -75.95391,158.38694 M 393.21909,-0.39957387 c -125.01668,0 -226.72802,101.71134387 -226.72802,226.75367387 0,125.01667 101.71134,226.73828 226.72802,226.73828 125.03206,0 226.7588,-101.72161 226.7588,-226.73828 0,-125.04233 -101.72674,-226.75367387 -226.7588,-226.75367387"
       style="fill:#ffffff;fill-opacity:1;fill-rule:nonzero;stroke:none"
       id="path4231" />
  </g>
</svg>
