<svg id="Layer_1" data-name="Layer 1" xmlns="http://www.w3.org/2000/svg" viewBox="0 0 67.383 53.333"><defs><style>.cls-1{fill:#594cda;}.cls-2{fill:#eb427e;}</style></defs><title>features-icon-4</title><path class="cls-1" d="M16.521,29.333H67.383V50.672a2.738,2.738,0,0,1-2.806,2.661H19.326a2.735,2.735,0,0,1-2.806-2.659V29.333Zm0-26.672A2.738,2.738,0,0,1,19.326,0h45.25a2.736,2.736,0,0,1,2.806,2.661V24H16.521V2.661ZM33.475,8v5.333H50.429V8H33.475Zm0,29.333v5.333H50.429V37.333H33.475Z"/><path class="cls-2" d="M22,16.278A13.528,13.528,0,0,0,3.048,18.367a13.224,13.224,0,0,0,2,18.867V48.76a0.974,0.974,0,0,0,.207.433,0.891,0.891,0,0,0,1.195.288l7.141-4.272,7.13,4.272a0.945,0.945,0,0,0,.46.119,0.864,0.864,0,0,0,.868-0.839V37.234c0-.617,1.448-1.318,2.065-2.089A13.425,13.425,0,0,0,22,16.278ZM13.614,30.827a4.073,4.073,0,1,1,4.073-4.073A4.073,4.073,0,0,1,13.614,30.827Z"/></svg>