<svg id="Layer_2" data-name="Layer 2" xmlns="http://www.w3.org/2000/svg" viewBox="0 0 183 44.009"><defs><style>.cls-1{fill:#594cda;fill-rule:evenodd;}.cls-2{fill:#252c38;}</style></defs><title>logo</title><path class="cls-1" d="M9.9,31.956C9.9,35.53,5.821,41.148,0,44a42.245,42.245,0,0,0,22.155-6.023A37.95,37.95,0,0,0,29,38.7a28.667,28.667,0,0,0,17.765-5.717c4.595-3.475,7.352-8.274,7.352-13.685,0-5.312-2.757-10.11-7.352-13.685A29.289,29.289,0,0,0,29,0,29.52,29.52,0,0,0,11.231,5.609C6.638,9.185,3.883,13.983,3.883,19.295A16.864,16.864,0,0,0,9.9,31.956h0Z" transform="translate(0 0.004)"/><path class="cls-2" d="M73.852,39.211a3.254,3.254,0,0,1-.889-2.413V7.073A3.04,3.04,0,0,1,73.8,4.786a3.183,3.183,0,0,1,2.311-.813h12.5q5.739,0,8.943,2.87t3.2,8.055a10.34,10.34,0,0,1-3.2,8.078q-3.2,2.9-8.943,2.9H79.516V36.8a3.068,3.068,0,0,1-3.3,3.3A3.186,3.186,0,0,1,73.852,39.211ZM87.8,20.843q6.757,0,6.758-5.895T87.8,9.056H79.516V20.843H87.8Z" transform="translate(0 0.004)"/><path class="cls-2" d="M123.739,16.906q2.518,2.565,2.518,7.8V37.1a2.87,2.87,0,0,1-.814,2.161,3.075,3.075,0,0,1-2.237.788,2.969,2.969,0,0,1-2.158-.813,2.842,2.842,0,0,1-.839-2.136V35.985a6.615,6.615,0,0,1-2.716,3.1A8.157,8.157,0,0,1,113.2,40.2a9.961,9.961,0,0,1-4.523-1.017,8,8,0,0,1-3.2-2.8,7.041,7.041,0,0,1-1.17-3.963,6.283,6.283,0,0,1,1.4-4.317,8.386,8.386,0,0,1,4.548-2.287,41.3,41.3,0,0,1,8.686-.711h1.269v-1.17a5.207,5.207,0,0,0-1.067-3.633,4.53,4.53,0,0,0-3.452-1.143,10.977,10.977,0,0,0-3,.432q-1.526.431-3.609,1.245a5.071,5.071,0,0,1-1.931.662,1.908,1.908,0,0,1-1.5-.662,2.512,2.512,0,0,1-.583-1.726,2.588,2.588,0,0,1,.43-1.5,4.116,4.116,0,0,1,1.447-1.2,16.6,16.6,0,0,1,4.242-1.524,21.952,21.952,0,0,1,4.854-.56Q121.223,14.338,123.739,16.906Zm-5.131,17.02a6.152,6.152,0,0,0,1.6-4.394V28.466h-0.914a35.141,35.141,0,0,0-5.284.3,5.116,5.116,0,0,0-2.691,1.067,2.722,2.722,0,0,0-.814,2.084,3.454,3.454,0,0,0,1.145,2.667,4.03,4.03,0,0,0,2.82,1.042A5.418,5.418,0,0,0,118.608,33.926Z" transform="translate(0 0.004)"/><path class="cls-2" d="M151.12,14.9a2.639,2.639,0,0,1,1.5-.457,3.206,3.206,0,0,1,2.109.788,2.457,2.457,0,0,1,.938,1.956,2.724,2.724,0,0,1-.306,1.22l-9.4,19.662a3.337,3.337,0,0,1-1.294,1.474,3.52,3.52,0,0,1-1.856.509,3.667,3.667,0,0,1-1.852-.509,3.234,3.234,0,0,1-1.348-1.474l-9.451-19.662a2.585,2.585,0,0,1-.252-1.17,2.484,2.484,0,0,1,.988-1.981,3.468,3.468,0,0,1,2.261-.813,2.837,2.837,0,0,1,2.7,1.778l7.111,15.7,7.061-15.651A3.1,3.1,0,0,1,151.12,14.9Z" transform="translate(0 0.004)"/><path class="cls-2" d="M163.668,38.628a10.89,10.89,0,0,1-4.444-4.524,14.327,14.327,0,0,1-1.575-6.858,14.2,14.2,0,0,1,1.575-6.835,10.933,10.933,0,0,1,4.444-4.5,14.954,14.954,0,0,1,13.362,0,10.778,10.778,0,0,1,4.42,4.5A14.381,14.381,0,0,1,183,27.246a14.515,14.515,0,0,1-1.55,6.858,10.736,10.736,0,0,1-4.42,4.524A14.954,14.954,0,0,1,163.668,38.628Zm11.353-5.386q1.631-2.031,1.629-6a9.442,9.442,0,0,0-1.629-5.971,5.6,5.6,0,0,0-4.672-2.057,5.673,5.673,0,0,0-4.7,2.057A9.365,9.365,0,0,0,164,27.246q0,3.963,1.625,6A6.447,6.447,0,0,0,175.021,33.242Z" transform="translate(0 0.004)"/></svg>