<?xml version="1.0" encoding="UTF-8"?><svg id="Ebene_1" xmlns="http://www.w3.org/2000/svg" viewBox="0 0 600 600"><defs><style>.cls-1{fill:#fff;}</style></defs><path class="cls-1" d="M451.14,399.6l-9.32-5.51c-26.75-15.82-53.01-39.82-72.03-65.83-2.48-3.39-2.7-7.92-.56-11.54,18.87-31.91,18.85-77.58,18.84-107.8v-1.96c0-48.46-39.43-87.89-87.89-87.89-.28,0-.55-.01-.82-.03-.27,.02-.54,.03-.82,.03-48.46,0-87.89,39.43-87.89,87.89v1.96c0,30.22-.02,75.89,18.85,107.8,2.14,3.61,1.91,8.15-.56,11.54-19.03,26.02-45.29,50.01-72.03,65.83l-9.32,5.51c-9.02,5.33-12.01,17.01-6.68,26.02s17,12.02,26.03,6.68l9.32-5.51c24.75-14.64,45.91-33.83,62.89-57.04l21.93-29.98c2.01-2.75,5.19-4.3,8.47-4.3,1.09,0,2.18,.17,3.26,.52,4.32,1.41,7.24,5.44,7.24,9.98v126.45c0,9.21,7.71,16.7,17.18,16.7h4.29c9.48,0,17.18-7.49,17.18-16.7v-126.44c0-4.54,2.92-8.57,7.24-9.98,4.31-1.4,9.05,.11,11.73,3.78l21.93,29.98c16.98,23.21,38.14,42.4,62.89,57.04l9.32,5.51c9.02,5.34,20.69,2.34,26.02-6.68,5.34-9.02,2.34-20.69-6.68-26.02Zm-167.3-130.56c0,7.02-5.69,12.7-12.7,12.7s-12.7-5.69-12.7-12.7v-43.57c0-7.02,5.69-12.7,12.7-12.7s12.7,5.69,12.7,12.7v43.57Zm56.46,0c0,7.02-5.69,12.7-12.71,12.7s-12.71-5.69-12.71-12.7v-43.57c0-7.02,5.69-12.7,12.71-12.7s12.71,5.69,12.71,12.7v43.57Z"/><path class="cls-1" d="M300.04,0C134.35,0,.04,134.31,.04,300s134.31,300,300,300,300-134.31,300-300S465.72,0,300.04,0Zm.04,572.19c-150.09,0-272.19-122.11-272.19-272.19S149.98,27.8,300.07,27.8s272.2,122.11,272.2,272.2-122.11,272.19-272.2,272.19Z"/><path class="cls-1" d="M140.01,256.49l-10.51-2.61c-10.17-2.52-20.49,3.7-23.02,13.86-2.52,10.17,3.7,20.49,13.86,23.02l10.51,2.61c22.45,5.57,45.36,7.4,68.28,5.48-3.54-11.65-5.77-23.73-7.16-35.57-17.52-.3-34.95-2.56-51.97-6.79Z"/><path class="cls-1" d="M206.1,149.51l-1.09-1.39c-6.46-8.24-18.43-9.7-26.67-3.24-8.25,6.46-9.7,18.43-3.24,26.67l6.68,8.52c2.9,3.7,5.93,7.31,9.08,10.82,2.23-15.01,7.53-29.02,15.24-41.39Z"/><path class="cls-1" d="M416.95,180.08l6.67-8.52c6.46-8.25,5.01-20.21-3.24-26.67-4-3.13-8.97-4.51-14.01-3.91-5.04,.61-9.54,3.15-12.67,7.14l-1.09,1.39c7.71,12.37,13.01,26.38,15.24,41.39,3.15-3.51,6.18-7.12,9.08-10.82Z"/><path class="cls-1" d="M300.07,54.32c-135.47,0-245.68,110.21-245.68,245.68s110.21,245.68,245.68,245.68,245.68-110.21,245.68-245.68S435.54,54.32,300.07,54.32Zm183.37,256.81l-10.51,2.61c-18.37,4.56-37.04,6.85-55.78,6.85-8.48,0-16.97-.48-25.46-1.41-.32,.66-.63,1.32-.96,1.97,16.86,21.52,39.55,41.73,61.78,54.88l9.32,5.51c18.98,11.23,25.29,35.8,14.06,54.78-11.23,18.98-35.8,25.28-54.78,14.06l-9.32-5.51c-27.22-16.1-50.48-37.2-69.15-62.72l-2.96-4.05v94.32c0,20.78-17.13,37.69-38.18,37.69h-4.29c-21.05,0-38.17-16.91-38.17-37.69v-94.32l-2.96,4.05c-18.67,25.52-41.93,46.62-69.15,62.72l-9.32,5.51c-18.98,11.22-43.55,4.92-54.78-14.06-11.23-18.98-4.92-43.55,14.06-54.78l9.32-5.51c22.22-13.14,44.92-33.36,61.78-54.88-.33-.65-.64-1.31-.96-1.97-8.49,.94-16.98,1.41-25.45,1.41-18.74,0-37.41-2.29-55.79-6.85l-10.51-2.61c-21.4-5.31-34.49-27.04-29.18-48.45,5.31-21.4,27.04-34.49,48.45-29.18l10.51,2.61c14.81,3.68,29.98,5.73,45.21,6.13-.4-7.92-.53-15.52-.58-22.6-8.81-8.22-17.02-17.15-24.44-26.62l-6.68-8.52c-13.6-17.36-10.54-42.54,6.82-56.14,16.41-12.86,39.82-10.82,53.81,4.12,19.87-21.16,48.09-34.4,79.34-34.4,.28,0,.55,.01,.82,.03,.27-.02,.54-.03,.82-.03,31.25,0,59.46,13.24,79.34,34.4,6.4-6.84,14.92-11.19,24.34-12.33,10.6-1.28,21.07,1.63,29.48,8.22,17.36,13.6,20.41,38.78,6.81,56.14l-6.67,8.52c-7.42,9.47-15.63,18.41-24.44,26.62-.05,7.08-.18,14.68-.58,22.61,15.24-.41,30.39-2.46,45.21-6.14l10.51-2.61c21.4-5.32,43.13,7.78,48.45,29.18,5.31,21.4-7.78,43.13-29.18,48.45Z"/><path class="cls-1" d="M469.23,253.88l-10.51,2.61c-17.02,4.23-34.46,6.5-51.97,6.79-1.39,11.84-3.61,23.91-7.15,35.57,22.92,1.91,45.84,.09,68.28-5.48l10.51-2.61c10.17-2.52,16.38-12.85,13.86-23.02-2.52-10.17-12.87-16.38-23.02-13.86Z"/></svg>